<?xml version="1.0" standalone="no"?> <!DOCTYPE svg PUBLIC "-//W3C//DTD SVG 1.0//EN" "http://www.w3.org/TR/2001/REC-SVG-20010904/DTD/svg10.dtd" > <svg xmlns="http://www.w3.org/2000/svg" width="100%" height="100%">
<defs >
<font id="GoudyStM" horiz-adv-x="1109" ><font-face
    font-family="Sorts Mill Goudy"
    units-per-em="2048"
    panose-1="2 0 5 3 0 0 0 0 0 0"
    ascent="1966"
    descent="-897"
    alphabetic="0" />
<missing-glyph horiz-adv-x="812" d="M48 -132V1454H732V-132H48ZM154 1254Q154 1248 158 1241T172 1234Q178 1234 193 1247T233 1273T284 1287Q306 1287 335 1278T396 1250T449 1198T471 1122Q471 1069 424 959T330 736T283 562Q283 515 301 457T349 399Q365
399 365 420Q365 428 360 461T354 515Q354 575 383 643T455 774T540 897T612 1023T642 1144Q642 1218 601 1272T498 1352T366 1378Q284 1378 219 1333T154 1254ZM199 121Q199 105 230 80T266 49Q283 27 309 5T349 -18Q361 -18 373 -7T401 25T424 53Q431 60 450
73T482 98T494 126Q494 135 479 150T444 181T423 198T407 219T377 254T353 270Q340 270 327 260T297 230T272 204Q199 140 199 121Z" />
<glyph unicode=" " glyph-name="space" horiz-adv-x="437" />
<glyph unicode="!" glyph-name="exclam" horiz-adv-x="566" d="M140 130Q140 135 142 140T151 153T164 165T181 179T199 194Q207 201 224 223T257 258T290 272Q295 272 299 271T309 265T318 258T328 247T338 236Q360 213 383 194T418 166T438 148T446 126Q446
110 432 96T397 68T368 46Q360 38 345 18T317 -14T292 -26Q279 -26 251 -3T207 42Q201 50 183 66T152 98T140 130ZM200 1334Q200 1370 227 1391T302 1412Q350 1412 372 1398T395 1345Q395 1338 394 1330T390 1304T385 1266Q376 1193 360 933T313 430Q310 408 285
408Q262 408 260 427Q242 638 233 762T223 916T222 976T219 1038Q216 1086 211 1150T203 1253T200 1334Z" />
<glyph unicode="&quot;" glyph-name="quotedbl" horiz-adv-x="940" d="M115 1329Q115 1332 116 1336T121 1344T127 1353T136 1363T146 1373T158 1385T170 1397T191 1422T221 1452T251 1461Q257 1461 271 1454T306 1428T345 1385T377 1319T390 1231Q390 1161 371
1099T323 998T263 929T206 887T167 874Q156 874 149 883T141 900Q141 912 159 928T198 960T237 1016T255 1107Q255 1152 241 1185T206 1235T165 1265T130 1293T115 1329ZM515 1329Q515 1332 516 1336T521 1344T527 1353T536 1363T546 1373T558 1385T570 1397T591
1422T621 1452T651 1461Q657 1461 671 1454T706 1428T745 1385T777 1319T790 1231Q790 1161 771 1099T723 998T663 929T606 887T567 874Q556 874 549 883T541 900Q541 912 559 928T598 960T637 1016T655 1107Q655 1152 641 1185T606 1235T565 1265T530 1293T515
1329Z" />
<glyph unicode="#" glyph-name="numbersign" horiz-adv-x="1092" d="M120 284V290Q120 307 121 315T129 328T150 334H318Q324 334 324 338Q362 607 362 614Q362 624 348 624H154Q136 624 128 632T120 666Q120 689 127 699T154 710H362Q378 710 380 726Q409 930
426 1068Q431 1107 434 1112Q444 1127 480 1127Q520 1127 520 1102Q520 1095 493 911T466 720Q466 710 480 710H680Q696 710 698 724Q752 1106 754 1110Q755 1112 756 1114Q765 1127 802 1127Q836 1127 836 1106Q836 1096 810 913T784 720T794 710H936Q957 710
964 699T972 660Q972 638 965 631T942 624H776Q770 624 766 612Q730 348 730 346Q730 334 744 334H938Q956 334 964 326T972 292Q972 268 965 258T938 248H738Q725 248 721 243T714 227Q704 152 690 46Q671 -99 661 -119Q644 -136 620 -136Q582 -136 582 -109Q582
-102 605 64T628 236Q628 248 614 248H480Q440 248 423 247T402 242T396 232Q349 -114 346 -119Q336 -136 298 -136Q262 -136 262 -109Q262 -103 286 63T310 234Q310 248 292 248H150Q131 248 126 257T120 284ZM412 344Q412 334 428 334H622Q642 334 644 349Q680
608 680 614Q680 618 680 619T677 622T668 624H466Q451 624 448 611Q412 347 412 344Z" />
<glyph unicode="$" glyph-name="dollar" horiz-adv-x="1091" d="M132 197Q132 208 135 236T149 302T179 339Q199 339 211 326T243 268T275 201Q307 143 374 99T499 55Q521 55 521 86Q521 217 523 381T526 663Q526 691 452 714Q410 728 376 743T303 787T239 849T196
936T179 1051Q179 1196 279 1299T517 1419Q527 1420 531 1423T539 1436T543 1466Q543 1478 542 1494T541 1522Q541 1548 550 1558T585 1569Q614 1569 622 1561T630 1532Q630 1508 630 1487T629 1454T628 1440Q628 1422 638 1421Q704 1413 758 1393T844 1351T897
1305T927 1266T935 1244Q935 1214 914 1164T875 1113Q856 1113 847 1135Q813 1211 755 1273T640 1335Q621 1335 621 1296Q621 1123 616 1030T611 895Q611 862 615 852T636 837Q822 785 910 689T999 427Q999 344 976 275T916 159T830 76T735 19T641 -14Q637 -15
630 -17T620 -19T613 -21T607 -24T604 -27T601 -31T599 -36T598 -43T598 -53V-92Q598 -115 598 -157T599 -222Q599 -277 590 -292T553 -308Q535 -308 525 -302T513 -287T510 -265Q510 -229 513 -157T516 -63Q516 -25 504 -25Q408 -25 303 21T153 123Q132 148 132
197ZM299 1103Q299 932 514 877Q515 877 516 877T519 876Q536 876 536 911Q536 1001 537 1114T538 1312Q538 1337 517 1337Q503 1337 479 1329T423 1303T364 1259T318 1192T299 1103ZM600 81Q600 56 615 56Q621 56 634 58T672 68T723 89T777 127T826 184T862 267T876
378Q876 441 850 492T789 573T714 621T651 648T622 655Q608 655 608 627Q608 518 604 354T600 81Z" />
<glyph unicode="%" glyph-name="percent" horiz-adv-x="1578" d="M120 705Q120 781 150 864T231 1018T362 1135T529 1182Q571 1182 606 1168T667 1132T716 1090T770 1055T836 1040Q870 1040 908 1051T984 1083T1055 1126T1125 1178T1183 1228T1234 1274T1268 1306Q1286
1323 1304 1323Q1323 1323 1323 1305Q1323 1285 1306 1261Q701 357 409 -104Q373 -160 366 -170T352 -183Q338 -187 331 -187Q306 -187 286 -171T265 -137Q265 -132 265 -128T268 -118T272 -108T278 -96T286 -83T297 -66T310 -47T327 -22T347 6L685 492Q793 647
903 798T1055 1008T1098 1074T1090 1081Q1087 1081 1049 1059T953 1014T839 992Q817 992 794 997T757 1007T740 1012T738 1009Q738 1008 739 996T741 971Q741 856 720 782T636 615Q615 583 593 559T535 507T452 465T346 450Q316 450 280 465T206 509T145 589T120
705ZM268 746Q268 633 300 570T391 506Q458 506 509 574T585 739T609 934Q609 1015 582 1068T511 1122Q433 1122 376 1064T294 922T268 746ZM790 131Q790 196 807 262T860 388T943 496T1057 572T1197 600Q1308 600 1363 530T1418 348Q1418 265 1389 176T1310 12T1189
-111T1039 -159Q919 -159 855 -76T790 131ZM936 150Q936 37 969 -29T1059 -95Q1121 -95 1174 -26T1254 142T1282 338Q1282 419 1253 477T1179 536Q1101 536 1044 475T962 328T936 150Z" />
<glyph unicode="&amp;" glyph-name="ampersand" horiz-adv-x="1939" d="M120 496Q120 565 143 640T203 760Q234 798 271 825T339 865T396 886T438 898T453 906Q453 913 438 933T404 980T370 1057T354 1170Q354 1240 390 1294T484 1379T608 1425T740 1441Q793 1441
836 1430T906 1406T946 1394Q954 1394 968 1397T992 1400Q1025 1400 1025 1353Q1025 1351 1026 1326T1030 1268T1032 1215Q1032 1154 1029 1142T1010 1130Q999 1130 978 1154T929 1213T867 1282T786 1341T688 1366Q637 1366 598 1350T539 1309T508 1259T498 1209Q498
1178 518 1136T567 1054T646 959T735 865T834 765Q988 613 1131 490T1293 366Q1306 366 1317 384T1337 442T1346 538Q1346 583 1339 617T1323 671T1296 708T1267 730T1234 747Q1230 749 1228 750Q1216 756 1200 758T1174 761T1157 767T1150 786Q1150 801 1159 804T1202
808Q1244 808 1297 807T1508 805Q1546 805 1546 779Q1546 765 1535 758T1509 746T1481 722T1464 664Q1459 600 1446 502Q1441 462 1423 417T1388 342T1372 306Q1372 287 1494 210T1740 72Q1783 51 1829 51Q1843 51 1868 54T1903 58Q1929 58 1929 38Q1929 4 1871
-17T1731 -39Q1652 -39 1578 -18T1453 34T1362 94T1300 146T1272 168Q1263 168 1241 146T1179 93T1084 30T936 -24T733 -46Q689 -46 644 -42T537 -24T419 14T308 79T211 176T146 313T120 496ZM256 566Q256 510 276 449T344 323T457 208T624 125T844 93Q899 93 954
105T1050 134T1123 170T1171 203T1188 224Q1188 231 1135 272T959 417T708 648Q679 677 652 704T606 750T571 786T544 814T523 834T508 849T497 857T488 862T480 863Q451 863 414 842T341 785T281 690T256 566Z" />
<glyph unicode="&apos;" glyph-name="quotesingle" horiz-adv-x="540" d="M115 1329Q115 1332 116 1336T121 1344T127 1353T136 1363T146 1373T158 1385T170 1397T191 1422T221 1452T251 1461Q257 1461 271 1454T306 1428T345 1385T377 1319T390 1231Q390 1161
371 1099T323 998T263 929T206 887T167 874Q156 874 149 883T141 900Q141 912 159 928T198 960T237 1016T255 1107Q255 1152 241 1185T206 1235T165 1265T130 1293T115 1329Z" />
<glyph unicode="(" glyph-name="parenleft" horiz-adv-x="668" d="M150 570Q150 702 173 829T232 1054T315 1239T407 1387T495 1494T566 1560T605 1582Q648 1582 648 1538Q648 1527 626 1504T567 1443T488 1355T402 1228T322 1060T264 841T241 568Q241 435 263
313T320 100T399 -68T484 -201T562 -296T620 -363T642 -399Q642 -416 628 -427T600 -438Q582 -438 543 -402T454 -304T350 -147T252 55T179 298T150 570Z" />
<glyph unicode=")" glyph-name="parenright" horiz-adv-x="668" d="M20 -394Q20 -383 42 -360T101 -299T180 -211T266 -84T346 84T404 303T427 576Q427 709 405 831T348 1044T269 1212T184 1345T106 1440T48 1507T26 1543Q26 1560 40 1571T68 1582Q86 1582 125
1546T214 1448T318 1291T416 1089T489 846T518 574Q518 442 495 315T436 90T353 -95T261 -243T173 -350T102 -416T63 -438Q20 -438 20 -394Z" />
<glyph unicode="*" glyph-name="asterisk" horiz-adv-x="883" d="M120 784Q120 804 176 833T287 885T343 916Q343 925 288 949T176 1003T120 1051T140 1096T187 1123Q205 1123 285 1068T373 1013Q382 1013 382 1052Q382 1072 379 1129T376 1214Q376 1240 387 1249T431
1258Q479 1258 492 1246T505 1184Q505 1166 502 1118T498 1050Q498 1013 507 1013Q518 1013 600 1068T696 1124Q721 1124 742 1099T763 1053Q763 1035 708 1006T596 951T540 918Q540 909 596 885T707 832T763 785Q763 765 743 739T694 712Q677 712 596 767T509
822Q499 822 499 782Q499 762 502 720T505 663Q505 605 494 591T433 577Q405 577 391 587T376 627Q376 644 379 697T382 775Q382 822 373 822Q365 822 282 767T186 712Q160 712 140 738T120 784Z" />
<glyph unicode="+" glyph-name="plus" horiz-adv-x="1080" d="M63 434Q63 450 64 457T74 470T101 476H449Q476 476 484 485T493 515V874Q493 895 502 900T536 906Q554 906 562 905T578 894T586 865V530Q586 504 592 490T621 476H983Q1006 476 1011 467T1016 433Q1016
413 1014 405T1003 391T973 385H621Q605 385 597 380T588 369T586 348V-10Q586 -26 580 -34T566 -44T545 -46Q512 -46 503 -41T493 -9V348Q493 373 484 379T445 385H99Q74 385 69 394T63 434Z" />
<glyph unicode="," glyph-name="comma" horiz-adv-x="512" d="M110 111Q110 124 118 135T147 165T175 190T196 216T225 246T260 256Q264 256 279 247T315 217T355 167T388 94T402 -1Q402 -69 373 -135T303 -244T224 -313T163 -340Q151 -340 143 -333T134 -313Q134
-302 147 -289T178 -260T215 -224T247 -171T260 -98Q260 -67 253 -45T226 0T194 32T146 68Q142 71 137 74T130 80T124 84T119 88T115 91T113 94T112 97T111 101T110 105T110 111Z" />
<glyph unicode="-" glyph-name="hyphen" horiz-adv-x="696" d="M90 297V319Q90 341 91 355T100 382T112 399T135 412T164 422T206 435Q315 467 399 497T512 538T561 549Q606 549 606 480V466Q606 445 603 433T595 413T573 397T539 384T484 367T408 344Q350 325
294 305T212 276T164 260T123 254Q103 254 97 265T90 297Z" />
<glyph unicode="." glyph-name="period" horiz-adv-x="516" d="M110 113Q110 135 175 192Q184 200 199 220T228 253T260 265Q276 265 344 184Q350 177 367 162T395 134T406 112Q406 101 396 90T364 64T334 39Q326 31 311 11T282 -21T256 -33Q237 -33 210 2T175
42Q110 90 110 113Z" />
<glyph unicode="/" glyph-name="slash" horiz-adv-x="851" d="M40 -348Q40 -339 45 -323T62 -276T79 -232Q703 1454 708 1469Q715 1491 727 1498T768 1505Q811 1505 811 1481Q811 1469 782 1391L159 -311Q143 -355 132 -365T95 -375Q40 -375 40 -348Z" />
<glyph unicode="0" glyph-name="zero" horiz-adv-x="1084" d="M80 435Q80 540 119 625T224 764T371 845T541 874Q630 874 711 847T858 767T964 624T1004 421Q1004 335 975 255T892 111T750 9T554 -30Q435 -30 342 10T193 117T109 265T80 435ZM194 424Q194 339
225 271T309 162T424 100T554 79Q693 79 793 178T894 439Q894 541 841 618T706 733T533 771Q467 771 408 750T300 687T223 578T194 424Z" />
<glyph unicode="1" glyph-name="one" horiz-adv-x="696" d="M40 24Q40 44 68 52T132 63T199 83T237 136Q256 244 256 347Q256 390 256 435T257 510Q257 533 258 567T259 615Q259 661 258 690T247 741T230 773T199 791T157 800T95 805Q58 807 58 836Q58 859 100
859Q104 859 159 852T337 845Q418 845 476 850T552 856Q576 856 588 846T600 826Q600 814 593 807T578 797T554 793T532 790Q521 788 505 786T481 783T460 777T442 766T429 746T418 713T412 664T409 596Q409 584 409 551T408 492Q408 470 406 388T404 258V210Q404
151 412 124Q421 95 461 79T544 60T621 46T656 18T643 -4T598 -8Q570 -8 477 -3T336 3Q289 3 206 -2T98 -8Q40 -8 40 24Z" />
<glyph unicode="2" glyph-name="two" horiz-adv-x="958" d="M60 16Q60 29 71 36T117 59T182 92Q338 186 440 283T584 459T625 608Q625 669 589 715T507 782T420 803Q354 803 326 780T298 709Q298 686 314 643T331 588Q331 568 306 568Q255 568 209 591T162 642Q162
661 170 686T203 745T265 804T365 849T509 868Q629 868 707 812T785 648Q785 560 704 455T520 266Q396 166 396 148Q396 137 417 134T490 131Q698 131 781 157Q807 165 830 191T868 238T892 260Q918 260 918 237Q918 230 866 134T808 29Q786 -2 778 -5Q773 -8 765
-8Q756 -8 738 -7T692 -5T588 -3T396 -2Q262 -2 192 -3T115 -5Q60 -5 60 16Z" />
<glyph unicode="3" glyph-name="three" horiz-adv-x="828" d="M80 -279Q80 -213 116 -213Q123 -213 139 -229T175 -265T237 -300T331 -317Q412 -317 479 -268T581 -148T616 -8Q616 91 532 156T313 222Q294 222 272 219T235 214T219 211Q210 211 202 217T193 234Q193
242 195 246T202 253T219 263T247 278T292 305T354 346Q413 388 462 456T512 606Q512 669 457 719T324 770Q286 770 258 760T216 737T189 715T161 704T144 709T140 725Q140 745 175 778T271 840T394 868Q430 868 464 863T534 845T598 811T642 756T659 678Q659 618
624 558T546 459T469 390T433 351Q433 348 454 345T514 333T586 308Q649 277 691 221T734 86Q734 6 696 -83T594 -246T441 -368T256 -417Q82 -417 82 -344Q82 -328 81 -304T80 -279Z" />
<glyph unicode="4" glyph-name="four" horiz-adv-x="1033" d="M20 29Q20 50 36 70T148 195Q393 460 656 756Q661 762 673 777T696 804T718 828T740 847T759 854Q782 854 782 805Q782 802 776 662T763 366T756 165Q756 156 757 151T767 142T792 138Q842 138 872
145T911 161T928 177T946 184Q951 184 956 183T967 175T973 157Q973 145 968 129T952 89T938 55Q936 51 932 39T925 21T917 6T906 -7T891 -11Q874 -11 834 -10T779 -9Q760 -9 755 -16T750 -47Q750 -79 753 -155T756 -264Q756 -268 757 -287T758 -317Q758 -336 753
-347T742 -360T726 -366Q668 -381 635 -381Q596 -381 596 -352Q596 -344 598 -332T604 -301T610 -212T613 -32Q613 0 594 0Q570 0 466 -2T289 -4Q244 -4 176 -4T78 -3Q44 -3 32 2T20 29ZM210 156Q210 141 227 137T288 132H364Q388 132 444 131T527 130Q583 130
600 133T618 150Q625 440 625 557Q625 607 614 607Q604 607 548 547T469 460Q430 411 362 336T252 214T210 156Z" />
<glyph unicode="5" glyph-name="five" horiz-adv-x="700" d="M-97 -260Q-97 -247 -97 -240T-94 -222T-86 -208T-71 -203Q-59 -203 -44 -216T-11 -249T30 -286T90 -318T173 -332Q246 -332 310 -270T412 -110T449 88Q449 184 424 243T318 359Q273 390 225 406T147
426T99 438T80 470Q80 487 86 503T102 542T138 633T193 797Q200 822 212 834T255 846Q260 846 317 844T408 842H417Q453 842 474 842T513 843T539 845T555 848T564 853T571 861T578 870Q585 879 594 891T609 909T620 920T632 925Q660 925 660 904Q660 893 653 878Q635
840 621 807T600 757T589 728T579 712T568 707T547 705Q249 702 226 694Q218 692 215 684Q184 612 184 592Q184 575 215 562T290 539T392 498T493 422Q520 393 551 324T582 172Q582 94 565 24T531 -81T487 -160Q448 -226 398 -275T303 -351T207 -394T121 -415T49
-420Q15 -420 -8 -414T-68 -386Q-81 -378 -89 -330T-97 -260Z" />
<glyph unicode="6" glyph-name="six" horiz-adv-x="1018" d="M90 522Q90 642 128 762T231 982T374 1164T540 1307Q614 1359 703 1390T841 1421Q873 1421 873 1394Q873 1370 851 1367Q761 1355 698 1322T548 1214Q491 1165 443 1103T366 986T317 881T288 802T280
768Q280 760 286 760Q290 760 309 777T355 815T431 853T540 870Q719 870 823 749T928 426Q928 333 901 250T823 101T695 -2T522 -40Q356 -40 211 108Q90 233 90 522ZM255 534Q255 421 275 330T327 184T399 91T478 39T552 24Q593 24 634 44T711 101T771 203T794
346Q794 389 783 442T746 557T683 667T586 750T455 783Q418 783 385 771T296 718Q281 707 276 700T263 652T255 534Z" />
<glyph unicode="7" glyph-name="seven" horiz-adv-x="1027" d="M48 -359Q48 -334 239 -83T620 417T811 686Q811 708 687 708H526Q479 708 449 708T372 704T293 694T230 676T179 645T155 600Q153 593 146 587T130 581T116 586T109 599Q109 629 125 708T143 816Q145
844 233 844Q292 844 423 840T633 836Q751 836 824 841T917 852T946 864T964 869Q975 869 981 862T987 845Q987 825 919 724L373 -82Q325 -152 293 -211T249 -300T229 -351T216 -378T198 -384Q192 -384 157 -383T93 -381Q48 -381 48 -359Z" />
<glyph unicode="8" glyph-name="eight" horiz-adv-x="1024" d="M80 366Q80 447 108 511T175 610T254 667T322 701T350 717T327 736T269 776T201 836T144 926T120 1044Q120 1201 226 1304T491 1407Q669 1407 766 1314T863 1074Q863 1007 843 952T795 865T738 810T690
776T670 760Q670 754 690 741T741 710T807 662T873 596T923 504T944 384Q944 324 930 265T883 150T803 50T683 -19T524 -45Q367 -45 274 7Q182 60 131 155T80 366ZM170 368Q170 215 267 117T512 18Q576 18 628 37T715 86T772 155T806 233T816 310Q816 367 786 425T710
527T615 606T524 661T464 680Q448 680 420 675T347 649T264 598T198 506T170 368ZM240 1094Q240 1048 269 1002T343 921T435 859T523 817T582 803T633 821T701 871T762 959T787 1080Q787 1114 770 1156T721 1242T631 1314T505 1343Q442 1343 383 1316T282 1231T240
1094Z" />
<glyph unicode="9" glyph-name="nine" horiz-adv-x="996" d="M80 388Q80 454 97 520T149 649T234 759T352 835T500 864Q631 864 727 794T869 610T916 356Q916 163 824 -22T549 -333Q478 -382 389 -401T234 -420Q222 -420 215 -419T201 -409T194 -384Q194 -367
207 -362T247 -357Q296 -357 366 -329T516 -234Q593 -168 646 -79T700 51Q700 56 697 56T685 48T658 29T616 6T552 -14T465 -22Q369 -22 294 12T173 104T104 235T80 388ZM224 492Q224 394 263 298T377 135T539 69Q567 69 593 74T652 96T708 141T748 221T765 342Q765
542 668 666T450 790Q360 790 292 712T224 492Z" />
<glyph unicode=":" glyph-name="colon" horiz-adv-x="533" d="M120 113Q120 117 122 121T129 132T138 143T151 155T164 167T179 180T193 192Q201 199 217 219T247 249T279 260Q284 260 290 256T303 244T317 228T334 206T352 184Q358 177 375 162T402 134T413 112Q413
101 403 90T372 64T342 39Q334 31 319 11T291 -21T266 -33Q247 -33 218 2T183 42Q120 88 120 113ZM136 688Q136 712 196 764Q205 772 218 790T245 820T274 831Q288 831 349 756Q354 750 369 737T393 711T402 687Q402 679 396 670T382 654T361 636T339 617Q331 609
318 590T293 560T266 548Q252 548 239 561T214 594T196 620Q188 628 170 644T144 670T136 688Z" />
<glyph unicode=";" glyph-name="semicolon" horiz-adv-x="537" d="M120 700Q120 719 185 776Q194 784 205 803T230 833T263 845Q266 845 271 843T281 835T292 824T305 810T316 795T328 780T338 768Q343 761 359 748T386 722T396 697Q396 689 390 680T376 664T355
646T333 627Q326 620 311 601T283 571T255 560Q241 560 228 573T203 606T185 632Q175 642 157 657T129 681T120 700ZM125 111Q125 124 133 135T162 165T190 190T211 216T240 246T275 256Q279 256 294 247T330 217T370 167T403 94T417 -1Q417 -69 387 -135T316 -246T236
-317T174 -345Q167 -345 158 -335T149 -313Q149 -302 162 -289T193 -260T230 -224T262 -171T275 -98Q275 -46 248 -11T161 68Q157 71 152 74T145 80T139 84T134 88T130 91T128 94T127 97T126 101T125 105T125 111Z" />
<glyph unicode="&lt;" glyph-name="less" horiz-adv-x="1080" d="M83 433Q83 450 88 458T115 474Q444 594 763 711Q951 780 959 780Q997 780 997 729Q997 707 965 697L339 468Q253 435 253 426Q253 423 257 420T272 413T291 406T315 398T339 390L975 160Q997 152
997 133Q997 117 986 101T949 84Q940 84 675 181Q375 291 113 386Q92 393 88 401T83 433Z" />
<glyph unicode="=" glyph-name="equal" horiz-adv-x="1080" d="M63 234Q63 250 64 257T74 270T101 276H983Q1006 276 1011 267T1016 233Q1016 213 1014 205T1003 191T973 185H99Q74 185 69 194T63 234ZM63 634Q63 650 64 657T74 670T101 676H983Q1006 676 1011
667T1016 633Q1016 613 1014 605T1003 591T973 585H99Q74 585 69 594T63 634Z" />
<glyph unicode="&gt;" glyph-name="greater" horiz-adv-x="1080" d="M83 133Q83 152 105 160L741 390Q750 393 765 398T789 406T808 413T822 420T827 426Q827 435 741 468L115 697Q83 707 83 729Q83 780 121 780Q129 780 317 711Q636 594 965 474Q987 466 992
458T997 433Q997 410 993 402T967 386Q705 291 405 181Q140 84 131 84Q106 84 95 100T83 133Z" />
<glyph unicode="?" glyph-name="question" horiz-adv-x="716" d="M154 1254Q154 1288 219 1333T366 1378Q436 1378 497 1353T600 1273T642 1144Q642 1089 613 1024T541 897T456 774T384 644T354 515Q354 494 359 461T365 420Q365 399 349 399Q319 399 301 457T283
562Q283 623 330 736T424 959T471 1122Q471 1164 450 1198T397 1250T336 1277T284 1287Q257 1287 233 1274T194 1247T172 1234Q163 1234 159 1241T154 1254ZM199 121Q199 140 272 204Q279 210 296 230T327 260T353 270Q362 270 377 255T406 220T423 198T444 181T478
151T494 126Q494 111 482 99T451 73T424 53Q416 45 401 25T374 -6T349 -18Q336 -18 310 4T266 49Q261 55 230 80T199 121Z" />
<glyph unicode="@" glyph-name="at" horiz-adv-x="1681" d="M90 586Q90 729 125 850T217 1056T351 1208T507 1315T672 1381T824 1417T949 1427Q1091 1427 1212 1378T1416 1244T1544 1045T1591 803Q1591 692 1553 592T1450 420T1301 306T1125 264Q1072 264 1036
281T987 322T967 370T959 411T952 428T930 408T885 358T822 299T736 249T635 228Q538 228 491 282T444 427Q444 514 483 614T586 800T739 942T918 999Q956 999 1008 990T1064 981Q1077 981 1090 1001T1118 1042T1151 1063Q1168 1063 1168 1023Q1168 1016 1143 917T1092
694T1066 503V478Q1066 427 1087 392T1151 356Q1307 356 1407 473T1508 813Q1508 941 1464 1044T1343 1213T1166 1314T951 1350Q749 1350 582 1260T314 999T213 609Q213 417 294 266T524 30T866 -56Q948 -56 1021 -43T1143 -10T1228 30T1285 63T1312 77Q1335 77
1335 53Q1335 41 1313 20T1246 -28T1142 -77T1001 -115T830 -131Q670 -131 535 -83T301 55T146 281T90 586ZM581 465Q581 405 617 374T709 343Q767 343 821 378T895 441Q912 465 920 488T946 576Q1028 884 1028 892Q1028 905 983 919T901 933Q867 933 826 914T741
855T662 761T604 629T581 465Z" />
<glyph unicode="A" glyph-name="A" horiz-adv-x="1663" d="M40 17Q40 44 72 56Q109 70 131 91T188 169T283 355T436 684Q634 1114 785 1435Q799 1465 810 1473T845 1482Q865 1482 872 1472T897 1409Q940 1283 993 1153Q1059 992 1219 618T1395 214Q1423 157 1457
123T1520 80T1572 66T1609 55T1623 27Q1623 -5 1567 -5Q1545 -5 1479 1T1383 8Q1345 8 1282 5T1191 1Q1127 1 1111 5T1094 28Q1094 43 1110 51T1145 64T1181 83T1197 124Q1197 169 1146 309T1058 514Q1051 526 1047 531T1025 543T975 549Q964 549 885 547T727 545H619Q554
545 525 540T485 525T461 486Q449 460 421 401T382 320T357 261T336 203T330 165Q330 126 345 103T383 73T428 63T465 52T481 27Q481 12 475 5T447 -3Q436 -3 377 -2T277 -1Q233 -1 177 -5T101 -9Q40 -9 40 17ZM555 692Q555 666 573 660T660 653H722L917 655Q997
655 997 689Q997 715 897 941T771 1168Q753 1168 654 942T555 692Z" />
<glyph unicode="B" glyph-name="B" horiz-adv-x="1290" d="M40 1422Q40 1433 45 1443T60 1453Q65 1453 85 1452T141 1450Q182 1450 305 1451T441 1453Q487 1453 559 1455T666 1458Q755 1458 833 1436T971 1373T1066 1265T1101 1116Q1101 1056 1080 1004T1029 918T969
862T918 825T897 810Q897 805 921 797T983 777T1063 739T1144 675T1205 573T1230 425Q1230 338 1179 238T1058 90Q967 26 890 5T702 -17Q620 -17 486 -5T336 7Q314 7 256 3T160 -2Q157 -2 148 -2T132 -3Q88 -3 88 28Q88 58 110 58Q123 58 137 58T158 59Q170 59
183 67T211 95T236 155T249 250Q257 427 257 889L256 1238Q256 1248 254 1262T242 1301T214 1346T160 1381T76 1397Q40 1397 40 1422ZM411 188Q411 147 431 120T486 82T548 68T612 65H660Q776 65 836 75Q932 91 994 175T1056 376Q1056 448 1037 507T989 603T919
669T842 711T764 734T699 744T655 746Q590 746 548 746T495 748T476 749T464 750Q439 750 431 735Q415 705 413 502Q413 465 413 417V401Q413 326 413 278T412 212T411 188ZM423 1117Q423 1015 424 957T429 869T437 831T450 822Q497 816 554 816H687Q817 816 881
883T945 1056Q945 1094 931 1137T884 1225T805 1305T687 1364T531 1387Q488 1387 467 1373T435 1313T423 1175V1117Z" />
<glyph unicode="C" glyph-name="C" horiz-adv-x="1653" d="M90 663Q90 829 140 973T286 1226T531 1399T866 1463Q945 1463 1027 1448T1170 1410T1282 1366T1362 1328T1397 1312Q1404 1312 1417 1322T1439 1333Q1450 1333 1459 1325T1470 1301Q1472 1242 1479 1176T1493
1065T1499 1013Q1499 977 1475 977Q1455 977 1440 1006Q1347 1182 1203 1280T866 1378Q698 1378 566 1305T358 1096T282 786Q282 671 304 568T378 369T507 204T701 94T962 53Q1035 53 1103 73T1223 125T1321 199T1400 280T1459 360Q1468 374 1489 374Q1508 374
1508 347Q1508 330 1503 300T1493 244T1480 186T1470 145Q1465 122 1438 109Q1353 68 1307 48T1191 4T1054 -30T910 -40Q781 -40 670 -18T477 42T328 135T218 251T145 383T103 522T90 663Z" />
<glyph unicode="D" glyph-name="D" horiz-adv-x="1623" d="M40 1433Q40 1451 58 1455T146 1459H323Q374 1459 511 1463T722 1467Q835 1467 948 1441T1166 1359T1353 1226T1483 1038T1532 799Q1532 682 1517 590T1480 435T1416 314T1336 218T1235 129Q1175 79 1059
36T818 -7Q806 -7 609 -1T326 5Q254 5 192 0T120 -6Q91 -6 82 0T72 20Q72 33 78 40T91 51T115 58T143 68Q176 82 203 122T231 201Q231 315 232 494T234 756Q234 829 233 985T232 1275Q232 1311 198 1346T122 1385Q68 1389 55 1398Q40 1408 40 1433ZM404 289Q404
258 404 238T408 199T415 170T427 150T444 136T469 125T500 115T541 105T590 91Q659 70 740 70H780Q920 70 1018 109T1206 235Q1285 312 1321 441T1358 706Q1358 839 1316 951T1203 1141T1040 1273T851 1353T656 1378Q610 1378 589 1378T537 1375T495 1371T464
1361T441 1346T427 1321T416 1289T412 1245T409 1190T409 1119Q409 1074 408 906T406 724Q406 601 405 459T404 289Z" />
<glyph unicode="E" glyph-name="E" horiz-adv-x="1237" d="M40 1432Q40 1460 99 1460Q107 1460 125 1459T154 1457Q160 1457 346 1451T653 1445Q697 1445 866 1449T1063 1454Q1101 1454 1101 1407Q1101 1395 1089 1326T1077 1198Q1077 1180 1067 1167T1045 1153Q1032
1153 1023 1164T1014 1197Q1014 1252 979 1296T892 1344Q720 1357 610 1357H558Q522 1357 506 1357T469 1353T443 1348T428 1334T418 1314T415 1282T411 1240Q411 1235 411 1232Q407 1155 404 890Q404 789 442 787Q461 786 493 786Q508 786 535 786T580 787H643Q766
787 806 795T880 825Q916 850 928 901Q931 914 933 919T941 930T957 936Q974 936 979 929T984 903Q984 889 975 809T966 688Q966 650 969 615T973 564Q973 511 959 511Q930 511 914 562Q912 568 908 583T900 607T891 628T879 648T863 662Q820 691 665 691Q604 691
566 691T517 691T499 692T486 692Q402 692 402 653Q402 594 400 505T398 358Q398 344 398 317T397 276Q397 218 409 170T446 114Q497 98 534 98Q651 98 746 106T901 128T1007 159T1076 195T1116 231T1139 262T1154 284T1172 293Q1197 293 1197 259Q1197 172 1109
81T954 -11Q806 -11 622 0T392 11Q334 11 247 1T112 -9Q98 -9 91 -9T77 -3T70 13Q70 31 70 37T76 47T89 52T116 58T158 76Q192 92 207 124T230 235T238 473V727Q238 782 241 899T244 1082Q244 1157 239 1267Q236 1327 188 1359T73 1394Q58 1394 50 1400T41 1413T40
1432Z" />
<glyph unicode="F" glyph-name="F" horiz-adv-x="1134" d="M40 1427Q40 1433 43 1440T59 1455T94 1463H149Q198 1463 308 1456T593 1449Q738 1449 851 1455T1058 1461Q1094 1461 1094 1412Q1094 1395 1090 1367T1077 1292T1064 1203T1034 1161Q1005 1161 1005
1202Q1005 1261 983 1300T911 1343Q590 1368 543 1368Q510 1368 488 1366T450 1357T427 1344T415 1321T409 1294T407 1256Q406 1244 406 1237Q402 1160 399 895Q399 794 437 792Q456 791 488 791Q503 791 530 791T575 792H638Q761 792 801 800T875 830Q894 843
903 858Q912 871 916 888T922 915T931 933T952 941Q969 941 974 934T979 908Q979 894 970 836T960 737Q960 699 967 642T974 569Q974 545 970 534T961 520T946 518Q925 518 916 531T903 570Q902 574 900 588T897 608T893 625T885 643T874 656T858 667Q829 680 756
688T660 696Q599 696 561 696T512 696T494 697T481 697Q397 697 397 658Q397 599 395 510T393 363Q393 349 393 322T392 281Q392 253 397 224T418 156T468 93T556 68Q588 68 602 57T616 31Q616 18 602 5T553 -9Q520 -9 450 -1T355 8Q298 8 227 2T107 -4Q93 -4 86
-4T72 2T65 18Q65 44 75 50T153 81Q207 100 219 186T232 558Q232 668 233 732Q233 777 236 896T239 1087V1207Q239 1236 236 1258T224 1305T195 1351T143 1387Q126 1395 98 1396T55 1403T40 1427Z" />
<glyph unicode="G" glyph-name="G" horiz-adv-x="1675" d="M90 674Q90 839 142 983T292 1236T545 1409T890 1473Q987 1473 1073 1458T1215 1422T1311 1379T1374 1342T1400 1327Q1407 1327 1428 1342T1458 1358Q1487 1358 1489 1316Q1491 1257 1498 1192T1512 1084T1518
1033Q1518 997 1494 997T1459 1021Q1387 1177 1219 1284T873 1392Q750 1392 643 1352T455 1237T328 1046T282 786Q282 675 308 568T386 367T510 203T680 91T891 50Q1049 50 1176 121T1318 285Q1325 341 1325 542Q1325 595 1310 628T1273 671T1225 686T1177 692T1140
702T1125 736Q1125 757 1162 757Q1188 757 1275 752T1388 747Q1430 747 1477 747T1554 748L1584 749Q1615 749 1615 731Q1615 718 1590 708T1538 681T1506 637Q1491 542 1491 407Q1491 327 1493 276T1498 205T1501 179Q1501 168 1486 163T1436 149T1372 123Q1371
123 1351 110T1309 85T1252 55T1179 23T1097 -5T1005 -27T909 -35Q730 -35 588 5T354 113T201 273T115 465T90 674Z" />
<glyph unicode="H" glyph-name="H" horiz-adv-x="1619" d="M40 1432Q40 1454 98 1454Q120 1454 192 1450T329 1445Q368 1445 404 1447T510 1449Q556 1449 556 1421Q556 1404 543 1395T484 1386Q455 1386 436 1337T411 1234T405 1131Q405 1116 405 1091T406 1055Q406
1004 404 942T402 866Q402 814 414 801T472 787Q476 787 551 788T807 789Q824 789 863 789T990 787T1194 785Q1206 785 1210 801Q1217 830 1217 1069Q1217 1086 1217 1122T1216 1179Q1216 1246 1204 1290T1172 1352T1131 1379T1089 1390T1058 1399T1045 1425Q1045
1445 1124 1445Q1145 1445 1212 1443T1323 1441Q1345 1441 1394 1443T1483 1445Q1529 1445 1529 1419T1501 1393Q1444 1393 1415 1358T1385 1266Q1379 872 1379 769Q1379 722 1377 619T1375 460V384Q1375 322 1378 271T1382 197Q1382 68 1555 46Q1579 42 1579 23Q1579
8 1558 4T1479 -1Q1457 -1 1404 5T1320 11Q1284 11 1231 5T1128 -1Q1084 -1 1069 3T1054 27Q1054 40 1074 49T1120 65T1168 89T1196 133Q1211 212 1211 283Q1211 304 1211 341T1212 393Q1212 429 1214 512T1217 645Q1217 675 1193 687T1088 700Q1056 700 946 697T835
694Q746 694 633 697T459 701Q429 701 418 688T407 624Q407 572 404 491T400 372V285Q400 197 416 154T496 70Q514 59 584 59Q599 59 610 52T622 36Q622 0 557 0Q497 0 457 4T387 8Q329 8 264 3T166 -2Q127 -2 105 2T76 13T70 29Q70 44 82 50T114 60T155 71T194
100T222 160Q229 191 238 367T248 706V823Q248 850 249 925T250 1044Q250 1200 238 1288Q231 1339 183 1368T83 1397Q62 1397 51 1410T40 1432Z" />
<glyph unicode="I" glyph-name="I" horiz-adv-x="672" d="M40 1424Q40 1455 98 1455Q120 1455 192 1450T329 1445Q368 1445 404 1447T510 1449Q566 1449 566 1421Q566 1409 546 1398T472 1365Q405 1338 405 1131Q405 853 403 641T400 372Q400 277 411 222T451
125Q495 62 548 62Q552 62 569 61T589 59Q604 59 618 52T632 36Q632 13 621 7T582 0Q522 0 469 4T387 8Q329 8 261 3T161 -2Q122 -2 101 2T75 13T70 29Q70 44 82 50T114 60T155 71T194 100T222 160Q225 174 234 391T243 706V823Q243 850 244 925T245 1044V1139Q245
1236 238 1288Q231 1337 184 1363T83 1392Q40 1394 40 1424Z" />
<glyph unicode="J" glyph-name="J" horiz-adv-x="594" d="M-93 -316Q-93 -286 -70 -244T-29 -202Q-18 -202 -7 -213T14 -237T44 -262T90 -273Q202 -273 232 -113Q258 27 258 136Q258 158 258 219T257 333T256 387L253 526Q250 666 250 1086Q250 1220 241 1289Q237
1322 210 1345T151 1377T86 1388Q59 1389 50 1401T40 1426Q40 1461 101 1461Q123 1461 195 1454T332 1447Q372 1447 400 1449T498 1451Q554 1451 554 1423Q554 1411 534 1400T460 1367Q417 1350 417 1226V1133Q417 793 417 577T415 300T414 203T413 142Q413 26
378 -75T285 -245T149 -353T-11 -393Q-26 -393 -37 -391T-62 -383T-85 -359T-93 -316Z" />
<glyph unicode="K" glyph-name="K" horiz-adv-x="1483" d="M40 1424Q40 1449 98 1449Q120 1449 192 1447T329 1445Q367 1445 397 1447T506 1449Q541 1449 541 1424Q541 1415 531 1409T500 1394T468 1380Q405 1344 405 1131Q405 1022 403 919T400 812Q400 785 403
777T417 769Q426 769 522 845T730 1017T934 1210T1026 1341Q1026 1354 1020 1363T999 1379T975 1387T947 1393T923 1398Q902 1402 902 1427Q902 1449 934 1449Q939 1449 956 1449T985 1448Q990 1448 1033 1446T1107 1444L1361 1450Q1402 1450 1402 1423Q1402 1414
1397 1408T1381 1397T1358 1389T1324 1379T1284 1364Q1270 1358 1257 1351T1220 1327T1183 1302Q1164 1290 1083 1221Q874 1044 595 811Q574 794 574 783Q574 770 595 749Q1057 292 1057 292Q1220 135 1288 97Q1329 74 1375 66Q1426 58 1436 49Q1443 41 1443 28Q1443
9 1428 6T1325 3H1127Q1112 3 1105 4T1091 10T1072 29T1045 60T998 112T927 187Q523 598 502 618Q449 663 433 664Q404 664 404 608Q404 607 404 601T404 584T404 555T405 511T405 451Q405 184 437 127Q474 61 573 61Q576 61 581 60T589 59Q604 59 618 52T632 36Q632
13 621 7T582 0Q522 0 469 4T387 8Q329 8 261 3T161 -2T113 1T92 9T88 20V29Q88 42 107 47T155 61T200 86Q229 115 236 219T243 548V823Q243 850 242 925T240 1044V1139Q240 1236 233 1288Q227 1336 181 1362T83 1392Q40 1394 40 1424Z" />
<glyph unicode="L" glyph-name="L" horiz-adv-x="1235" d="M40 1423Q40 1443 59 1451T97 1460Q105 1460 123 1459T152 1457Q173 1457 229 1452T329 1447Q394 1447 464 1452T544 1457Q564 1457 572 1453T580 1435Q580 1415 569 1405T540 1394T501 1384T462 1362T429
1311T412 1215Q408 1134 402 772T396 358Q396 344 396 317T395 276Q395 218 407 170T444 114Q495 98 532 98Q649 98 744 106T899 128T1005 159T1074 195T1114 231T1137 262T1152 284T1170 293Q1195 293 1195 259Q1195 172 1107 81T952 -11Q804 -11 620 0T390 11Q332
11 257 2T134 -7Q105 -7 89 0T73 19Q73 34 84 43T106 52Q138 52 166 72Q192 91 205 121T227 236T236 473V727Q236 782 239 899T242 1082Q242 1157 237 1267Q234 1327 186 1359T71 1394Q51 1395 46 1402T40 1423Z" />
<glyph unicode="M" glyph-name="M" horiz-adv-x="1882" d="M40 1424Q40 1455 77 1455Q89 1455 134 1450T187 1445Q217 1445 269 1448T339 1451Q376 1451 389 1421Q414 1367 477 1230T579 1009T676 800T772 595T849 437T910 319T938 281T951 287T965 308T978 333T993
364T1006 393L1269 939Q1313 1031 1348 1105T1404 1224T1439 1301T1460 1350T1470 1375T1476 1389T1480 1399Q1482 1403 1488 1418T1498 1438T1518 1449T1559 1455Q1598 1455 1631 1453T1734 1451Q1745 1451 1750 1450T1762 1443T1769 1424Q1769 1404 1756 1394T1702
1378Q1651 1371 1631 1327T1610 1155Q1610 877 1622 654T1635 373Q1635 300 1638 251T1649 165T1669 108T1701 75T1745 59T1804 55Q1818 55 1830 46T1842 27Q1842 4 1833 -1T1796 -7Q1736 -7 1677 -2T1588 3Q1530 3 1468 -3T1374 -9Q1338 -9 1338 21Q1338 40 1354
47T1392 57T1437 83T1471 154Q1478 183 1478 284Q1478 349 1475 441T1468 621T1460 784T1452 910T1449 960Q1449 1048 1432 1048Q1425 1048 1417 1040T1397 1011T1377 973T1351 920L1067 345Q1017 244 962 127Q925 50 917 37T895 24Q884 24 875 32T856 59T839 99T817
154T787 218Q433 938 412 975Q396 1001 389 1001Q373 1001 372 920Q370 760 363 605T355 379V287Q355 253 356 233T361 183T376 135T403 98T447 69T513 54Q523 53 532 46T541 30Q541 7 534 1T509 -6Q469 -6 387 -2T296 3Q292 3 238 -1T130 -5Q107 -5 96 1T85 28Q85
43 96 47T127 55T166 66T208 104T241 185Q252 229 266 540T281 1002Q281 1086 276 1140T259 1240T222 1312T161 1359T68 1392Q40 1398 40 1424Z" />
<glyph unicode="N" glyph-name="N" horiz-adv-x="1635" d="M40 1416Q40 1428 55 1439T93 1450Q105 1450 133 1449T169 1447Q199 1447 226 1449T271 1452Q289 1452 312 1441T341 1418Q344 1412 363 1391T414 1334T469 1266Q607 1086 839 817T1215 392Q1229 376
1245 358T1269 331T1285 313T1298 301T1307 298Q1328 298 1328 426V665Q1328 803 1327 897T1324 1033T1322 1085V1100Q1322 1169 1313 1219T1291 1295T1256 1339T1217 1362T1171 1373T1127 1384Q1085 1397 1085 1420Q1085 1451 1125 1451Q1138 1451 1223 1450T1319
1448Q1368 1448 1429 1450T1503 1453Q1538 1453 1551 1446T1565 1418Q1565 1410 1554 1403T1531 1391T1506 1382T1492 1377Q1479 1369 1466 1351T1439 1278T1425 1144V1066Q1425 911 1414 528T1402 54Q1402 46 1402 32T1403 12Q1403 -34 1375 -34Q1353 -34 1341
-20Q517 933 438 1017Q394 1064 383 1064Q363 1064 363 925Q363 730 355 506T346 262Q346 198 361 156T398 96T446 69T495 58T532 50T547 27Q547 4 540 -2T515 -9Q500 -9 450 -7T294 -4Q276 -4 219 -6T121 -8Q98 -8 87 -2T76 25Q76 39 87 45T115 55T152 68T192
105T227 180Q240 226 258 559T276 1021Q276 1197 227 1284T68 1384Q40 1387 40 1416Z" />
<glyph unicode="O" glyph-name="O" horiz-adv-x="1746" d="M90 695Q90 862 141 1003T289 1251T539 1418T882 1478Q1010 1478 1119 1452T1306 1381T1446 1278T1546 1156T1610 1028T1646 906T1656 802Q1656 633 1616 495T1503 259T1330 96T1109 -1T853 -32Q669 -32
521 29T281 194T139 425T90 695ZM270 799Q270 741 281 676T318 538T380 398T470 268T588 160T738 86T920 58Q990 58 1066 79T1218 146T1354 256T1451 413T1489 615Q1489 766 1454 894T1355 1113T1207 1269T1022 1365T813 1396Q707 1396 612 1361T440 1255T316 1068T270
799Z" />
<glyph unicode="P" glyph-name="P" horiz-adv-x="1156" d="M40 1422Q40 1436 52 1445T88 1454Q93 1454 110 1455T163 1457Q172 1457 219 1454T286 1451Q332 1451 461 1454T625 1457Q715 1457 797 1434T947 1365T1055 1246T1096 1079Q1096 1006 1077 944T1026 840T954
763T870 709T785 676T708 658T649 653Q584 653 516 669T448 701Q448 732 475 732Q486 732 518 724T579 715Q616 715 657 722T747 750T833 801T896 884T922 1002Q922 1064 896 1128T820 1248T688 1339T505 1375Q462 1375 441 1361T409 1302T397 1165Q397 739 395
679T393 320Q393 138 477 84Q500 69 533 65T589 62T630 54T647 20Q647 -14 601 -14Q554 -14 436 -10T308 -5Q287 -5 227 -9T116 -13Q53 -13 53 11Q53 22 56 30T62 44T75 53T90 59T110 64T132 69Q136 70 144 71T156 74T165 81T176 94T187 119T202 159Q215 198 224
467T233 882Q233 1010 233 1117T232 1231Q232 1253 225 1278T203 1331T156 1377T82 1395T40 1422Z" />
<glyph unicode="Q" glyph-name="Q" horiz-adv-x="1719" d="M93 695Q93 828 120 943T207 1157T358 1327T583 1438T885 1478Q1008 1478 1113 1449T1293 1373T1428 1262T1524 1131T1585 993T1619 862T1629 751Q1629 644 1600 532T1516 319T1377 143T1190 40Q1165
33 1128 23Q1072 8 1058 3T1044 -7Q1044 -28 1084 -46Q1094 -51 1149 -75T1229 -110T1309 -145T1398 -181T1481 -211T1567 -237T1642 -253T1712 -260Q1758 -260 1790 -250T1836 -227T1867 -204T1902 -193Q1909 -193 1916 -202T1924 -218Q1924 -265 1872 -307T1737
-373T1567 -397Q1484 -397 1357 -354T1103 -250T856 -128T637 -23T496 20Q447 20 410 1T352 -52T321 -121T311 -196Q311 -204 311 -216T312 -233Q312 -286 274 -286Q255 -286 241 -260T226 -201Q226 -110 267 -30T357 84Q362 87 370 93T382 101T392 108T399 115T401
120Q401 128 356 160Q227 251 160 390T93 695ZM279 799Q279 672 318 544T431 312Q512 200 659 129T918 58Q1064 58 1212 135Q1249 154 1290 195T1373 297T1441 441T1468 615Q1468 831 1381 1011T1144 1293T816 1396Q710 1396 616 1361T446 1255T324 1068T279 799Z"
/>
<glyph unicode="R" glyph-name="R" horiz-adv-x="1471" d="M40 1426Q40 1446 53 1452T100 1459H440Q486 1459 548 1461T645 1464Q764 1464 864 1425T1027 1306T1091 1120Q1091 1035 1065 967T1001 860T926 795T862 753T835 730Q835 706 1007 466T1244 156Q1330
60 1431 59Q1442 59 1451 53T1461 35Q1461 14 1454 5T1414 -10T1309 -17Q1298 -17 1276 -15T1210 -1T1133 30Q1107 45 1078 73T1011 151T950 233T882 336T824 427T765 522Q666 683 615 683Q609 683 593 683T571 682Q516 682 482 682T446 683Q425 683 420 671Q412
654 412 536Q412 437 412 375T412 294T413 266T413 248Q413 198 427 161T463 106T512 75T566 59T615 50T651 39T665 18Q665 -15 629 -15Q626 -15 487 -8T335 -1Q276 -1 194 -4T111 -8Q67 -8 67 25Q67 41 79 49T111 59T153 70T194 93T226 142T239 231Q239 285 240
518T242 876Q242 1004 241 1109T239 1222Q239 1284 219 1321T169 1371T111 1389T61 1402T40 1426ZM412 1098Q412 887 414 837T429 778Q457 760 516 760H536Q545 760 565 760T596 759Q686 759 751 782T852 847T904 937T920 1044Q920 1088 907 1133T864 1223T790
1302T676 1358T521 1380Q446 1380 429 1340T412 1155V1098Z" />
<glyph unicode="S" glyph-name="S" horiz-adv-x="1221" d="M120 383Q120 426 150 426Q173 426 182 405Q196 371 207 347T241 284T287 219T346 160T421 110T515 77T630 64Q784 64 877 145T970 357Q970 414 950 458T893 533T810 587T705 632T590 672T467 718T349
777Q161 889 161 1077Q161 1258 293 1368T636 1479Q694 1479 761 1463T876 1429T932 1412Q938 1412 954 1419T979 1427Q1007 1427 1010 1411Q1052 1176 1052 1132Q1052 1075 1025 1075Q1013 1075 1007 1081T995 1103Q970 1164 949 1199T913 1248T861 1297Q750 1395
591 1395Q465 1395 379 1334T293 1167Q293 1108 314 1063T371 988T457 934T562 893T679 854T800 808T917 746T1020 660Q1101 573 1101 441Q1101 298 1036 190T863 28T624 -27Q483 -27 398 -12T221 51Q193 66 157 209T120 383Z" />
<glyph unicode="T" glyph-name="T" horiz-adv-x="1439" d="M40 1188Q40 1262 61 1398Q62 1403 63 1416T66 1432T69 1445T76 1456T86 1463T101 1469T124 1470Q157 1470 297 1462T703 1454Q1162 1454 1333 1465Q1336 1465 1340 1465T1347 1466Q1362 1466 1372 1458T1384
1443T1386 1431Q1386 1418 1392 1345T1399 1265Q1399 1213 1394 1200T1367 1187Q1351 1187 1344 1212Q1336 1243 1332 1256T1317 1290T1295 1317T1262 1333T1210 1345T1136 1348H870Q820 1348 809 1328T798 1217V1117Q798 842 796 633T793 366Q793 337 792 293T791
233Q791 146 820 117Q846 92 879 79T935 64T974 54T991 27Q991 4 981 -2T942 -8Q917 -8 834 0T714 9Q689 9 614 1T505 -7Q430 -7 430 26Q430 46 447 55T491 67T543 75T590 100T615 156Q634 327 634 929L632 1296Q632 1324 624 1334T586 1349T478 1354Q335 1354
262 1346T176 1331T147 1303Q129 1279 118 1250T104 1201T91 1168T64 1154Q40 1154 40 1188Z" />
<glyph unicode="U" glyph-name="U" horiz-adv-x="1669" d="M40 1427Q40 1436 42 1441T55 1450T88 1455T182 1451T319 1446Q360 1446 394 1448T512 1450Q556 1450 556 1422Q556 1407 546 1401T519 1396T484 1389T449 1365T423 1303T412 1188V1131Q412 1035 411
888T410 688Q410 482 431 384Q478 160 667 91Q758 57 885 57Q1043 57 1121 79Q1301 129 1369 327Q1415 459 1415 663Q1415 870 1415 978T1414 1098Q1414 1168 1411 1210T1391 1300T1340 1372Q1320 1386 1287 1391T1233 1400T1213 1418Q1213 1449 1253 1449Q1266
1449 1333 1448T1411 1446Q1460 1446 1516 1449T1585 1452Q1605 1452 1615 1447T1627 1437T1629 1425Q1629 1412 1610 1400T1565 1372T1530 1338Q1516 1312 1512 1287T1508 1203Q1508 1189 1508 1144T1509 1064Q1509 865 1503 721T1479 466T1438 281T1375 154T1290
67T1177 6Q1127 -15 1037 -27T884 -39Q700 -39 588 -8T400 92Q373 117 352 144T313 198T284 262T264 329T250 410T241 497T236 601T235 715T234 848V883Q234 963 236 1059T238 1177Q238 1236 234 1268T214 1327T168 1367T85 1388Q40 1394 40 1427Z" />
<glyph unicode="V" glyph-name="V" horiz-adv-x="1652" d="M40 1426Q40 1455 99 1455Q110 1455 177 1451T324 1446Q341 1446 387 1448T456 1451Q502 1451 513 1448T524 1428Q524 1418 511 1410T483 1395T454 1372T441 1332Q441 1306 448 1278T479 1192T529 1078T613
892T727 639Q900 244 931 244Q941 244 1049 491T1262 1009T1367 1329Q1367 1361 1344 1378T1293 1399T1242 1410T1218 1434Q1218 1448 1225 1451T1261 1455Q1268 1455 1308 1454T1390 1452Q1426 1452 1472 1454T1572 1456Q1612 1456 1612 1428Q1612 1413 1599 1403T1567
1385T1524 1350T1480 1281L1025 240Q979 135 931 22Q905 -41 899 -51T882 -62Q847 -62 790 80Q728 235 579 555Q501 725 438 868T347 1079T296 1200T261 1275T232 1317Q198 1355 160 1372T97 1388T57 1394T40 1426Z" />
<glyph unicode="W" glyph-name="W" horiz-adv-x="2274" d="M40 1423Q40 1453 96 1453Q107 1453 174 1450T321 1446Q380 1446 437 1449T498 1452Q516 1452 521 1448T526 1428Q526 1418 512 1409T482 1394T452 1371T438 1332Q438 1313 446 1287T478 1202T530 1084T615
895T729 639Q744 606 771 542T816 437T855 350T889 282T908 259Q917 259 972 383T1075 625Q1083 645 1094 667T1111 704T1117 736Q1117 760 994 1035T835 1350Q823 1363 813 1371T793 1384T777 1389T760 1391T744 1392Q687 1398 675 1404T662 1426Q662 1455 721
1455Q732 1455 799 1451T946 1446Q952 1446 1002 1450T1082 1454Q1143 1454 1143 1438Q1143 1428 1130 1419T1099 1401T1069 1375T1055 1334Q1055 1293 1098 1197Q1101 1189 1109 1172Q1115 1158 1118 1151Q1120 1146 1144 1085T1187 984T1214 945Q1230 945 1296
1124T1362 1336Q1362 1365 1343 1381T1301 1401T1259 1412T1240 1434Q1240 1457 1284 1457Q1297 1457 1346 1455T1415 1453H1450Q1492 1453 1559 1458Q1562 1458 1568 1458T1577 1459Q1603 1459 1603 1438Q1603 1423 1588 1416T1548 1401T1511 1379Q1481 1348 1455
1284Q1430 1224 1406 1167T1366 1072T1335 1000T1311 944T1294 904T1283 875T1276 855T1272 840T1271 830T1270 818Q1270 801 1395 523T1543 244Q1567 244 1780 760T1994 1329Q1994 1361 1971 1378T1919 1399T1867 1410T1843 1434Q1843 1448 1849 1451T1883 1455Q1890
1455 1930 1454T2012 1452Q2048 1452 2094 1454T2194 1456Q2234 1456 2234 1428Q2234 1414 2224 1406T2191 1385T2151 1356Q2142 1348 2135 1338T2122 1321T2110 1298T2099 1275T2085 1244T2070 1209Q1900 829 1701 378Q1529 -10 1509 -41Q1500 -56 1489 -56Q1483
-56 1473 -42T1451 -4T1430 42T1410 91T1395 126Q1375 173 1342 251T1284 386T1235 499T1193 586T1171 616Q1152 616 1037 340T908 18Q905 10 901 -3Q889 -39 883 -50T864 -62Q845 -62 818 -3T723 226T581 555Q465 807 330 1142Q301 1213 270 1263T211 1335T157
1370T110 1383T73 1387T49 1396T40 1423Z" />
<glyph unicode="X" glyph-name="X" horiz-adv-x="1538" d="M40 1436Q40 1453 55 1457T127 1462Q166 1462 206 1458T310 1454Q322 1454 419 1456T525 1458Q542 1458 549 1458T563 1453T569 1439Q569 1420 555 1412T524 1404T492 1393T478 1360Q478 1348 485 1330T507
1286T533 1244T564 1198T588 1162Q611 1127 638 1086T681 1021T715 970T743 928T764 900T781 882T793 877Q803 877 811 886T839 922Q857 948 898 1006T972 1110T1038 1207T1091 1293T1110 1342Q1110 1375 1093 1390T1056 1407T1018 1416T1001 1441Q1001 1462 1032
1462Q1079 1462 1122 1458T1198 1454Q1313 1454 1349 1458T1391 1462Q1423 1462 1423 1442Q1423 1426 1411 1417T1380 1404T1331 1387T1270 1354Q1254 1343 1235 1322T1204 1286T1162 1232Q843 811 843 802Q843 798 844 794T849 782T858 767T875 743T899 710T932
663T976 601T1032 521T1102 420Q1164 330 1247 222T1369 81Q1375 75 1408 69T1470 54T1498 27Q1498 17 1495 12T1476 2T1431 -3Q1393 -3 1306 4T1213 12Q1154 12 1108 9T1037 3T1004 0Q990 0 983 5T976 27Q976 44 992 53T1028 64T1064 78T1081 114Q1081 129 1068
155T1024 231T960 328T868 462T761 621Q738 656 728 656Q724 656 719 649T703 623T684 592Q639 522 554 407T425 222T382 112Q382 57 493 57Q518 57 518 22Q518 8 504 4T454 -1Q434 -1 358 3T274 7Q256 7 194 3T110 -2Q78 -2 65 4T52 36Q52 51 64 56T93 63T140
74T196 105Q217 122 239 143T289 198T335 253T387 321T433 384T484 455T529 519Q560 563 602 618T662 699T680 730Q680 738 659 768T561 902T401 1128Q336 1223 261 1302T122 1395Q117 1396 104 1398T81 1402T62 1408T46 1419T40 1436Z" />
<glyph unicode="Y" glyph-name="Y" horiz-adv-x="1458" d="M40 1410Q40 1432 64 1438T167 1444Q180 1444 224 1442T286 1440Q308 1440 369 1441T460 1442Q564 1442 564 1418Q564 1404 551 1395T521 1381T491 1367T477 1345Q477 1327 484 1306T505 1259T531 1215T562
1169T587 1132Q656 1023 731 923T817 822Q830 822 847 844T899 924T954 1011Q962 1022 978 1046T1003 1084T1026 1119T1049 1155T1069 1188T1086 1220T1099 1248T1108 1274T1111 1294Q1111 1335 1087 1355T1035 1376T982 1387T958 1419Q958 1443 1015 1443Q1025
1443 1053 1442T1099 1441Q1147 1441 1213 1440T1317 1439Q1369 1439 1393 1434T1418 1409Q1418 1400 1406 1394T1371 1378T1330 1353Q1267 1304 1190 1198T1029 959T898 768Q866 727 857 678T848 510Q848 484 848 396T849 272V224Q849 172 861 137T894 88T930
68T959 63Q962 63 979 62T1000 61Q1014 61 1022 52T1030 33Q1030 13 1020 7T980 0Q970 0 891 1T776 2Q703 2 645 -2T551 -7Q494 -7 494 16Q494 35 504 42T542 51T582 58Q668 84 668 182Q668 196 668 216T670 265T671 381T672 597Q672 630 667 654T655 700T620 765T566
848T475 982T351 1167Q303 1240 264 1286T192 1352T140 1377T92 1383Q40 1383 40 1410Z" />
<glyph unicode="Z" glyph-name="Z" horiz-adv-x="1153" d="M40 28Q40 39 57 65T116 154T196 284Q253 385 414 649T689 1106T804 1324Q804 1338 784 1341T717 1345Q604 1345 342 1338Q288 1337 247 1317T183 1267T145 1210T118 1162T98 1142Q88 1142 80 1150T72
1175Q72 1215 80 1256T89 1310Q89 1319 99 1406Q102 1431 114 1440T156 1450Q168 1450 225 1449T382 1446T598 1444Q727 1444 805 1445T966 1446Q1013 1446 1034 1440T1055 1416Q1055 1389 680 771T304 131Q304 103 360 97T540 90Q746 90 839 101T1005 154Q1029
168 1047 186T1075 215T1095 225Q1113 225 1113 203Q1113 169 1048 64Q1045 59 1039 48T1029 31T1019 19T1006 8T988 3T962 0Q846 0 758 -1T588 -2Q278 -2 199 -3T82 -5Q40 -5 40 28Z" />
<glyph unicode="[" glyph-name="bracketleft" horiz-adv-x="587" d="M160 -168Q160 -15 166 470T172 1167Q172 1258 171 1335T170 1457T169 1511Q169 1544 190 1553T270 1563H358Q406 1563 436 1563T478 1564T493 1564Q507 1564 517 1552T527 1522Q527 1480 502
1480Q464 1479 313 1479H280Q272 1479 269 1476T265 1462Q265 1453 265 1412T267 1300T268 1144Q268 981 264 582T259 30Q259 -168 261 -270Q261 -325 285 -325Q306 -325 384 -325T470 -324Q498 -324 508 -333T519 -368Q519 -400 497 -409T411 -418H228Q182 -418
171 -398T160 -293V-168Z" />
<glyph unicode="\" glyph-name="backslash" horiz-adv-x="851" d="M40 1481Q40 1505 83 1505Q111 1505 123 1498T143 1469L772 -232Q778 -248 789 -275T805 -318T811 -342Q811 -375 744 -375Q728 -375 718 -364T692 -311L69 1391Q40 1469 40 1481Z" />
<glyph unicode="]" glyph-name="bracketright" horiz-adv-x="587" d="M60 -376Q60 -334 85 -334Q123 -333 274 -333H307Q315 -333 318 -330T322 -316Q322 -307 321 -266T320 -154T319 2Q319 165 323 564T328 1116Q328 1314 326 1416Q326 1471 302 1471Q281 1471
203 1471T117 1470Q89 1470 79 1479T68 1514Q68 1559 102 1560Q239 1564 359 1564Q405 1564 416 1544T427 1439V1314Q427 1161 421 676T415 -21Q415 -112 415 -189T417 -311T418 -365Q418 -398 397 -407T317 -417H229Q181 -417 151 -417T109 -418T94 -418Q80 -418
70 -406T60 -376Z" />
<glyph unicode="^" glyph-name="asciicircum" horiz-adv-x="681" d="M60 677Q60 688 85 729Q111 773 154 846Q244 998 271 1033T332 1068T392 1035T497 867Q546 783 578 729Q601 692 601 674Q601 657 564 657Q558 657 547 657T533 658Q523 658 516 661T501 674T491
688T480 708T471 726Q457 751 443 778T418 824T398 861T381 893T367 917T356 936T347 948T339 956T332 958Q328 958 323 955T312 942T299 921T281 888T258 847T229 792T193 726Q191 723 186 713T179 700T172 688T163 677T154 669T142 662T129 660Q126 660 117 660T101
659Q60 659 60 677Z" />
<glyph unicode="_" glyph-name="underscore" horiz-adv-x="437" d="M0 -77Q0 -61 1 -54T11 -41T38 -35H404Q427 -35 432 -44T437 -78Q437 -98 435 -106T424 -120T394 -126H36Q11 -126 6 -117T0 -77Z" />
<glyph unicode="`" glyph-name="grave" horiz-adv-x="900" d="M225 1302Q225 1329 267 1342T332 1356Q357 1356 374 1317Q420 1207 460 1134T514 1038T529 1006T522 990T504 983Q484 983 424 1047Q225 1258 225 1302Z" />
<glyph unicode="a" glyph-name="a" horiz-adv-x="945" d="M98 175Q98 225 112 263T154 328T218 374T303 406T401 430T511 451Q550 457 570 461Q584 464 589 465T600 474T605 494Q605 511 607 547T609 601Q609 663 587 709T530 779T466 812T409 822Q263 822 263
699Q263 682 267 657T271 625Q271 583 234 583Q221 583 203 586T162 597T123 622T107 664Q107 744 213 816T450 888Q513 888 563 877T645 851T700 811T734 765T750 715T757 670T758 631Q758 483 753 397T748 249Q748 185 759 144T788 87T825 64T863 56T891 50T903
26Q903 -16 775 -16Q742 -16 714 -5T669 23T639 57T619 85T610 97T593 84T553 52T497 14T424 -18T340 -31Q271 -31 228 -18T150 31Q98 84 98 175ZM259 204Q259 134 299 93T415 51Q454 51 485 59T535 80T569 112T590 148T600 189T604 227T605 260V408Q605 425 590
425Q587 425 584 425T577 423T570 422Q537 416 524 414T479 405T431 393T387 378T345 358T311 331T283 297T266 255T259 204Z" />
<glyph unicode="b" glyph-name="b" horiz-adv-x="1121" d="M25 1415Q25 1430 41 1443T75 1464T121 1481T157 1494Q172 1500 204 1515T258 1539T289 1549Q300 1549 310 1538T320 1511Q320 1493 320 1469T319 1406T318 1221T317 842Q317 769 332 769Q340 769 349
783T377 817T425 857T515 891T656 905Q731 905 795 881T903 816T979 721T1026 606T1041 482Q1041 423 1022 349T959 194T854 68Q734 -23 569 -23Q516 -23 467 -11T385 19T327 53T287 83T269 96Q261 96 246 64T211 -1T168 -34Q153 -34 148 -29T143 -9Q143 21 147
89T152 159Q152 228 161 401T170 700V1206Q170 1393 77 1393H57Q25 1393 25 1415ZM317 271Q317 251 335 217T387 144T482 79T616 51Q711 51 778 98T876 217T907 379Q907 455 883 528T815 661T701 758T546 795Q451 795 382 737Q341 703 329 683T317 642V271Z" />
<glyph unicode="c" glyph-name="c" horiz-adv-x="925" d="M80 394Q80 520 137 629T305 808T556 878Q628 878 709 859T794 812Q799 750 799 714Q799 624 777 624Q765 624 756 634T734 661T708 690Q661 729 585 764T437 799Q422 799 400 792T348 761T293 702T251
602T233 458Q233 300 335 182T584 64Q640 64 691 80T771 117T823 153T855 170Q864 170 870 164T876 149Q876 142 864 122T821 74T750 20T644 -24T504 -43Q312 -43 196 73T80 394Z" />
<glyph unicode="d" glyph-name="d" horiz-adv-x="1157" d="M80 399Q80 492 112 579T204 739T361 854T578 898Q633 898 718 868T810 838Q821 838 821 911Q821 1067 823 1114T825 1175Q825 1220 825 1241T821 1294T812 1342T793 1374T762 1397T717 1404H695Q664
1404 658 1406T652 1421V1423Q652 1436 672 1444T755 1472T883 1522Q889 1525 907 1533T938 1547T963 1552Q988 1552 988 1511Q988 1505 974 1337T960 1067Q960 855 959 610T957 319Q957 178 970 132T1028 72Q1036 69 1055 66T1085 60T1107 49T1117 29Q1117 22
1110 17T1066 5T958 -8Q926 -11 884 -20T830 -29Q807 -29 807 -7Q807 0 804 24T801 69Q801 104 782 104Q776 104 753 83T698 38T609 -8T484 -29Q406 -29 339 -6T225 58T145 153T96 270T80 399ZM227 495Q227 398 266 304T386 144T568 78Q660 78 735 125T810 240Q811
359 811 436T812 534T813 568T813 590Q813 665 798 698T755 748Q697 783 629 810T511 837Q379 837 303 740T227 495Z" />
<glyph unicode="e" glyph-name="e" horiz-adv-x="954" d="M80 398Q80 531 131 641T278 818T495 885Q582 885 652 854T761 779T827 687T863 605T872 559Q872 538 853 530T789 522H324Q307 522 287 522T262 523Q246 523 243 519T240 499Q240 401 270 321T349 191T459
114T585 87Q635 87 683 101T762 132T818 164T855 178Q863 178 868 172T874 159Q874 151 860 130T815 80T744 25T642 -19T512 -38Q427 -38 352 -12T215 65T117 202T80 398ZM252 601Q252 585 257 578T279 571Q334 571 482 577T639 584Q667 584 674 589T682 608Q682
626 675 652T651 710T609 769T546 814T461 833Q409 833 367 807T301 743T265 668T252 601Z" />
<glyph unicode="f" glyph-name="f" horiz-adv-x="706" d="M60 788Q60 826 77 838T145 850Q150 850 165 850T188 849Q212 849 218 860T225 896Q225 1017 257 1123T341 1302T453 1427T571 1504T675 1529Q723 1529 753 1513T783 1472Q783 1457 771 1416Q770 1411
767 1402T763 1388T760 1377T755 1367T750 1360T743 1354T734 1351T723 1349Q716 1349 708 1357T690 1376T651 1394T578 1403Q528 1403 489 1374T427 1298T389 1188T368 1063T362 937Q362 929 362 912T363 886Q363 847 388 847Q490 847 584 865Q593 867 606 876T626
885Q636 885 636 869Q636 837 609 790Q598 772 558 772Q514 772 490 771T398 770Q365 770 365 749V630Q365 626 374 225Q375 192 376 175T384 127T404 80T442 51T504 38Q516 38 523 36T533 29T537 20T538 9Q538 -12 516 -12Q515 -12 474 -10T383 -5T312 -2Q275
-2 238 -7T160 -12Q129 -12 129 16Q129 25 145 33T179 51T214 87T230 158Q230 173 228 239T224 436T221 736Q221 758 214 763T186 768Q177 768 150 765T104 762Q84 762 74 766T62 775T60 788Z" />
<glyph unicode="g" glyph-name="g" horiz-adv-x="999" d="M80 -199Q80 -164 95 -135T132 -89T176 -59T213 -38T228 -24Q228 -20 218 -12T194 7T171 42T160 97Q160 145 176 184T213 243T250 278T267 299Q267 307 253 318T218 348T177 392T142 465T127 573Q127 609
135 646T168 728T229 807T332 863T481 886Q543 886 593 874T668 846T712 818T740 805Q751 805 764 809T788 817T816 830T844 842Q862 850 873 867T888 900T899 928T918 941Q945 941 945 923Q945 873 930 818T899 738Q872 698 815 673Q838 612 838 572Q838 442 739
352T499 261Q445 261 398 269T343 278Q338 278 331 277T309 271T281 256T260 226T250 179Q250 149 263 129T296 98T355 80T429 73T524 71H619Q651 71 675 70T738 63T804 46T859 15T900 -35T915 -109Q915 -173 902 -204Q862 -304 741 -363T461 -423Q395 -423 333
-413T212 -379T116 -309T80 -199ZM199 -187Q199 -278 274 -323T461 -369Q587 -369 688 -317T790 -183Q790 -158 782 -139T757 -109T722 -91T673 -81T621 -78T563 -77H545Q480 -77 386 -63L292 -49Q271 -49 235 -90T199 -187ZM282 594Q282 471 341 389T488 307Q580
307 629 377T678 551Q678 624 654 689T580 798T464 842Q388 842 335 777T282 594Z" />
<glyph unicode="h" glyph-name="h" horiz-adv-x="1202" d="M41 1428Q41 1445 62 1456T123 1477T182 1496Q193 1501 215 1511T251 1526T282 1539T310 1549T329 1552Q356 1552 356 1506Q356 1496 350 1457T342 1379Q335 783 326 782Q326 738 345 738Q350 738 375
761T432 813T519 865T633 889Q798 889 890 790T983 485V189Q983 175 985 158T995 121T1016 87T1051 70Q1161 59 1161 26Q1161 -6 1097 -6Q1087 -6 1018 -1T926 4Q908 4 841 1T768 -2Q721 -2 721 18Q721 36 732 43T760 53T792 60T819 87T831 147Q831 155 831 167T833
201T834 296T835 487Q835 612 759 703T581 795Q489 795 383 714Q357 694 346 663T331 561T326 335V289Q326 196 341 140T407 62Q421 56 441 53T476 50T500 43T511 24Q511 15 505 8T489 0Q488 0 436 2T330 7T271 10Q257 10 199 5T125 0Q98 0 86 3T72 8T70 20Q70
40 95 48Q153 65 170 100T188 205L196 904Q196 925 196 957T197 1003Q197 1276 187 1334Q176 1390 144 1401Q131 1405 110 1405Q92 1405 85 1405T76 1406Q41 1406 41 1428Z" />
<glyph unicode="i" glyph-name="i" horiz-adv-x="581" d="M73 781Q73 790 78 796T99 809T130 821T178 838T239 862Q261 871 280 880T307 893T322 898T343 900Q354 900 363 891T372 861Q372 850 367 816T361 762V200Q361 148 374 115T406 71T449 54T491 49T524
43T537 20Q537 -14 502 -14Q498 -14 488 -14T472 -13Q427 -13 396 -11T326 -8Q277 -8 235 -10T181 -13Q98 -13 98 15Q98 26 106 38T129 54Q172 68 182 78Q205 100 210 197Q213 256 213 421V603Q213 651 206 682T184 727T156 746T123 754T94 760Q73 768 73 781ZM191
1209Q191 1233 226 1276T292 1320Q326 1320 357 1279T388 1204Q388 1171 349 1132T291 1092Q251 1092 221 1135T191 1209Z" />
<glyph unicode="j" glyph-name="j" horiz-adv-x="575" d="M48 -281Q48 -222 93 -222Q115 -222 155 -265T210 -309Q228 -309 238 -281T253 -181T259 21V643Q259 666 256 682T243 719T206 751T137 763Q105 763 105 784Q105 796 122 801T187 821T284 858Q299 865
323 877T360 896T381 902Q406 902 406 855V831Q406 813 404 780T402 736V72Q402 9 395 -52T369 -180T321 -296T243 -378T132 -410Q51 -410 51 -354Q51 -342 50 -317T48 -281ZM237 1210Q237 1238 269 1276T334 1315Q368 1315 400 1279T432 1210Q432 1176 396 1139T343
1101Q302 1101 270 1140T237 1210Z" />
<glyph unicode="k" glyph-name="k" horiz-adv-x="1117" d="M1 1412Q1 1425 22 1436T101 1465Q118 1470 137 1475T164 1483T179 1488T193 1494T204 1501T224 1513T250 1529Q293 1556 318 1556Q347 1556 347 1518Q347 1514 345 1495T340 1437T334 1345T329 1199T327
999Q327 930 324 790T321 580V537Q321 451 329 451Q342 451 351 457T373 476T395 497Q682 725 682 758Q682 775 668 786T636 803T605 817T590 838Q590 858 615 858Q619 858 631 858T652 857Q949 866 952 866Q985 866 995 862T1006 848Q1006 834 994 828T961 818T902
800T822 759Q802 746 725 688Q547 553 532 536Q521 525 521 511Q521 490 542 464Q734 231 862 120Q906 82 950 65T1021 47T1063 44T1079 24Q1079 1 1062 -4T996 -10Q982 -10 888 -9T783 -8Q766 -8 729 24T641 113T551 217T462 324T405 395Q394 407 382 407Q361
407 340 379T319 314Q319 307 321 279Q328 134 332 121Q333 116 351 93Q354 88 358 83Q370 64 409 56T480 41T512 18Q512 5 497 -2T470 -12T449 -14Q445 -14 367 -9T250 -3Q224 -3 187 -7T101 -11Q52 -11 52 14Q52 23 58 30T71 39T89 45T103 49Q150 67 162 102T174
237Q174 259 175 290T176 328L178 1236Q178 1391 81 1391Q74 1391 62 1390T40 1389Q1 1389 1 1412Z" />
<glyph unicode="l" glyph-name="l" horiz-adv-x="572" d="M40 1420Q40 1431 43 1437T57 1448T81 1456T122 1469T180 1490Q197 1497 232 1513T292 1539T335 1548Q360 1548 360 1510Q360 1501 356 1461T349 1351T345 1198V1083Q345 986 342 920T339 811V200Q339
176 341 159T353 120T379 84T428 61T505 51Q515 51 523 41T532 20Q532 -8 470 -8Q452 -8 375 -1T263 7Q209 7 161 -1T97 -10Q82 -10 73 -3T63 10Q63 27 72 34T103 47T133 56Q168 72 178 100T188 188Q188 196 188 213T187 241V394Q187 470 191 796T195 1263Q195
1309 180 1348T145 1395Q128 1402 63 1402Q40 1402 40 1420Z" />
<glyph unicode="m" glyph-name="m" horiz-adv-x="1693" d="M63 794Q63 813 87 821T160 840T243 866Q254 871 270 878T293 888T311 893T334 896Q358 896 358 838Q358 824 353 792T348 752Q348 728 361 728Q364 728 374 743T405 779T453 822T530 859T637 874Q699
874 747 858T820 817T861 769T886 729T899 712Q902 712 926 738T982 796T1068 854T1180 880Q1257 880 1318 855T1417 785T1476 688T1505 573Q1517 463 1517 314V248Q1517 155 1527 114T1574 61L1599 57Q1624 53 1638 45T1653 22Q1653 -8 1585 -8Q1573 -8 1523 -4T1451
1Q1420 1 1371 -3T1302 -8Q1253 -8 1253 12Q1253 29 1273 39T1317 60T1348 87Q1356 106 1356 181V213Q1356 283 1356 335T1355 431T1351 507T1348 563T1341 606T1334 636T1323 661T1311 679T1295 699T1277 720Q1223 785 1125 785Q1078 785 1026 761T944 710T914
673Q914 667 917 645T923 564T926 414Q926 393 926 335T925 240Q925 147 953 103T1068 45Q1082 43 1090 36T1101 24T1103 13Q1103 -10 1065 -10Q1051 -10 1000 -5T916 1Q895 1 816 -4T729 -10Q714 -10 700 -4T685 17T693 38T731 57Q732 57 734 58Q741 60 745 62T756
72T767 93T775 128T779 184Q779 191 779 200T779 222T780 283T780 407Q780 451 780 479T779 516T778 528T777 536Q777 644 721 710T567 777Q481 777 414 731T346 626Q346 621 346 612T347 598V214Q347 164 359 130T391 81T432 58T474 48T505 41T518 24Q518 11 517
6T506 -3T475 -7Q467 -7 411 -4T303 0Q256 0 203 -3T141 -7Q119 -7 108 -2T95 9T93 24Q93 38 104 44T129 52T160 69T186 114Q202 166 202 427Q202 467 202 550T201 676Q201 716 187 736T153 760T112 764T77 770T63 794Z" />
<glyph unicode="n" glyph-name="n" horiz-adv-x="1210" d="M63 798Q63 810 76 816T120 827T164 836Q202 846 244 863T312 893T346 905H350Q369 905 369 881Q369 876 367 844T364 793Q364 739 375 739Q380 739 388 750T419 783T472 824Q565 880 650 880Q733 880
797 855T899 791T960 705T993 615T1001 537Q1001 528 1001 517T1002 489T1003 408T1004 244V198Q1004 121 1024 92T1128 50Q1153 46 1161 39T1169 19Q1169 -3 1128 -3Q1081 -3 1030 3T961 9Q932 9 872 5T803 0Q762 0 762 26Q762 36 769 42T785 51T803 55T814 57Q858
71 858 194V472Q858 630 780 710T593 790Q505 790 440 744T364 666Q357 647 352 528T347 342V264Q347 223 348 197T357 143T376 99T409 72T462 58Q547 51 547 27Q547 0 507 0Q472 0 440 4T359 8Q306 8 219 4T130 0Q99 0 99 20Q99 37 109 41T134 48T164 61T192 111T206
218Q210 332 210 370V666Q210 732 188 754T123 776H103Q63 776 63 798Z" />
<glyph unicode="o" glyph-name="o" horiz-adv-x="1121" d="M80 415Q80 504 111 586T200 735T352 842T563 882Q655 882 739 853T892 768T1000 625T1041 429Q1041 318 999 227T886 80T729 -7T548 -37Q435 -37 344 1T196 104T110 248T80 415ZM241 486Q241 379 274
289T360 143T478 56T610 25Q727 25 806 113T886 367Q886 451 863 531T795 678T678 786T515 827Q467 827 422 809T334 752T267 645T241 486Z" />
<glyph unicode="p" glyph-name="p" horiz-adv-x="1137" d="M63 789Q63 799 80 805T151 828T264 873Q281 881 297 889T321 900T334 907T344 910T351 911Q377 911 377 884Q377 841 373 805T369 763Q369 748 374 748Q377 748 391 762T431 797T489 839T574 874T681
889Q774 889 847 855T965 762T1033 631T1057 477Q1057 388 1028 301T945 142T806 26T617 -19Q543 -19 490 -7T415 20T377 47T352 60Q346 60 346 43Q347 43 347 -182V-208Q347 -253 380 -306Q399 -334 431 -344T491 -353T538 -356T559 -384Q559 -409 490 -409Q477
-409 424 -406T277 -402Q240 -402 198 -405T147 -408Q102 -408 90 -404T77 -388Q77 -374 86 -367T110 -357T141 -346T172 -320T195 -264T205 -167V-128Q205 114 208 274T211 438V483Q211 544 211 576T207 646T198 701T182 736T155 759T115 765Q90 765 79 768T65
776T63 789ZM347 394Q347 374 348 343T349 291Q349 234 370 189T422 117T495 73T575 50T650 43Q740 43 803 91T894 214T923 378Q923 480 888 571T777 725T602 787Q497 787 415 721Q386 698 374 675T354 588T347 394Z" />
<glyph unicode="q" glyph-name="q" horiz-adv-x="1144" d="M80 361Q80 468 111 557T193 706T311 807T447 866T588 884Q635 884 680 874T757 848T813 817T850 792L863 781Q871 781 886 813T922 878T963 911Q981 911 981 878Q981 860 977 823T968 699T963 475Q963
310 966 222T969 -163Q969 -219 980 -258T1007 -313T1043 -341T1079 -354T1107 -363T1118 -383Q1118 -407 1082 -407Q1078 -407 1060 -407T1009 -406T938 -405Q876 -405 835 -406T779 -410T754 -413T738 -415Q709 -415 699 -408T689 -386Q689 -371 707 -365T753
-353T792 -340Q807 -330 812 -299T818 -165Q818 -116 819 -55T821 22Q821 116 808 116Q798 116 774 90T718 34T622 -23T477 -49Q327 -49 229 32Q177 75 144 123T99 219T83 295T80 361ZM223 444Q223 344 258 266T346 146T452 82T553 60Q606 60 648 68T717 90T764
124T794 163T810 206T817 247T818 285V619Q818 674 772 723T663 798T541 825Q507 825 469 816T386 780T306 713T247 602T223 444Z" />
<glyph unicode="r" glyph-name="r" horiz-adv-x="769" d="M46 778Q46 800 73 812T175 847T315 901Q335 910 344 910Q370 910 370 869Q370 862 369 843T368 813Q368 771 370 752T375 729T385 724Q389 724 407 750T448 807T513 864T601 890Q610 890 617 890T632
887T643 884T655 878T666 871T680 861T696 851Q739 822 739 792Q739 769 733 749T717 716T697 694T680 682T670 678Q651 678 633 690T586 714T515 727Q459 727 411 682T362 601V388Q362 313 362 268T364 211T365 191T366 172Q366 129 394 99T462 62Q473 60 492
58T522 55T545 50T562 42T568 27Q568 -6 542 -6Q507 -6 448 -1T368 4Q303 4 233 -1T155 -7Q134 -7 124 -3T112 5T110 18Q110 46 137 53Q189 66 201 107T213 277Q213 411 213 496T211 606T210 644T209 668Q209 684 206 695T194 719T162 737T107 744Q104 744 96 745T84
746Q46 746 46 778Z" />
<glyph unicode="s" glyph-name="s" horiz-adv-x="804" d="M113 89V267Q113 289 122 304T143 319Q159 319 167 312T178 295T186 266T196 232Q206 206 220 180T261 120T325 65T409 44Q436 44 464 51T521 73T569 118T588 189Q588 239 563 276T497 336T408 378T310
419T221 467T156 538T130 643Q130 757 222 827T439 897Q499 897 544 891T613 875T650 854T668 835T672 821Q672 820 675 766T679 699Q679 665 672 652T643 639Q634 639 622 658T593 705T553 760T488 807T396 827Q337 827 298 798T259 723Q259 698 265 677T286 640T313
612T351 588T390 571T436 554T478 539Q625 484 676 424T728 244Q728 188 697 131T618 31Q546 -33 415 -33Q378 -33 338 -26T273 -10T219 10T186 23Q179 25 167 29T150 34T137 39T126 46T119 56T114 70T113 89Z" />
<glyph unicode="t" glyph-name="t" horiz-adv-x="701" d="M56 786Q56 800 66 810T106 845T164 898Q195 930 228 976T282 1043T320 1065Q342 1065 342 1017Q342 999 338 960T334 902Q334 872 345 867T418 861H490Q549 861 583 867T629 881T648 888Q667 888 667
867Q667 851 641 803T602 754Q572 754 544 755T494 758T455 760T425 763T404 766T390 768L386 769Q346 769 335 757T324 700Q324 677 320 528T315 319Q315 251 321 211T345 140T399 95T491 82Q534 82 586 101T644 120Q655 120 659 116T664 97Q664 80 635 53T551
3T441 -21Q367 -21 313 -3T231 40T187 101T168 163T164 219V249Q164 329 166 444T170 642T172 727Q172 747 164 753T129 759Q121 759 108 759T91 758Q72 758 64 763T56 786Z" />
<glyph unicode="u" glyph-name="u" horiz-adv-x="1180" d="M59 806Q59 829 86 840T196 851Q211 851 260 856T313 862Q348 862 354 848T361 759Q361 718 356 619T351 399Q351 321 366 261T404 166T458 109T518 78T577 70Q709 70 768 125T828 319L824 603Q824 706
808 741T729 782Q684 786 684 808Q684 857 865 857Q882 857 906 861T937 866Q969 866 978 855T988 809Q988 807 987 778T984 700T981 589T978 446T977 286Q977 161 988 117T1034 72Q1044 72 1062 72T1088 73Q1136 73 1136 48Q1136 24 1122 18T1061 12Q1025 12 942
1T854 -11Q839 -11 831 42T818 95Q814 95 790 75T734 30T643 -15T522 -36Q192 -36 192 320Q192 518 193 601T194 689Q194 730 174 754T134 779Q126 779 116 779T97 778Q59 778 59 806Z" />
<glyph unicode="v" glyph-name="v" horiz-adv-x="1072" d="M40 851Q40 874 80 874Q84 874 104 872T156 868T225 866Q254 866 285 866T345 865Q358 865 385 867T423 870Q460 870 460 848T448 820T411 813Q393 813 382 812T356 806T334 789T326 756Q326 743 331
725T350 675T377 614T417 526T466 418Q476 397 491 360T518 299T541 248T563 209T577 195Q597 195 702 442T807 738Q807 772 794 789T762 808T724 811T692 817T679 844Q679 871 744 871Q758 871 804 870T880 868Q902 868 934 869T975 870Q1010 870 1021 864T1032
840Q1032 829 1022 823T991 804T952 766Q902 696 805 492T629 130T518 -28Q507 -28 502 -25T488 -9T464 39T424 129Q332 342 243 540Q201 633 164 695T106 780T68 814T46 831T40 851Z" />
<glyph unicode="w" glyph-name="w" horiz-adv-x="1532" d="M40 851Q40 874 80 874Q84 874 104 872T156 868T225 866Q254 866 275 867T325 868Q387 868 404 865T422 846Q422 833 408 826T377 816T346 797T332 749Q332 674 446 418Q456 395 470 362T494 305T514
259T533 225T546 213Q548 213 550 215T556 222T563 232T572 247T581 263T591 283T603 305T615 329T628 354Q643 383 660 416T686 466T705 502T719 531T728 551T734 569T736 584T737 602Q737 617 718 664T678 742Q655 775 632 795T594 820T571 831T562 850Q562 869
591 869Q646 869 674 867T840 864Q869 864 881 865T903 867Q948 867 948 837Q948 833 948 830T946 825T943 822T939 820T934 819T926 818T917 817Q900 815 889 812T868 795T857 760Q857 730 891 631T976 418Q990 387 1014 327T1051 239T1074 210Q1087 210 1134
318T1224 555T1267 729Q1267 767 1250 786T1212 807T1174 819T1156 847Q1156 865 1198 865H1433Q1471 865 1481 861T1492 838Q1492 826 1484 819T1463 809T1434 793T1402 761Q1383 735 1367 701T1330 617T1249 432T1107 123Q1051 4 1034 -15Q1024 -27 1014 -27Q987
-27 934 105T833 370T770 503Q762 503 702 373T574 111T476 -20Q460 -20 446 8T378 174Q300 374 232 542Q220 573 207 611T186 668T165 713T131 761T79 810Q71 817 62 822T49 830T43 837T40 851Z" />
<glyph unicode="x" glyph-name="x" horiz-adv-x="1123" d="M60 29Q60 38 65 42T79 48T109 60T154 84Q189 106 227 137T303 206T368 272T430 341T476 392Q484 402 484 413Q484 422 461 451T391 537T310 636Q263 697 216 739T152 784Q114 791 89 809T63 845Q63 856
72 863T93 870Q136 870 175 866T252 861Q284 861 336 864T418 868Q451 868 461 863T472 842Q472 833 462 827T438 817T415 805T404 783Q404 776 407 768T418 748T431 727T448 703T466 679Q564 541 576 529Q586 519 592 519Q599 519 612 535Q637 566 675 615Q742
698 754 718T767 763Q767 788 744 801T697 822T673 843Q673 850 675 854T690 863T728 868Q745 868 787 868T857 867Q874 867 919 868T997 870Q1011 870 1023 863T1036 844Q1036 831 1025 825T994 813T939 785T862 721Q779 638 703 556T627 463Q627 456 652 428Q722
350 813 240Q814 238 835 213T863 180T890 150T924 116T958 89T998 64T1039 48Q1050 45 1053 44T1060 37T1063 23Q1063 8 1051 3T993 -2Q982 -2 942 0T872 2Q847 2 808 0T751 -2H730Q691 -2 676 1T660 18Q660 26 671 31T696 40T721 53T732 77Q732 104 703 145T624
245T550 340Q538 358 532 358T510 338Q486 308 451 267T398 205T366 158T352 110Q352 79 367 65T400 51T434 43T449 17Q449 9 446 6T425 1T365 -2Q348 -2 315 1T258 4Q236 4 201 0T150 -4Q60 -4 60 29Z" />
<glyph unicode="y" glyph-name="y" horiz-adv-x="1020" d="M40 844Q40 856 54 862T81 868Q139 868 200 866T302 864Q336 864 364 866T418 868Q432 868 443 861T454 845Q454 836 453 830T447 819T439 813T427 810T413 809T395 808T375 808Q342 807 342 752Q342
719 361 669T441 482Q456 450 464 432Q474 411 489 375T516 314T539 264T560 225T574 212Q587 212 669 448T751 734Q751 768 738 785T707 806T670 811T638 819T625 845Q625 870 664 870Q694 870 744 869T810 868Q830 868 881 869T938 870Q980 870 980 844Q980 828
966 822T930 809T898 788Q863 738 786 531L605 46Q588 -1 570 -51T539 -135T513 -205T492 -264T474 -310T459 -346T446 -370T434 -385T424 -390Q422 -390 417 -390T392 -391T330 -392Q291 -392 291 -365Q291 -359 320 -322T384 -237T448 -125T477 -6Q477 53 361
305T158 722Q136 764 112 785T74 810T50 820T40 844Z" />
<glyph unicode="z" glyph-name="z" horiz-adv-x="775" d="M82 30Q82 40 83 47T86 60T95 76T107 94T126 122T152 158Q526 697 526 730Q526 739 479 739Q460 739 412 736T306 729T230 724Q201 722 179 704T145 664T123 626T102 608Q86 608 86 630Q86 667 91 706T104
787T113 836Q115 851 126 861T153 872Q159 872 187 871T265 868T373 866Q442 866 542 869T674 872Q683 872 690 866T698 851Q698 836 687 819T659 784T638 758Q553 625 445 473T289 248T241 150Q241 132 343 132Q364 132 398 133T442 134Q487 134 520 140T573 153T605
176T624 201T636 230T648 258Q653 269 656 273T665 282T681 287Q693 287 703 280T714 258Q714 257 707 237T688 186T666 134Q659 117 650 80T630 24T602 4Q544 4 477 4T368 5Q356 5 304 4T220 3H185Q150 3 136 2T120 1Q82 1 82 30Z" />
<glyph unicode="{" glyph-name="braceleft" horiz-adv-x="559" d="M85 547Q85 569 97 582T123 601T149 621T161 658Q161 786 157 1068T153 1503Q153 1523 164 1532T190 1541Q209 1541 250 1533T318 1524Q360 1524 401 1529T455 1535Q492 1535 492 1515Q492 1489
468 1466T410 1430T342 1410T287 1402Q272 1402 272 1384Q266 794 266 523Q266 434 269 173T272 -216Q272 -225 294 -230T356 -244T423 -268Q494 -309 494 -352Q494 -371 478 -371Q475 -371 455 -367T400 -357T329 -352Q267 -352 228 -366T176 -381Q165 -381 158
-374T151 -357Q151 -219 154 40T157 413Q157 441 146 460T121 488T97 512T85 547Z" />
<glyph unicode="|" glyph-name="bar" horiz-adv-x="428" d="M160 -178Q160 -25 166 465T172 1167Q172 1258 171 1335T170 1457T169 1511Q169 1537 181 1549T222 1561Q249 1561 257 1550T266 1510Q266 1504 266 1488T265 1462Q265 1453 265 1412T267 1300T268 1144Q268
981 264 577T259 20Q259 -178 261 -280Q261 -283 261 -302T262 -334V-350Q262 -369 261 -379T257 -403T247 -422T228 -428Q182 -428 171 -408T160 -303V-178Z" />
<glyph unicode="}" glyph-name="braceright" horiz-adv-x="559" d="M65 -352Q65 -309 136 -268Q163 -254 202 -245T264 -230T287 -216Q287 -88 290 173T293 523Q293 794 287 1384Q287 1402 272 1402Q250 1402 217 1409T150 1430T91 1466T67 1515Q67 1535 104 1535Q117
1535 158 1530T241 1524Q268 1524 309 1532T369 1541Q384 1541 395 1532T406 1503Q406 1350 402 1068T398 658Q398 635 410 621T436 602T462 583T474 547Q474 527 463 512T438 489T413 461T402 413Q402 300 405 41T408 -357Q408 -367 401 -374T383 -381Q370 -381
331 -367T230 -352Q194 -352 160 -357T105 -366T81 -371Q65 -371 65 -352Z" />
<glyph unicode="~" glyph-name="asciitilde" horiz-adv-x="779" d="M60 353Q60 356 71 375T103 423T149 477T208 523T274 542Q321 542 394 496T514 450Q547 450 577 466T624 500T656 535T678 551Q697 551 708 542T719 520Q719 516 708 497T673 451T622 398T555
354T479 336Q433 336 394 359T319 406T248 430Q216 430 188 413T145 375T118 337T100 320Q60 320 60 353Z" />
<glyph unicode="&#xa0;" glyph-name="uni00A0" horiz-adv-x="437" />
<glyph unicode="&#xa1;" glyph-name="exclamdown" horiz-adv-x="566" d="M120 1260Q120 1276 134 1290T169 1318T198 1340Q206 1348 221 1368T249 1400T274 1412Q287 1412 315 1389T359 1344Q365 1336 383 1320T414 1288T426 1256Q426 1251 424 1246T415 1233T402
1221T385 1207T367 1192Q359 1185 342 1163T309 1128T276 1114Q271 1114 267 1115T257 1121T248 1128T238 1139T228 1150Q206 1173 183 1192T148 1220T128 1238T120 1260ZM171 41Q171 48 172 56T176 82T181 120Q190 193 206 453T253 956Q256 978 281 978Q304 978
306 959Q324 748 333 624T343 470T344 410T347 348Q350 300 355 236T363 133T366 52Q366 16 339 -5T264 -26Q216 -26 194 -12T171 41Z" />
<glyph unicode="&#xa2;" glyph-name="cent" horiz-adv-x="925" d="M80 394Q80 547 165 674T394 851Q413 858 431 862T455 867T466 873T472 885T473 911V986Q473 995 482 1000T505 1006Q524 1006 539 1001T555 988L554 893Q554 887 555 884T560 880T569 878T586
877T609 875T642 871T686 864Q737 855 769 838Q783 831 787 825T795 794T799 714Q799 624 777 624Q764 624 755 634T736 660T692 702T604 755Q573 770 566 770Q553 770 553 729Q552 504 551 357T549 162T548 92Q548 77 554 71T584 64Q640 64 691 80T771 117T823
153T855 170Q864 170 870 164T876 149Q876 142 865 125T830 82T771 33T685 -11T574 -39Q571 -39 566 -39T560 -40T555 -41T551 -43T549 -46T547 -51T547 -57T546 -67Q546 -72 546 -118T547 -186Q547 -208 504 -208Q468 -208 468 -190V-59Q468 -51 468 -48T464 -42T456
-40T442 -39T420 -37T388 -32T346 -19Q221 23 151 130T80 394ZM233 458Q233 388 254 325T305 221T368 150T425 107T458 93Q469 93 469 123Q469 188 472 770Q472 791 467 795T437 799Q422 799 400 792T348 761T293 702T251 602T233 458Z" />
<glyph unicode="&#xa3;" glyph-name="sterling" horiz-adv-x="1140" d="M40 88Q40 134 75 169T181 204Q215 204 253 194T316 172T345 161Q356 168 371 215T386 305Q386 413 286 637Q284 642 280 651T275 662T270 670T265 676T258 679T248 681T235 682Q230 682
178 681T71 680Q43 680 43 724Q43 750 49 759T69 768H189Q224 768 224 772Q224 774 208 818T176 933T160 1069Q160 1173 196 1253T292 1379T424 1449T573 1473Q708 1473 812 1412T916 1260Q916 1226 886 1192T833 1158Q815 1158 804 1177T779 1235T748 1300Q719
1346 661 1372T537 1399Q439 1399 370 1341T301 1166Q301 1143 303 1120T309 1073T318 1030T330 986T343 947T358 908T372 874T386 839T399 810Q410 784 417 777T439 770H755Q785 770 792 762T799 725Q799 700 791 691T751 682H501Q456 682 456 674Q456 673 470
633T498 530T513 415Q513 388 510 361T501 310T489 265T474 225T459 192T446 166T436 148T430 138Q462 128 545 115T715 102Q782 102 837 117T926 156T987 206T1028 256T1054 294T1073 310Q1084 310 1092 301T1100 278Q1100 254 1091 219T1058 138T1000 56T908
-8T781 -34Q592 -34 373 56Q363 55 337 36T267 -3T165 -22Q106 -22 73 10T40 88ZM118 90Q118 71 138 53T187 34Q226 34 259 58T299 97Q291 106 251 118T177 130Q118 130 118 90Z" />
<glyph unicode="&#xa4;" glyph-name="currency" horiz-adv-x="1080" d="M40 90Q40 115 77 152L218 293Q137 399 137 536Q137 672 216 776L77 917Q41 953 41 979Q41 1002 57 1018T95 1034Q120 1034 157 997L299 856Q403 935 538 935Q675 935 780 856L922 997Q958
1033 984 1033Q1007 1033 1023 1017T1039 979Q1039 954 1002 917L861 775Q944 664 944 533Q944 404 861 294L1002 152Q1038 116 1038 90Q1038 67 1022 51T984 35Q959 35 922 72L780 213Q676 134 538 134T298 211L157 72Q121 36 95 36Q72 36 56 52T40 90ZM254 533Q254
412 338 329T539 245T740 330T825 535Q825 654 741 741T539 828Q421 828 338 741T254 533Z" />
<glyph unicode="&#xa5;" glyph-name="yen" horiz-adv-x="1458" d="M40 1410Q40 1432 64 1438T167 1444Q180 1444 224 1442T286 1440Q308 1440 369 1441T460 1442Q564 1442 564 1418Q564 1404 551 1395T521 1381T491 1367T477 1345Q477 1327 484 1306T505 1259T531
1215T562 1169T587 1132Q654 1028 726 930T809 831H825Q833 831 840 837T858 858T879 892T911 944T954 1011Q962 1022 978 1046T1003 1084T1026 1119T1049 1155T1069 1188T1086 1220T1099 1248T1108 1274T1111 1294Q1111 1335 1087 1355T1035 1376T982 1387T958
1419Q958 1443 1015 1443Q1025 1443 1053 1442T1099 1441Q1147 1441 1213 1440T1317 1439Q1369 1439 1393 1434T1418 1409Q1418 1400 1406 1394T1371 1378T1330 1353Q1288 1320 1236 1256T1147 1138T1052 994L989 897Q980 883 969 868T954 847T949 837Q949 832
973 831Q1005 829 1177 829Q1188 829 1197 818T1206 783Q1206 757 1199 749T1178 741Q1027 741 964 741T897 740Q880 740 871 728T855 666T848 520Q848 503 851 499T866 494Q869 494 878 494T894 495H1151Q1184 495 1191 486T1199 448Q1199 431 1197 424T1183 410T1146
404Q1086 404 994 403T882 402Q859 402 854 398T848 375Q848 372 848 359T848 323T849 272V224Q849 172 862 136T894 85T929 65T959 59Q962 59 979 56T1000 52Q1014 52 1022 45T1030 29Q1030 11 1021 5T993 -1Q953 -1 887 1T795 3Q736 3 647 -3T551 -9Q499 -9 499
16Q499 34 508 40T543 49T582 56Q668 82 668 182Q668 183 670 256T672 374Q672 394 667 398T637 403L507 404Q435 405 354 405Q343 405 335 416T326 451Q326 477 333 485T353 493H396Q467 493 512 493T575 494T597 494Q603 494 614 494T629 493Q657 493 665 499T673
528Q673 533 673 554T672 597Q672 651 658 693T617 738Q609 739 586 739H380Q347 739 340 748T332 786Q332 803 334 810T348 824T385 830Q572 830 572 835Q572 838 543 882L342 1181Q296 1250 258 1293T190 1354T140 1377T92 1383Q40 1383 40 1410Z" />
<glyph unicode="&#xa6;" glyph-name="brokenbar" horiz-adv-x="427" d="M160 -303Q160 -276 160 -243T162 -167T163 13T164 361Q164 387 176 399T217 411Q244 411 252 400T261 360Q261 131 261 -16T261 -208T262 -286T262 -350Q262 -369 261 -379T257 -403T247
-422T228 -428Q182 -428 171 -408T160 -303ZM169 1511Q169 1537 181 1549T222 1561Q249 1561 257 1550T266 1510Q266 1284 266 1132T266 930T267 848T267 800Q267 781 266 771T262 747T252 728T233 722Q188 722 179 741T170 847Q170 874 170 907T170 983T169 1163T169
1511Z" />
<glyph unicode="&#xa7;" glyph-name="section" d="M120 564Q120 631 141 685T193 770T254 822T306 855T328 871Q328 877 310 888T265 917T211 960T166 1030T147 1131Q147 1281 259 1378T541 1475Q613 1475 668 1461T755 1433T806 1419Q810 1419 827 1426T854 1434Q887
1434 890 1414Q894 1384 906 1312T924 1194T931 1136Q931 1078 905 1078Q887 1078 876 1097T854 1149T827 1218T774 1294T681 1362Q609 1398 509 1398Q447 1398 399 1378T325 1326T286 1262T273 1199Q273 1112 369 1058Q411 1034 482 1007T618 960T752 905T873
831T956 729T989 588Q989 523 977 476T952 406T907 342Q888 317 869 302T842 281T833 269Q833 264 845 256T875 238T915 200T954 134Q980 73 980 18Q980 -162 853 -266T533 -370Q442 -370 373 -355T213 -292Q183 -276 153 -139T123 33Q123 81 153 81Q180 81 190
57L195 44Q200 30 205 15T222 -23T246 -69T276 -117T314 -165T360 -209T414 -245T477 -269T549 -278Q631 -278 701 -254T818 -176T866 -47Q866 2 825 42T718 110T573 167T414 229T268 306T161 415T120 564ZM244 628Q244 531 362 461Q405 435 569 374T745 313Q775
313 824 379T874 518Q874 662 646 751Q447 828 424 828Q413 828 386 815T326 778T269 714T244 628Z" />
<glyph unicode="&#xa8;" glyph-name="dieresis" horiz-adv-x="900" d="M212 1210Q212 1238 244 1276T309 1315Q343 1315 375 1279T407 1210Q407 1176 371 1139T318 1101Q277 1101 245 1140T212 1210ZM539 1210Q539 1238 571 1276T636 1315Q670 1315 702 1279T734
1210Q734 1176 698 1139T645 1101Q604 1101 572 1140T539 1210Z" />
<glyph unicode="&#xa9;" glyph-name="copyright" horiz-adv-x="1630" d="M90 686Q90 832 146 966T299 1200T532 1359T819 1418Q969 1418 1104 1359T1337 1201T1491 968T1548 686Q1548 492 1454 325T1190 58T817 -43Q623 -43 456 52T190 316T90 686ZM176 686Q176
553 228 433T367 228T573 93T819 43Q989 43 1136 126T1372 358T1462 689Q1462 816 1413 933T1279 1138T1073 1277T817 1330Q684 1330 565 1279T361 1140T226 934T176 686ZM336 660Q336 760 367 847T458 1001T612 1106T822 1145Q900 1145 978 1123T1102 1078T1150
1055Q1154 1055 1160 1061T1175 1067Q1183 1067 1188 1065T1196 1057T1200 1042T1204 1019T1207 989T1211 947T1218 896Q1222 868 1222 865Q1222 834 1196 834Q1178 834 1167 856Q1048 1075 822 1075Q668 1075 570 980T471 733Q471 678 482 623T522 508T595 403T714
328T883 298Q1045 298 1161 460Q1174 478 1183 500T1198 530T1223 538Q1237 538 1237 522Q1237 466 1212 352Q1208 334 1186 323Q1171 316 1129 296T1066 267T1008 246T932 228T850 223Q757 223 680 241T550 288T458 357T396 437T359 521T341 597T336 660Z" />
<glyph unicode="&#xaa;" glyph-name="ordfeminine" horiz-adv-x="619" d="M60 914Q60 940 68 961T88 998T123 1027T165 1047T219 1063T277 1075T342 1087Q358 1090 366 1091T378 1093T386 1099T389 1111T390 1139T392 1170Q392 1208 379 1235T345 1276T306 1296T272
1302Q184 1302 184 1230Q184 1221 187 1206T190 1187Q190 1163 162 1163Q152 1163 139 1165T108 1171T79 1187T67 1213Q67 1263 138 1307T297 1352Q339 1352 373 1346T428 1330T464 1305T487 1278T498 1247T502 1220T503 1196Q503 1106 500 1054T496 963Q496 891
508 869T547 846Q553 846 559 846T574 847Q589 847 589 828Q589 811 581 805T555 799H505Q471 799 446 819T409 860T396 880T386 871T362 849T326 823T278 800T219 791Q60 791 60 914ZM181 942Q181 901 205 877T275 853Q307 853 330 862T364 884T382 915T388 946T389
975V1056Q389 1066 380 1066Q376 1066 368 1064Q273 1048 242 1034Q181 1005 181 942Z" />
<glyph unicode="&#xab;" glyph-name="guillemotleft" horiz-adv-x="737" d="M40 443Q40 450 54 464Q336 706 345 711Q349 714 353 714Q364 714 375 701T386 677Q386 664 290 559T194 445Q194 433 289 327T384 209T373 185T351 172Q346 172 335 181T241 262Q138
352 52 426Q40 434 40 443ZM311 443Q311 454 324 464Q604 704 612 709Q619 714 624 714Q635 714 646 701T657 677Q657 666 560 561T463 445Q463 433 558 326T653 209Q653 197 643 185T622 172Q616 172 607 179T530 246Q422 340 323 426Q311 434 311 443Z" />
<glyph unicode="&#xac;" glyph-name="logicalnot" horiz-adv-x="1080" d="M63 441Q63 457 69 465T83 474T102 476H976Q1002 476 1009 469T1017 436V113Q1017 96 1011 89T986 81T960 82T942 86T930 99T926 123V350Q926 385 872 385H103Q76 385 70 396T63 441Z" />
<glyph unicode="&#xad;" glyph-name="uni00AD" horiz-adv-x="696" d="M90 297V319Q90 341 91 355T100 382T112 399T135 412T164 422T206 435Q315 467 399 497T512 538T561 549Q606 549 606 480V466Q606 445 603 433T595 413T573 397T539 384T484 367T408 344Q350
325 294 305T212 276T164 260T123 254Q103 254 97 265T90 297Z" />
<glyph unicode="&#xae;" glyph-name="registered" horiz-adv-x="979" d="M60 1118Q60 1298 184 1424T486 1550Q666 1550 792 1424T919 1118Q919 943 792 817T486 690Q310 690 185 816T60 1118ZM121 1118Q121 971 230 863T486 755Q638 755 747 862T856 1118Q856
1270 747 1378T486 1487Q338 1487 230 1378T121 1118ZM252 1348Q252 1366 277 1366Q293 1366 304 1366T324 1365Q384 1365 429 1367T480 1370Q556 1370 606 1339T657 1240Q657 1200 635 1177T589 1145T566 1134T573 1124T592 1102T611 1076Q639 1027 686 961Q710
929 729 929Q730 929 734 930T742 932Q751 932 751 923Q751 912 740 900T701 888T646 903Q621 917 588 969T526 1069T484 1120Q482 1121 433 1121Q419 1121 416 1115T412 1075Q412 997 418 973Q426 943 447 933T484 922T501 909Q501 896 487 896Q486 896 436 898T382
901Q360 901 325 898L290 896Q277 896 277 911Q277 920 288 921T314 931T331 967Q334 988 334 1034V1083Q334 1156 334 1213T335 1281Q335 1334 274 1334Q252 1334 252 1348ZM411 1221Q411 1180 416 1165T441 1150Q452 1150 458 1150T469 1149Q530 1149 553 1167T577
1236Q577 1253 568 1274T527 1315T447 1336Q425 1336 418 1327T411 1289V1221Z" />
<glyph unicode="&#xaf;" glyph-name="overscore" horiz-adv-x="900" d="M232 1207Q232 1245 266 1245Q423 1245 491 1244T635 1242Q655 1242 661 1232T667 1182Q667 1171 660 1164T647 1156T637 1154Q623 1154 459 1155T252 1156Q232 1156 232 1207Z" />
<glyph unicode="&#xb0;" glyph-name="degree" horiz-adv-x="531" d="M60 1251Q60 1322 121 1391T270 1460Q322 1460 363 1437T426 1379T460 1309T471 1242Q471 1200 454 1163T411 1103T356 1063T305 1039T269 1032Q217 1032 178 1049T117 1090T82 1147T64 1204T60
1251ZM147 1249Q147 1192 180 1157T268 1122Q276 1122 288 1124T318 1135T349 1156T374 1192T384 1244Q384 1260 382 1275T372 1308T352 1339T319 1361T268 1370Q225 1370 186 1335T147 1249Z" />
<glyph unicode="&#xb1;" glyph-name="plusminus" horiz-adv-x="1080" d="M63 184Q63 216 69 228T101 240H979Q1001 240 1008 231T1016 198Q1016 180 1014 171T1003 156T973 149H99Q81 149 72 156T63 184ZM63 663Q63 709 101 709H472Q494 709 494 730Q494 733 494
739T493 748V1013Q493 1044 526 1044Q563 1044 573 1038T584 1010V748V732Q584 721 589 715T608 709H984Q1016 709 1016 677Q1016 652 1015 642T1004 624T973 616H608Q593 616 589 608T584 582V311Q584 293 577 288T551 282Q517 282 505 287T493 312V582Q493 603
488 609T460 616H99Q82 616 74 622T65 636T63 663Z" />
<glyph unicode="&#xb2;" glyph-name="uni00B2" horiz-adv-x="690" d="M86 827V831Q86 841 100 859T140 909T199 983T274 1098T358 1256Q414 1377 414 1480Q414 1531 379 1563T286 1596Q233 1596 194 1578T135 1541T106 1522Q96 1522 96 1540Q96 1545 104 1562T133
1602T180 1647T249 1684T340 1700Q420 1700 481 1656T542 1531Q542 1457 494 1352T387 1164T281 1015T232 942Q232 932 284 932H314Q379 932 411 932T466 934T492 936T506 941T520 948Q540 956 568 984T606 1012Q620 1012 620 999Q620 994 598 954T554 876L532
838Q513 812 490 812Q403 812 347 813T270 815Q256 815 200 814T126 813Q107 813 98 815T88 819T86 827Z" />
<glyph unicode="&#xb3;" glyph-name="uni00B3" horiz-adv-x="690" d="M82 878Q82 882 83 886T91 895T108 900Q113 900 124 891T150 872T193 853T260 844Q305 844 343 861T406 904T448 964T472 1027T480 1083Q480 1158 439 1207T302 1257Q291 1257 282 1256T269
1254T263 1253Q245 1253 245 1271Q245 1275 247 1278T256 1285T273 1295T302 1314T343 1344Q378 1370 397 1408T417 1483Q417 1530 386 1563T309 1596Q275 1596 241 1578T183 1543T151 1525Q141 1525 141 1537Q141 1560 175 1596T260 1659T352 1687Q428 1687 482
1650T536 1543Q536 1511 528 1486T499 1437T464 1400T417 1360Q395 1343 395 1337Q395 1334 411 1332T456 1320T512 1294Q608 1232 608 1130Q608 983 512 884T283 785Q211 785 147 815T82 878Z" />
<glyph unicode="&#xb4;" glyph-name="acute" horiz-adv-x="900" d="M371 996T371 1006T385 1038T440 1133T526 1317Q543 1356 568 1356Q590 1356 632 1343T675 1302Q675 1258 476 1047Q416 983 396 983Q386 983 379 989Z" />
<glyph unicode="&#xb5;" glyph-name="uni00B5" horiz-adv-x="1097" d="M20 -300Q20 -209 40 -113T99 122T158 341Q198 514 237 709Q258 812 266 837T291 863Q309 863 347 850T386 810Q386 789 335 497T283 164Q283 91 323 91Q376 91 445 156T578 322T697 526T792
724Q802 748 810 769T823 803T831 827T836 844T840 854T845 860T852 861T863 862Q890 862 920 849T951 820Q951 815 887 514T823 154Q823 131 838 117T874 102Q901 102 923 125T958 176T985 227T1013 250Q1037 250 1037 215Q1037 183 1015 140T956 55T866 -15T756
-44Q708 -44 691 -5T673 104Q673 158 693 280T713 406Q713 417 709 417Q702 417 683 382T612 271T493 121Q431 53 360 8T230 -37Q199 -37 180 -15T153 30T144 52Q140 52 130 11T111 -85T102 -175Q102 -214 129 -276T156 -344Q156 -352 151 -365T127 -392T82 -407Q49
-407 35 -382T20 -300Z" />
<glyph unicode="&#xb6;" glyph-name="paragraph" horiz-adv-x="1034" d="M90 1034Q90 1112 115 1181T181 1301T276 1389T386 1445T497 1464Q554 1464 642 1465T772 1467Q790 1467 830 1468T894 1470H920Q926 1470 931 1464T937 1451Q937 1437 922 1430T883 1412T844
1387Q815 1356 815 1252Q815 1046 812 722T809 192Q809 34 762 -95T625 -302T417 -379Q335 -379 281 -349Q275 -345 270 -327T265 -294Q265 -260 286 -210T326 -160Q337 -160 344 -176T359 -215T379 -261T418 -301T485 -317Q516 -317 539 -297T577 -239T601 -160T614
-65T619 27T620 113Q620 126 621 148T622 177Q622 239 620 383T617 628Q617 658 565 658Q516 658 476 660T384 672T294 697T215 741T149 808T107 904T90 1034ZM465 1030Q465 880 487 798T564 716Q583 716 600 727T618 756Q619 781 619 827Q619 872 617 948T615
1059Q615 1154 616 1214T617 1291T619 1318T620 1335Q620 1379 608 1399T564 1420Q543 1420 519 1409T487 1376Q471 1323 468 1275T465 1030ZM668 1037Q668 983 668 881T669 730Q669 527 672 290L675 54Q675 -28 672 -62T669 -99Q669 -121 685 -121Q694 -121 711
-78T743 56T759 246Q759 475 757 836T755 1388Q755 1404 741 1414T708 1425Q695 1425 684 1418T672 1398Q668 1223 668 1037Z" />
<glyph unicode="&#xb7;" glyph-name="middot" horiz-adv-x="516" d="M158 681Q158 705 193 748T259 792Q293 792 324 751T355 676Q355 643 316 604T258 564Q218 564 188 607T158 681Z" />
<glyph unicode="&#xb8;" glyph-name="cedilla" horiz-adv-x="900" d="M349 -162Q349 -159 351 -157T358 -150T366 -143T378 -134T391 -125Q394 -123 407 -112T430 -95T452 -90Q458 -90 474 -97T509 -118T543 -158T558 -216Q558 -264 536 -304T484 -366T429 -400T389
-412Q380 -412 375 -407T369 -398Q369 -391 390 -380T433 -345T455 -284Q455 -253 439 -233T402 -205T366 -186T349 -162Z" />
<glyph unicode="&#xb9;" glyph-name="uni00B9" horiz-adv-x="690" d="M167 1560Q167 1575 179 1585T208 1601T262 1620T329 1649Q349 1658 368 1672T398 1694T419 1702Q441 1702 441 1674Q441 1669 435 1644T429 1611Q420 1455 420 1202Q420 1129 418 1050T416
959Q416 938 418 923T427 899T440 883T459 874T480 870T508 867T538 864Q563 861 563 837Q563 814 491 814Q474 814 433 815T365 816Q335 816 282 814T212 811Q175 811 175 835Q175 864 220 864Q257 864 271 872T291 913Q304 1010 304 1241Q304 1325 304 1378T304
1446T305 1471T305 1486Q305 1524 297 1542T263 1560Q246 1560 224 1549T185 1537Q183 1537 179 1539T171 1546T167 1560Z" />
<glyph unicode="&#xba;" glyph-name="ordmasculine" horiz-adv-x="744" d="M60 1062Q60 1177 143 1262T374 1347Q500 1347 592 1274T684 1070Q684 937 589 862T364 786Q220 786 140 867T60 1062ZM181 1105Q181 981 248 907T402 833Q472 833 520 885T568 1035Q568
1103 545 1163T469 1264T345 1306Q282 1306 232 1257T181 1105Z" />
<glyph unicode="&#xbb;" glyph-name="guillemotright" horiz-adv-x="737" d="M80 209Q80 222 177 329T274 441Q274 453 179 560T84 677Q84 689 94 701T115 714Q121 714 130 707T207 640Q315 546 414 460Q426 452 426 443Q426 432 412 422Q326 348 223 260Q147
194 133 183T113 172Q102 172 91 185T80 209ZM351 209Q351 222 447 327T543 441Q543 454 448 563T353 677Q353 689 364 701T386 714Q391 714 402 705T496 624Q599 534 685 460Q697 452 697 443Q697 436 683 422Q401 180 392 175Q388 172 384 172Q373 172 362 185T351
209Z" />
<glyph unicode="&#xbc;" glyph-name="onequarter" horiz-adv-x="1870" d="M1218 295Q1218 318 1266 382T1585 782Q1595 794 1609 813T1633 845T1654 871T1676 890T1694 897Q1717 897 1717 873Q1717 871 1714 769T1706 554T1702 416Q1702 402 1702 397T1706 390T1718
387Q1755 387 1775 396T1805 414T1825 423Q1840 423 1840 404Q1840 391 1826 341Q1826 340 1824 327T1819 304T1811 285T1795 276Q1785 276 1758 278T1722 280Q1699 280 1699 256Q1699 238 1701 187T1703 92V-16Q1703 -30 1703 -36T1702 -50T1700 -60T1696 -66T1689
-71T1679 -74T1665 -78T1647 -82Q1621 -88 1596 -88Q1580 -88 1572 -77T1563 -56Q1563 -54 1565 -45T1572 -14T1580 40T1586 133T1589 271Q1589 279 1574 279Q1570 279 1564 279T1548 279T1500 278T1404 278Q1375 278 1325 277T1256 275Q1241 275 1234 276T1223
281T1218 295ZM1353 393Q1353 382 1388 382H1554Q1577 382 1583 384T1590 395V408Q1590 409 1591 462T1594 581T1596 679Q1596 712 1590 712Q1582 712 1468 562T1353 393ZM402 -147Q402 -116 1337 1273Q1342 1282 1361 1306T1391 1331T1415 1322T1428 1305Q1428
1285 1411 1261Q806 357 514 -104Q478 -160 471 -170T457 -183Q443 -187 436 -187Q424 -187 417 -184T407 -175T403 -163T402 -147ZM167 1198Q167 1213 179 1223T208 1239T262 1258T329 1287Q349 1296 368 1310T398 1332T419 1340Q441 1340 441 1312Q441 1307 435
1282T429 1249Q420 1093 420 840Q420 767 418 688T416 597Q416 576 418 561T427 537T440 521T459 512T480 508T508 505T538 502Q563 499 563 475Q563 452 491 452Q474 452 433 453T365 454Q335 454 282 452T212 449Q175 449 175 473Q175 502 220 502Q257 502 271
510T291 551Q304 648 304 879Q304 963 304 1016T304 1084T305 1109T305 1124Q305 1162 297 1180T263 1198Q246 1198 224 1187T185 1175Q183 1175 179 1177T171 1184T167 1198Z" />
<glyph unicode="&#xbd;" glyph-name="onehalf" horiz-adv-x="1870" d="M1266 37V41Q1266 51 1280 69T1320 119T1379 193T1454 308T1538 466Q1594 587 1594 690Q1594 741 1559 773T1466 806Q1413 806 1374 788T1315 751T1286 732Q1276 732 1276 750Q1276 755 1284
772T1313 812T1360 857T1429 894T1520 910Q1600 910 1661 866T1722 741Q1722 667 1674 562T1567 374T1461 225T1412 152Q1412 142 1464 142H1494Q1559 142 1591 142T1646 144T1672 146T1686 151T1700 158Q1720 166 1748 194T1786 222Q1800 222 1800 209Q1800 204
1778 164T1734 86L1712 48Q1693 22 1670 22Q1583 22 1527 23T1450 25Q1436 25 1380 24T1306 23Q1287 23 1278 25T1268 29T1266 37ZM402 -147Q402 -116 1337 1273Q1342 1282 1361 1306T1391 1331T1415 1322T1428 1305Q1428 1285 1411 1261Q806 357 514 -104Q478
-160 471 -170T457 -183Q443 -187 436 -187Q424 -187 417 -184T407 -175T403 -163T402 -147ZM167 1198Q167 1213 179 1223T208 1239T262 1258T329 1287Q349 1296 368 1310T398 1332T419 1340Q441 1340 441 1312Q441 1307 435 1282T429 1249Q420 1093 420 840Q420
767 418 688T416 597Q416 576 418 561T427 537T440 521T459 512T480 508T508 505T538 502Q563 499 563 475Q563 452 491 452Q474 452 433 453T365 454Q335 454 282 452T212 449Q175 449 175 473Q175 502 220 502Q257 502 271 510T291 551Q304 648 304 879Q304 963
304 1016T304 1084T305 1109T305 1124Q305 1162 297 1180T263 1198Q246 1198 224 1187T185 1175Q183 1175 179 1177T171 1184T167 1198Z" />
<glyph unicode="&#xbe;" glyph-name="threequarters" horiz-adv-x="1870" d="M1218 295Q1218 318 1266 382T1585 782Q1595 794 1609 813T1633 845T1654 871T1676 890T1694 897Q1717 897 1717 873Q1717 871 1714 769T1706 554T1702 416Q1702 402 1702 397T1706
390T1718 387Q1755 387 1775 396T1805 414T1825 423Q1840 423 1840 404Q1840 391 1826 341Q1826 340 1824 327T1819 304T1811 285T1795 276Q1785 276 1758 278T1722 280Q1699 280 1699 256Q1699 238 1701 187T1703 92V-16Q1703 -30 1703 -36T1702 -50T1700 -60T1696
-66T1689 -71T1679 -74T1665 -78T1647 -82Q1621 -88 1596 -88Q1580 -88 1572 -77T1563 -56Q1563 -54 1565 -45T1572 -14T1580 40T1586 133T1589 271Q1589 279 1574 279Q1570 279 1564 279T1548 279T1500 278T1404 278Q1375 278 1325 277T1256 275Q1241 275 1234
276T1223 281T1218 295ZM1353 393Q1353 382 1388 382H1554Q1577 382 1583 384T1590 395V408Q1590 409 1591 462T1594 581T1596 679Q1596 712 1590 712Q1582 712 1468 562T1353 393ZM402 -147Q402 -116 1337 1273Q1342 1282 1361 1306T1391 1331T1415 1322T1428
1305Q1428 1285 1411 1261Q806 357 514 -104Q478 -160 471 -170T457 -183Q443 -187 436 -187Q424 -187 417 -184T407 -175T403 -163T402 -147ZM82 516Q82 520 83 524T91 533T108 538Q113 538 124 529T150 510T193 491T260 482Q305 482 343 499T406 542T448 602T472
665T480 721Q480 796 439 845T302 895Q291 895 282 894T269 892T263 891Q245 891 245 909Q245 913 247 916T256 923T273 933T302 952T343 982Q378 1008 397 1046T417 1121Q417 1168 386 1201T309 1234Q275 1234 241 1216T183 1181T151 1163Q141 1163 141 1175Q141
1198 175 1234T260 1297T352 1325Q428 1325 482 1288T536 1181Q536 1149 528 1124T499 1075T464 1038T417 998Q395 981 395 975Q395 972 411 970T456 958T512 932Q608 870 608 768Q608 621 512 522T283 423Q211 423 147 453T82 516Z" />
<glyph unicode="&#xbf;" glyph-name="questiondown" horiz-adv-x="716" d="M74 216Q74 271 103 336T175 463T260 586T332 716T362 845Q362 866 357 899T351 940Q351 961 367 961Q397 961 415 903T433 798Q433 737 386 624T292 401T245 238Q245 196 266 162T319
110T380 83T432 73Q459 73 483 86T522 113T544 126Q553 126 557 119T562 106Q562 72 497 27T350 -18Q280 -18 219 7T116 87T74 216ZM222 1234Q222 1249 234 1261T265 1287T292 1307Q300 1315 315 1335T342 1366T367 1378Q380 1378 406 1356T450 1311Q455 1305 486
1280T517 1239Q517 1220 444 1156Q437 1150 420 1130T389 1100T363 1090Q354 1090 339 1105T310 1140T293 1162T272 1179T238 1209T222 1234Z" />
<glyph unicode="&#xc0;" glyph-name="Agrave" horiz-adv-x="1663" d="M605 1842Q605 1869 647 1882T712 1896Q737 1896 754 1857Q800 1747 840 1674T894 1578T909 1546T902 1530T884 1523Q864 1523 804 1587Q605 1798 605 1842ZM40 17Q40 44 72 56Q109 70 131
91T188 169T283 355T436 684Q634 1114 785 1435Q799 1465 810 1473T845 1482Q865 1482 872 1472T897 1409Q940 1283 993 1153Q1059 992 1219 618T1395 214Q1423 157 1457 123T1520 80T1572 66T1609 55T1623 27Q1623 -5 1567 -5Q1545 -5 1479 1T1383 8Q1345 8 1282
5T1191 1Q1127 1 1111 5T1094 28Q1094 43 1110 51T1145 64T1181 83T1197 124Q1197 169 1146 309T1058 514Q1051 526 1047 531T1025 543T975 549Q964 549 885 547T727 545H619Q554 545 525 540T485 525T461 486Q449 460 421 401T382 320T357 261T336 203T330 165Q330
126 345 103T383 73T428 63T465 52T481 27Q481 12 475 5T447 -3Q436 -3 377 -2T277 -1Q233 -1 177 -5T101 -9Q40 -9 40 17ZM555 692Q555 666 573 660T660 653H722L917 655Q997 655 997 689Q997 715 897 941T771 1168Q753 1168 654 942T555 692Z" />
<glyph unicode="&#xc1;" glyph-name="Aacute" horiz-adv-x="1663" d="M751 1536T751 1546T765 1578T820 1673T906 1857Q923 1896 948 1896Q970 1896 1012 1883T1055 1842Q1055 1798 856 1587Q796 1523 776 1523Q766 1523 759 1529ZM40 17Q40 44 72 56Q109 70 131
91T188 169T283 355T436 684Q634 1114 785 1435Q799 1465 810 1473T845 1482Q865 1482 872 1472T897 1409Q940 1283 993 1153Q1059 992 1219 618T1395 214Q1423 157 1457 123T1520 80T1572 66T1609 55T1623 27Q1623 -5 1567 -5Q1545 -5 1479 1T1383 8Q1345 8 1282
5T1191 1Q1127 1 1111 5T1094 28Q1094 43 1110 51T1145 64T1181 83T1197 124Q1197 169 1146 309T1058 514Q1051 526 1047 531T1025 543T975 549Q964 549 885 547T727 545H619Q554 545 525 540T485 525T461 486Q449 460 421 401T382 320T357 261T336 203T330 165Q330
126 345 103T383 73T428 63T465 52T481 27Q481 12 475 5T447 -3Q436 -3 377 -2T277 -1Q233 -1 177 -5T101 -9Q40 -9 40 17ZM555 692Q555 666 573 660T660 653H722L917 655Q997 655 997 689Q997 715 897 941T771 1168Q753 1168 654 942T555 692Z" />
<glyph unicode="&#xc2;" glyph-name="Acircumflex" horiz-adv-x="1663" d="M600 1562Q600 1567 608 1580Q643 1632 672 1677T718 1751T747 1802T766 1836T778 1855T788 1865T800 1867H852Q873 1867 887 1844Q920 1785 965 1717T1036 1610T1062 1563Q1062 1547
1040 1547Q1025 1547 931 1634T830 1721Q817 1721 726 1635T620 1549Q600 1549 600 1562ZM40 17Q40 44 72 56Q109 70 131 91T188 169T283 355T436 684Q634 1114 785 1435Q799 1465 810 1473T845 1482Q865 1482 872 1472T897 1409Q940 1283 993 1153Q1059 992 1219
618T1395 214Q1423 157 1457 123T1520 80T1572 66T1609 55T1623 27Q1623 -5 1567 -5Q1545 -5 1479 1T1383 8Q1345 8 1282 5T1191 1Q1127 1 1111 5T1094 28Q1094 43 1110 51T1145 64T1181 83T1197 124Q1197 169 1146 309T1058 514Q1051 526 1047 531T1025 543T975
549Q964 549 885 547T727 545H619Q554 545 525 540T485 525T461 486Q449 460 421 401T382 320T357 261T336 203T330 165Q330 126 345 103T383 73T428 63T465 52T481 27Q481 12 475 5T447 -3Q436 -3 377 -2T277 -1Q233 -1 177 -5T101 -9Q40 -9 40 17ZM555 692Q555
666 573 660T660 653H722L917 655Q997 655 997 689Q997 715 897 941T771 1168Q753 1168 654 942T555 692Z" />
<glyph unicode="&#xc3;" glyph-name="Atilde" horiz-adv-x="1663" d="M528 1626Q528 1644 557 1695T636 1794T727 1842Q777 1842 855 1793T984 1744Q1014 1744 1041 1773T1085 1830T1109 1859Q1130 1859 1130 1835Q1130 1814 1101 1765T1024 1671T933 1626Q890
1626 845 1650T757 1699T676 1724Q645 1724 618 1695T573 1638T549 1609Q528 1609 528 1626ZM40 17Q40 44 72 56Q109 70 131 91T188 169T283 355T436 684Q634 1114 785 1435Q799 1465 810 1473T845 1482Q865 1482 872 1472T897 1409Q940 1283 993 1153Q1059 992
1219 618T1395 214Q1423 157 1457 123T1520 80T1572 66T1609 55T1623 27Q1623 -5 1567 -5Q1545 -5 1479 1T1383 8Q1345 8 1282 5T1191 1Q1127 1 1111 5T1094 28Q1094 43 1110 51T1145 64T1181 83T1197 124Q1197 169 1146 309T1058 514Q1051 526 1047 531T1025 543T975
549Q964 549 885 547T727 545H619Q554 545 525 540T485 525T461 486Q449 460 421 401T382 320T357 261T336 203T330 165Q330 126 345 103T383 73T428 63T465 52T481 27Q481 12 475 5T447 -3Q436 -3 377 -2T277 -1Q233 -1 177 -5T101 -9Q40 -9 40 17ZM555 692Q555
666 573 660T660 653H722L917 655Q997 655 997 689Q997 715 897 941T771 1168Q753 1168 654 942T555 692Z" />
<glyph unicode="&#xc4;" glyph-name="Adieresis" horiz-adv-x="1663" d="M592 1750Q592 1778 624 1816T689 1855Q723 1855 755 1819T787 1750Q787 1716 751 1679T698 1641Q657 1641 625 1680T592 1750ZM919 1750Q919 1778 951 1816T1016 1855Q1050 1855 1082 1819T1114
1750Q1114 1716 1078 1679T1025 1641Q984 1641 952 1680T919 1750ZM40 17Q40 44 72 56Q109 70 131 91T188 169T283 355T436 684Q634 1114 785 1435Q799 1465 810 1473T845 1482Q865 1482 872 1472T897 1409Q940 1283 993 1153Q1059 992 1219 618T1395 214Q1423
157 1457 123T1520 80T1572 66T1609 55T1623 27Q1623 -5 1567 -5Q1545 -5 1479 1T1383 8Q1345 8 1282 5T1191 1Q1127 1 1111 5T1094 28Q1094 43 1110 51T1145 64T1181 83T1197 124Q1197 169 1146 309T1058 514Q1051 526 1047 531T1025 543T975 549Q964 549 885
547T727 545H619Q554 545 525 540T485 525T461 486Q449 460 421 401T382 320T357 261T336 203T330 165Q330 126 345 103T383 73T428 63T465 52T481 27Q481 12 475 5T447 -3Q436 -3 377 -2T277 -1Q233 -1 177 -5T101 -9Q40 -9 40 17ZM555 692Q555 666 573 660T660
653H722L917 655Q997 655 997 689Q997 715 897 941T771 1168Q753 1168 654 942T555 692Z" />
<glyph unicode="&#xc5;" glyph-name="Aring" horiz-adv-x="1663" d="M674 1750Q674 1804 720 1856T833 1908Q885 1908 921 1878T971 1812T985 1743Q985 1703 966 1671T919 1621T868 1594T832 1584Q793 1584 763 1597T716 1628T690 1671T677 1714T674 1750ZM751
1748Q751 1710 773 1687T831 1664Q838 1664 849 1667T874 1679T898 1704T908 1745Q908 1776 892 1802T831 1828Q802 1828 777 1805T751 1748ZM40 17Q40 44 72 56Q109 70 131 91T188 169T283 355T436 684Q634 1114 785 1435Q799 1465 810 1473T845 1482Q865 1482
872 1472T897 1409Q940 1283 993 1153Q1059 992 1219 618T1395 214Q1423 157 1457 123T1520 80T1572 66T1609 55T1623 27Q1623 -5 1567 -5Q1545 -5 1479 1T1383 8Q1345 8 1282 5T1191 1Q1127 1 1111 5T1094 28Q1094 43 1110 51T1145 64T1181 83T1197 124Q1197 169
1146 309T1058 514Q1051 526 1047 531T1025 543T975 549Q964 549 885 547T727 545H619Q554 545 525 540T485 525T461 486Q449 460 421 401T382 320T357 261T336 203T330 165Q330 126 345 103T383 73T428 63T465 52T481 27Q481 12 475 5T447 -3Q436 -3 377 -2T277
-1Q233 -1 177 -5T101 -9Q40 -9 40 17ZM555 692Q555 666 573 660T660 653H722L917 655Q997 655 997 689Q997 715 897 941T771 1168Q753 1168 654 942T555 692Z" />
<glyph unicode="&#xc6;" glyph-name="AE" horiz-adv-x="2033" d="M40 16Q40 44 74 56Q110 70 132 89T189 161T283 327T436 621Q640 1017 796 1314Q807 1335 807 1353Q807 1382 700 1392Q654 1396 654 1432Q654 1463 715 1463Q729 1463 988 1455T1449 1447Q1493
1447 1662 1450T1859 1454Q1897 1454 1897 1407Q1897 1395 1885 1326T1873 1198Q1873 1180 1863 1167T1841 1153Q1828 1153 1819 1164T1810 1197Q1810 1252 1775 1296T1688 1344Q1516 1357 1406 1357H1354Q1318 1357 1302 1357T1265 1353T1239 1348T1224 1334T1214
1314T1211 1282T1207 1240Q1207 1235 1207 1232Q1203 1155 1200 890Q1200 789 1238 787Q1257 786 1289 786Q1304 786 1331 786T1376 787H1439Q1562 787 1602 795T1676 825Q1698 840 1709 861T1723 898T1731 925T1753 936Q1770 936 1775 929T1780 903Q1780 889 1771
809T1762 688Q1762 650 1765 615T1769 564Q1769 511 1755 511Q1736 511 1724 530T1707 573T1690 623T1659 662Q1616 691 1461 691Q1400 691 1362 691T1313 691T1295 692T1282 692Q1198 692 1198 653Q1198 594 1196 505T1194 358Q1194 344 1194 317T1193 276Q1193
218 1205 170T1242 114Q1293 98 1330 98Q1447 98 1542 106T1697 128T1803 159T1872 195T1912 231T1935 262T1950 284T1968 293Q1993 293 1993 259Q1993 172 1905 81T1750 -11Q1602 -11 1418 0T1188 11Q1130 11 1043 1T908 -9Q894 -9 887 -9T873 -3T866 13Q866 31
866 37T872 47T885 52T912 58T954 76Q988 92 1003 123T1026 233T1034 471Q1034 489 1034 508T1035 529Q1035 536 1033 537T1021 539Q1008 539 949 541T850 543H787Q749 543 698 544T630 545Q574 545 547 539T509 522T486 486Q474 462 452 421T420 359T394 308T371
260T355 221T343 184T340 155Q340 112 362 90T412 66T461 56T484 29Q484 11 476 4T448 -3Q437 -3 377 -2T276 -1Q232 -1 176 -5T100 -9Q40 -9 40 16ZM593 687Q593 664 611 659T696 653H882Q909 653 924 653T957 653T984 655T1003 658T1016 664T1024 671T1030 682T1032
695T1033 713V1232Q1033 1264 1032 1283T1024 1326T1004 1360T967 1371Q938 1371 912 1328Q845 1214 719 961T593 687Z" />
<glyph unicode="&#xc7;" glyph-name="Ccedilla" horiz-adv-x="1653" d="M815 -162Q815 -159 817 -157T824 -150T832 -143T844 -134T857 -125Q860 -123 873 -112T896 -95T918 -90Q924 -90 940 -97T975 -118T1009 -158T1024 -216Q1024 -264 1002 -304T950 -366T895
-400T855 -412Q846 -412 841 -407T835 -398Q835 -391 856 -380T899 -345T921 -284Q921 -253 905 -233T868 -205T832 -186T815 -162ZM90 663Q90 829 140 973T286 1226T531 1399T866 1463Q945 1463 1027 1448T1170 1410T1282 1366T1362 1328T1397 1312Q1404 1312
1417 1322T1439 1333Q1450 1333 1459 1325T1470 1301Q1472 1242 1479 1176T1493 1065T1499 1013Q1499 977 1475 977Q1455 977 1440 1006Q1347 1182 1203 1280T866 1378Q698 1378 566 1305T358 1096T282 786Q282 671 304 568T378 369T507 204T701 94T962 53Q1035
53 1103 73T1223 125T1321 199T1400 280T1459 360Q1468 374 1489 374Q1508 374 1508 347Q1508 330 1503 300T1493 244T1480 186T1470 145Q1465 122 1438 109Q1353 68 1307 48T1191 4T1054 -30T910 -40Q781 -40 670 -18T477 42T328 135T218 251T145 383T103 522T90
663Z" />
<glyph unicode="&#xc8;" glyph-name="Egrave" horiz-adv-x="1237" d="M406 1842Q406 1869 448 1882T513 1896Q538 1896 555 1857Q601 1747 641 1674T695 1578T710 1546T703 1530T685 1523Q665 1523 605 1587Q406 1798 406 1842ZM40 1432Q40 1460 99 1460Q107 1460
125 1459T154 1457Q160 1457 346 1451T653 1445Q697 1445 866 1449T1063 1454Q1101 1454 1101 1407Q1101 1395 1089 1326T1077 1198Q1077 1180 1067 1167T1045 1153Q1032 1153 1023 1164T1014 1197Q1014 1252 979 1296T892 1344Q720 1357 610 1357H558Q522 1357
506 1357T469 1353T443 1348T428 1334T418 1314T415 1282T411 1240Q411 1235 411 1232Q407 1155 404 890Q404 789 442 787Q461 786 493 786Q508 786 535 786T580 787H643Q766 787 806 795T880 825Q916 850 928 901Q931 914 933 919T941 930T957 936Q974 936 979
929T984 903Q984 889 975 809T966 688Q966 650 969 615T973 564Q973 511 959 511Q930 511 914 562Q912 568 908 583T900 607T891 628T879 648T863 662Q820 691 665 691Q604 691 566 691T517 691T499 692T486 692Q402 692 402 653Q402 594 400 505T398 358Q398 344
398 317T397 276Q397 218 409 170T446 114Q497 98 534 98Q651 98 746 106T901 128T1007 159T1076 195T1116 231T1139 262T1154 284T1172 293Q1197 293 1197 259Q1197 172 1109 81T954 -11Q806 -11 622 0T392 11Q334 11 247 1T112 -9Q98 -9 91 -9T77 -3T70 13Q70
31 70 37T76 47T89 52T116 58T158 76Q192 92 207 124T230 235T238 473V727Q238 782 241 899T244 1082Q244 1157 239 1267Q236 1327 188 1359T73 1394Q58 1394 50 1400T41 1413T40 1432Z" />
<glyph unicode="&#xc9;" glyph-name="Eacute" horiz-adv-x="1237" d="M552 1536T552 1546T566 1578T621 1673T707 1857Q724 1896 749 1896Q771 1896 813 1883T856 1842Q856 1798 657 1587Q597 1523 577 1523Q567 1523 560 1529ZM40 1432Q40 1460 99 1460Q107 1460
125 1459T154 1457Q160 1457 346 1451T653 1445Q697 1445 866 1449T1063 1454Q1101 1454 1101 1407Q1101 1395 1089 1326T1077 1198Q1077 1180 1067 1167T1045 1153Q1032 1153 1023 1164T1014 1197Q1014 1252 979 1296T892 1344Q720 1357 610 1357H558Q522 1357
506 1357T469 1353T443 1348T428 1334T418 1314T415 1282T411 1240Q411 1235 411 1232Q407 1155 404 890Q404 789 442 787Q461 786 493 786Q508 786 535 786T580 787H643Q766 787 806 795T880 825Q916 850 928 901Q931 914 933 919T941 930T957 936Q974 936 979
929T984 903Q984 889 975 809T966 688Q966 650 969 615T973 564Q973 511 959 511Q930 511 914 562Q912 568 908 583T900 607T891 628T879 648T863 662Q820 691 665 691Q604 691 566 691T517 691T499 692T486 692Q402 692 402 653Q402 594 400 505T398 358Q398 344
398 317T397 276Q397 218 409 170T446 114Q497 98 534 98Q651 98 746 106T901 128T1007 159T1076 195T1116 231T1139 262T1154 284T1172 293Q1197 293 1197 259Q1197 172 1109 81T954 -11Q806 -11 622 0T392 11Q334 11 247 1T112 -9Q98 -9 91 -9T77 -3T70 13Q70
31 70 37T76 47T89 52T116 58T158 76Q192 92 207 124T230 235T238 473V727Q238 782 241 899T244 1082Q244 1157 239 1267Q236 1327 188 1359T73 1394Q58 1394 50 1400T41 1413T40 1432Z" />
<glyph unicode="&#xca;" glyph-name="Ecircumflex" horiz-adv-x="1237" d="M401 1562Q401 1567 409 1580Q444 1632 473 1677T519 1751T548 1802T567 1836T579 1855T589 1865T601 1867H653Q674 1867 688 1844Q721 1785 766 1717T837 1610T863 1563Q863 1547 841
1547Q826 1547 732 1634T631 1721Q618 1721 527 1635T421 1549Q401 1549 401 1562ZM40 1432Q40 1460 99 1460Q107 1460 125 1459T154 1457Q160 1457 346 1451T653 1445Q697 1445 866 1449T1063 1454Q1101 1454 1101 1407Q1101 1395 1089 1326T1077 1198Q1077 1180
1067 1167T1045 1153Q1032 1153 1023 1164T1014 1197Q1014 1252 979 1296T892 1344Q720 1357 610 1357H558Q522 1357 506 1357T469 1353T443 1348T428 1334T418 1314T415 1282T411 1240Q411 1235 411 1232Q407 1155 404 890Q404 789 442 787Q461 786 493 786Q508
786 535 786T580 787H643Q766 787 806 795T880 825Q916 850 928 901Q931 914 933 919T941 930T957 936Q974 936 979 929T984 903Q984 889 975 809T966 688Q966 650 969 615T973 564Q973 511 959 511Q930 511 914 562Q912 568 908 583T900 607T891 628T879 648T863
662Q820 691 665 691Q604 691 566 691T517 691T499 692T486 692Q402 692 402 653Q402 594 400 505T398 358Q398 344 398 317T397 276Q397 218 409 170T446 114Q497 98 534 98Q651 98 746 106T901 128T1007 159T1076 195T1116 231T1139 262T1154 284T1172 293Q1197
293 1197 259Q1197 172 1109 81T954 -11Q806 -11 622 0T392 11Q334 11 247 1T112 -9Q98 -9 91 -9T77 -3T70 13Q70 31 70 37T76 47T89 52T116 58T158 76Q192 92 207 124T230 235T238 473V727Q238 782 241 899T244 1082Q244 1157 239 1267Q236 1327 188 1359T73 1394Q58
1394 50 1400T41 1413T40 1432Z" />
<glyph unicode="&#xcb;" glyph-name="Edieresis" horiz-adv-x="1237" d="M393 1750Q393 1778 425 1816T490 1855Q524 1855 556 1819T588 1750Q588 1716 552 1679T499 1641Q458 1641 426 1680T393 1750ZM720 1750Q720 1778 752 1816T817 1855Q851 1855 883 1819T915
1750Q915 1716 879 1679T826 1641Q785 1641 753 1680T720 1750ZM40 1432Q40 1460 99 1460Q107 1460 125 1459T154 1457Q160 1457 346 1451T653 1445Q697 1445 866 1449T1063 1454Q1101 1454 1101 1407Q1101 1395 1089 1326T1077 1198Q1077 1180 1067 1167T1045
1153Q1032 1153 1023 1164T1014 1197Q1014 1252 979 1296T892 1344Q720 1357 610 1357H558Q522 1357 506 1357T469 1353T443 1348T428 1334T418 1314T415 1282T411 1240Q411 1235 411 1232Q407 1155 404 890Q404 789 442 787Q461 786 493 786Q508 786 535 786T580
787H643Q766 787 806 795T880 825Q916 850 928 901Q931 914 933 919T941 930T957 936Q974 936 979 929T984 903Q984 889 975 809T966 688Q966 650 969 615T973 564Q973 511 959 511Q930 511 914 562Q912 568 908 583T900 607T891 628T879 648T863 662Q820 691 665
691Q604 691 566 691T517 691T499 692T486 692Q402 692 402 653Q402 594 400 505T398 358Q398 344 398 317T397 276Q397 218 409 170T446 114Q497 98 534 98Q651 98 746 106T901 128T1007 159T1076 195T1116 231T1139 262T1154 284T1172 293Q1197 293 1197 259Q1197
172 1109 81T954 -11Q806 -11 622 0T392 11Q334 11 247 1T112 -9Q98 -9 91 -9T77 -3T70 13Q70 31 70 37T76 47T89 52T116 58T158 76Q192 92 207 124T230 235T238 473V727Q238 782 241 899T244 1082Q244 1157 239 1267Q236 1327 188 1359T73 1394Q58 1394 50 1400T41
1413T40 1432Z" />
<glyph unicode="&#xcc;" glyph-name="Igrave" horiz-adv-x="672" d="M80 1842Q80 1869 122 1882T187 1896Q212 1896 229 1857Q275 1747 315 1674T369 1578T384 1546T377 1530T359 1523Q339 1523 279 1587Q80 1798 80 1842ZM40 1424Q40 1455 98 1455Q120 1455 192
1450T329 1445Q368 1445 404 1447T510 1449Q566 1449 566 1421Q566 1409 546 1398T472 1365Q405 1338 405 1131Q405 853 403 641T400 372Q400 277 411 222T451 125Q495 62 548 62Q552 62 569 61T589 59Q604 59 618 52T632 36Q632 13 621 7T582 0Q522 0 469 4T387
8Q329 8 261 3T161 -2Q122 -2 101 2T75 13T70 29Q70 44 82 50T114 60T155 71T194 100T222 160Q225 174 234 391T243 706V823Q243 850 244 925T245 1044V1139Q245 1236 238 1288Q231 1337 184 1363T83 1392Q40 1394 40 1424Z" />
<glyph unicode="&#xcd;" glyph-name="Iacute" horiz-adv-x="672" d="M226 1536T226 1546T240 1578T295 1673T381 1857Q398 1896 423 1896Q445 1896 487 1883T530 1842Q530 1798 331 1587Q271 1523 251 1523Q241 1523 234 1529ZM40 1424Q40 1455 98 1455Q120 1455
192 1450T329 1445Q368 1445 404 1447T510 1449Q566 1449 566 1421Q566 1409 546 1398T472 1365Q405 1338 405 1131Q405 853 403 641T400 372Q400 277 411 222T451 125Q495 62 548 62Q552 62 569 61T589 59Q604 59 618 52T632 36Q632 13 621 7T582 0Q522 0 469
4T387 8Q329 8 261 3T161 -2Q122 -2 101 2T75 13T70 29Q70 44 82 50T114 60T155 71T194 100T222 160Q225 174 234 391T243 706V823Q243 850 244 925T245 1044V1139Q245 1236 238 1288Q231 1337 184 1363T83 1392Q40 1394 40 1424Z" />
<glyph unicode="&#xce;" glyph-name="Icircumflex" horiz-adv-x="672" d="M75 1562Q75 1567 83 1580Q118 1632 147 1677T193 1751T222 1802T241 1836T253 1855T263 1865T275 1867H327Q348 1867 362 1844Q395 1785 440 1717T511 1610T537 1563Q537 1547 515 1547Q500
1547 406 1634T305 1721Q292 1721 201 1635T95 1549Q75 1549 75 1562ZM40 1424Q40 1455 98 1455Q120 1455 192 1450T329 1445Q368 1445 404 1447T510 1449Q566 1449 566 1421Q566 1409 546 1398T472 1365Q405 1338 405 1131Q405 853 403 641T400 372Q400 277 411
222T451 125Q495 62 548 62Q552 62 569 61T589 59Q604 59 618 52T632 36Q632 13 621 7T582 0Q522 0 469 4T387 8Q329 8 261 3T161 -2Q122 -2 101 2T75 13T70 29Q70 44 82 50T114 60T155 71T194 100T222 160Q225 174 234 391T243 706V823Q243 850 244 925T245 1044V1139Q245
1236 238 1288Q231 1337 184 1363T83 1392Q40 1394 40 1424Z" />
<glyph unicode="&#xcf;" glyph-name="Idieresis" horiz-adv-x="672" d="M67 1750Q67 1778 99 1816T164 1855Q198 1855 230 1819T262 1750Q262 1716 226 1679T173 1641Q132 1641 100 1680T67 1750ZM394 1750Q394 1778 426 1816T491 1855Q525 1855 557 1819T589
1750Q589 1716 553 1679T500 1641Q459 1641 427 1680T394 1750ZM40 1424Q40 1455 98 1455Q120 1455 192 1450T329 1445Q368 1445 404 1447T510 1449Q566 1449 566 1421Q566 1409 546 1398T472 1365Q405 1338 405 1131Q405 853 403 641T400 372Q400 277 411 222T451
125Q495 62 548 62Q552 62 569 61T589 59Q604 59 618 52T632 36Q632 13 621 7T582 0Q522 0 469 4T387 8Q329 8 261 3T161 -2Q122 -2 101 2T75 13T70 29Q70 44 82 50T114 60T155 71T194 100T222 160Q225 174 234 391T243 706V823Q243 850 244 925T245 1044V1139Q245
1236 238 1288Q231 1337 184 1363T83 1392Q40 1394 40 1424Z" />
<glyph unicode="&#xd0;" glyph-name="Eth" horiz-adv-x="1623" d="M40 1433Q40 1451 58 1455T146 1459H323Q374 1459 511 1463T722 1467Q835 1467 948 1441T1166 1359T1353 1226T1483 1038T1532 799Q1532 682 1517 590T1480 435T1416 314T1336 218T1235 129Q1175
79 1059 36T818 -7Q806 -7 609 -1T326 5Q254 5 192 0T120 -6Q91 -6 82 0T72 20Q72 33 78 40T91 51T115 58T143 68Q176 82 203 122T231 201Q231 235 234 664Q234 683 228 689T204 696Q142 697 72 697Q62 697 55 708T47 743Q47 769 53 777T71 785Q99 785 204 786Q224
786 229 793T234 822Q234 878 233 1018T232 1275Q232 1311 198 1346T122 1385Q68 1389 55 1398Q40 1408 40 1433ZM404 289Q404 258 404 238T408 199T415 171T427 150T444 136T469 125T500 116T541 105T590 91Q659 70 740 70H780Q920 70 1018 109T1206 235Q1285
312 1321 441T1358 706Q1358 839 1316 951T1203 1141T1040 1273T851 1353T656 1378Q610 1378 589 1378T537 1375T495 1371T464 1361T441 1346T427 1321T416 1289T412 1245T409 1190T409 1119Q409 1030 407 832Q407 804 414 796T451 787H760Q789 787 795 778T802
740Q802 728 801 722T796 708T782 699T756 696Q713 696 605 695T448 694H428Q412 694 409 690T406 669V659Q406 576 405 447T404 289Z" />
<glyph unicode="&#xd1;" glyph-name="Ntilde" horiz-adv-x="1635" d="M512 1626Q512 1644 541 1695T620 1794T711 1842Q761 1842 839 1793T968 1744Q998 1744 1025 1773T1069 1830T1093 1859Q1114 1859 1114 1835Q1114 1814 1085 1765T1008 1671T917 1626Q874
1626 829 1650T741 1699T660 1724Q629 1724 602 1695T557 1638T533 1609Q512 1609 512 1626ZM40 1416Q40 1428 55 1439T93 1450Q105 1450 133 1449T169 1447Q199 1447 226 1449T271 1452Q289 1452 312 1441T341 1418Q344 1412 363 1391T414 1334T469 1266Q607 1086
839 817T1215 392Q1229 376 1245 358T1269 331T1285 313T1298 301T1307 298Q1328 298 1328 426V665Q1328 803 1327 897T1324 1033T1322 1085V1100Q1322 1169 1313 1219T1291 1295T1256 1339T1217 1362T1171 1373T1127 1384Q1085 1397 1085 1420Q1085 1451 1125
1451Q1138 1451 1223 1450T1319 1448Q1368 1448 1429 1450T1503 1453Q1538 1453 1551 1446T1565 1418Q1565 1410 1554 1403T1531 1391T1506 1382T1492 1377Q1479 1369 1466 1351T1439 1278T1425 1144V1066Q1425 911 1414 528T1402 54Q1402 46 1402 32T1403 12Q1403
-34 1375 -34Q1353 -34 1341 -20Q517 933 438 1017Q394 1064 383 1064Q363 1064 363 925Q363 730 355 506T346 262Q346 198 361 156T398 96T446 69T495 58T532 50T547 27Q547 4 540 -2T515 -9Q500 -9 450 -7T294 -4Q276 -4 219 -6T121 -8Q98 -8 87 -2T76 25Q76
39 87 45T115 55T152 68T192 105T227 180Q240 226 258 559T276 1021Q276 1197 227 1284T68 1384Q40 1387 40 1416Z" />
<glyph unicode="&#xd2;" glyph-name="Ograve" horiz-adv-x="1746" d="M631 1842Q631 1869 673 1882T738 1896Q763 1896 780 1857Q826 1747 866 1674T920 1578T935 1546T928 1530T910 1523Q890 1523 830 1587Q631 1798 631 1842ZM90 695Q90 862 141 1003T289 1251T539
1418T882 1478Q1010 1478 1119 1452T1306 1381T1446 1278T1546 1156T1610 1028T1646 906T1656 802Q1656 633 1616 495T1503 259T1330 96T1109 -1T853 -32Q669 -32 521 29T281 194T139 425T90 695ZM270 799Q270 741 281 676T318 538T380 398T470 268T588 160T738
86T920 58Q990 58 1066 79T1218 146T1354 256T1451 413T1489 615Q1489 766 1454 894T1355 1113T1207 1269T1022 1365T813 1396Q707 1396 612 1361T440 1255T316 1068T270 799Z" />
<glyph unicode="&#xd3;" glyph-name="Oacute" horiz-adv-x="1746" d="M777 1536T777 1546T791 1578T846 1673T932 1857Q949 1896 974 1896Q996 1896 1038 1883T1081 1842Q1081 1798 882 1587Q822 1523 802 1523Q792 1523 785 1529ZM90 695Q90 862 141 1003T289
1251T539 1418T882 1478Q1010 1478 1119 1452T1306 1381T1446 1278T1546 1156T1610 1028T1646 906T1656 802Q1656 633 1616 495T1503 259T1330 96T1109 -1T853 -32Q669 -32 521 29T281 194T139 425T90 695ZM270 799Q270 741 281 676T318 538T380 398T470 268T588
160T738 86T920 58Q990 58 1066 79T1218 146T1354 256T1451 413T1489 615Q1489 766 1454 894T1355 1113T1207 1269T1022 1365T813 1396Q707 1396 612 1361T440 1255T316 1068T270 799Z" />
<glyph unicode="&#xd4;" glyph-name="Ocircumflex" horiz-adv-x="1746" d="M626 1562Q626 1567 634 1580Q669 1632 698 1677T744 1751T773 1802T792 1836T804 1855T814 1865T826 1867H878Q899 1867 913 1844Q946 1785 991 1717T1062 1610T1088 1563Q1088 1547
1066 1547Q1051 1547 957 1634T856 1721Q843 1721 752 1635T646 1549Q626 1549 626 1562ZM90 695Q90 862 141 1003T289 1251T539 1418T882 1478Q1010 1478 1119 1452T1306 1381T1446 1278T1546 1156T1610 1028T1646 906T1656 802Q1656 633 1616 495T1503 259T1330
96T1109 -1T853 -32Q669 -32 521 29T281 194T139 425T90 695ZM270 799Q270 741 281 676T318 538T380 398T470 268T588 160T738 86T920 58Q990 58 1066 79T1218 146T1354 256T1451 413T1489 615Q1489 766 1454 894T1355 1113T1207 1269T1022 1365T813 1396Q707 1396
612 1361T440 1255T316 1068T270 799Z" />
<glyph unicode="&#xd5;" glyph-name="Otilde" horiz-adv-x="1746" d="M554 1626Q554 1644 583 1695T662 1794T753 1842Q803 1842 881 1793T1010 1744Q1040 1744 1067 1773T1111 1830T1135 1859Q1156 1859 1156 1835Q1156 1814 1127 1765T1050 1671T959 1626Q916
1626 871 1650T783 1699T702 1724Q671 1724 644 1695T599 1638T575 1609Q554 1609 554 1626ZM90 695Q90 862 141 1003T289 1251T539 1418T882 1478Q1010 1478 1119 1452T1306 1381T1446 1278T1546 1156T1610 1028T1646 906T1656 802Q1656 633 1616 495T1503 259T1330
96T1109 -1T853 -32Q669 -32 521 29T281 194T139 425T90 695ZM270 799Q270 741 281 676T318 538T380 398T470 268T588 160T738 86T920 58Q990 58 1066 79T1218 146T1354 256T1451 413T1489 615Q1489 766 1454 894T1355 1113T1207 1269T1022 1365T813 1396Q707 1396
612 1361T440 1255T316 1068T270 799Z" />
<glyph unicode="&#xd6;" glyph-name="Odieresis" horiz-adv-x="1746" d="M618 1750Q618 1778 650 1816T715 1855Q749 1855 781 1819T813 1750Q813 1716 777 1679T724 1641Q683 1641 651 1680T618 1750ZM945 1750Q945 1778 977 1816T1042 1855Q1076 1855 1108 1819T1140
1750Q1140 1716 1104 1679T1051 1641Q1010 1641 978 1680T945 1750ZM90 695Q90 862 141 1003T289 1251T539 1418T882 1478Q1010 1478 1119 1452T1306 1381T1446 1278T1546 1156T1610 1028T1646 906T1656 802Q1656 633 1616 495T1503 259T1330 96T1109 -1T853 -32Q669
-32 521 29T281 194T139 425T90 695ZM270 799Q270 741 281 676T318 538T380 398T470 268T588 160T738 86T920 58Q990 58 1066 79T1218 146T1354 256T1451 413T1489 615Q1489 766 1454 894T1355 1113T1207 1269T1022 1365T813 1396Q707 1396 612 1361T440 1255T316
1068T270 799Z" />
<glyph unicode="&#xd7;" glyph-name="multiply" horiz-adv-x="1080" d="M181 734Q181 745 202 765T237 786Q250 786 266 770L503 534Q528 509 543 509Q555 509 566 520L822 776Q835 789 845 789Q856 789 877 769T898 736T879 705L630 456Q615 441 615 430Q615
421 631 405L885 152Q898 139 898 126Q898 114 877 93T844 71Q834 71 818 87L566 339Q551 354 539 354Q528 354 505 331L261 87Q246 72 235 72T203 92T182 125Q182 136 198 152L444 399Q462 417 462 431Q462 443 448 457L194 711Q181 724 181 734Z" />
<glyph unicode="&#xd8;" glyph-name="Oslash" horiz-adv-x="1746" d="M90 695Q90 862 141 1003T289 1251T539 1418T882 1478Q950 1478 1005 1471T1091 1458T1130 1451Q1154 1451 1170 1485L1229 1611Q1230 1613 1233 1620T1237 1630T1243 1639T1250 1647T1259
1652T1271 1655Q1274 1655 1279 1654T1290 1650T1297 1647Q1313 1641 1318 1636T1324 1618Q1324 1611 1320 1600L1258 1464Q1244 1434 1244 1427Q1244 1412 1266 1401Q1373 1351 1453 1271T1575 1105T1636 943T1656 802Q1656 633 1616 495T1503 259T1330 96T1109
-1T853 -32Q785 -32 728 -24T637 -8T597 0Q575 0 561 -30L471 -221Q465 -233 463 -236T455 -243T440 -246Q420 -246 402 -237T383 -210Q383 -197 389 -186L483 15Q487 23 487 29Q487 36 484 40T473 50T454 61T423 78T380 107Q239 208 165 364T90 695ZM270 799Q270
704 295 608T358 440T437 310T509 222T554 192T576 213L1069 1268Q1089 1310 1089 1319Q1089 1351 993 1373T813 1396Q707 1396 612 1361T440 1255T316 1068T270 799ZM644 139Q644 114 736 86T920 58Q990 58 1066 79T1218 146T1354 256T1451 413T1489 615Q1489
717 1472 809T1429 967T1370 1088T1305 1178T1246 1237T1202 1272T1185 1283Q1181 1283 1179 1282T1170 1270T1154 1239T1125 1177T1078 1076Q881 649 657 174Q644 150 644 139Z" />
<glyph unicode="&#xd9;" glyph-name="Ugrave" horiz-adv-x="1669" d="M667 1842Q667 1869 709 1882T774 1896Q799 1896 816 1857Q862 1747 902 1674T956 1578T971 1546T964 1530T946 1523Q926 1523 866 1587Q667 1798 667 1842ZM40 1427Q40 1436 42 1441T55 1450T88
1455T182 1451T319 1446Q360 1446 394 1448T512 1450Q556 1450 556 1422Q556 1407 546 1401T519 1396T484 1389T449 1365T423 1303T412 1188V1131Q412 1035 411 888T410 688Q410 482 431 384Q478 160 667 91Q758 57 885 57Q1043 57 1121 79Q1301 129 1369 327Q1415
459 1415 663Q1415 870 1415 978T1414 1098Q1414 1168 1411 1210T1391 1300T1340 1372Q1320 1386 1287 1391T1233 1400T1213 1418Q1213 1449 1253 1449Q1266 1449 1333 1448T1411 1446Q1460 1446 1516 1449T1585 1452Q1605 1452 1615 1447T1627 1437T1629 1425Q1629
1412 1610 1400T1565 1372T1530 1338Q1516 1312 1512 1287T1508 1203Q1508 1189 1508 1144T1509 1064Q1509 865 1503 721T1479 466T1438 281T1375 154T1290 67T1177 6Q1127 -15 1037 -27T884 -39Q700 -39 588 -8T400 92Q373 117 352 144T313 198T284 262T264 329T250
410T241 497T236 601T235 715T234 848V883Q234 963 236 1059T238 1177Q238 1236 234 1268T214 1327T168 1367T85 1388Q40 1394 40 1427Z" />
<glyph unicode="&#xda;" glyph-name="Uacute" horiz-adv-x="1669" d="M813 1536T813 1546T827 1578T882 1673T968 1857Q985 1896 1010 1896Q1032 1896 1074 1883T1117 1842Q1117 1798 918 1587Q858 1523 838 1523Q828 1523 821 1529ZM40 1427Q40 1436 42 1441T55
1450T88 1455T182 1451T319 1446Q360 1446 394 1448T512 1450Q556 1450 556 1422Q556 1407 546 1401T519 1396T484 1389T449 1365T423 1303T412 1188V1131Q412 1035 411 888T410 688Q410 482 431 384Q478 160 667 91Q758 57 885 57Q1043 57 1121 79Q1301 129 1369
327Q1415 459 1415 663Q1415 870 1415 978T1414 1098Q1414 1168 1411 1210T1391 1300T1340 1372Q1320 1386 1287 1391T1233 1400T1213 1418Q1213 1449 1253 1449Q1266 1449 1333 1448T1411 1446Q1460 1446 1516 1449T1585 1452Q1605 1452 1615 1447T1627 1437T1629
1425Q1629 1412 1610 1400T1565 1372T1530 1338Q1516 1312 1512 1287T1508 1203Q1508 1189 1508 1144T1509 1064Q1509 865 1503 721T1479 466T1438 281T1375 154T1290 67T1177 6Q1127 -15 1037 -27T884 -39Q700 -39 588 -8T400 92Q373 117 352 144T313 198T284
262T264 329T250 410T241 497T236 601T235 715T234 848V883Q234 963 236 1059T238 1177Q238 1236 234 1268T214 1327T168 1367T85 1388Q40 1394 40 1427Z" />
<glyph unicode="&#xdb;" glyph-name="Ucircumflex" horiz-adv-x="1669" d="M662 1562Q662 1567 670 1580Q705 1632 734 1677T780 1751T809 1802T828 1836T840 1855T850 1865T862 1867H914Q935 1867 949 1844Q982 1785 1027 1717T1098 1610T1124 1563Q1124 1547
1102 1547Q1087 1547 993 1634T892 1721Q879 1721 788 1635T682 1549Q662 1549 662 1562ZM40 1427Q40 1436 42 1441T55 1450T88 1455T182 1451T319 1446Q360 1446 394 1448T512 1450Q556 1450 556 1422Q556 1407 546 1401T519 1396T484 1389T449 1365T423 1303T412
1188V1131Q412 1035 411 888T410 688Q410 482 431 384Q478 160 667 91Q758 57 885 57Q1043 57 1121 79Q1301 129 1369 327Q1415 459 1415 663Q1415 870 1415 978T1414 1098Q1414 1168 1411 1210T1391 1300T1340 1372Q1320 1386 1287 1391T1233 1400T1213 1418Q1213
1449 1253 1449Q1266 1449 1333 1448T1411 1446Q1460 1446 1516 1449T1585 1452Q1605 1452 1615 1447T1627 1437T1629 1425Q1629 1412 1610 1400T1565 1372T1530 1338Q1516 1312 1512 1287T1508 1203Q1508 1189 1508 1144T1509 1064Q1509 865 1503 721T1479 466T1438
281T1375 154T1290 67T1177 6Q1127 -15 1037 -27T884 -39Q700 -39 588 -8T400 92Q373 117 352 144T313 198T284 262T264 329T250 410T241 497T236 601T235 715T234 848V883Q234 963 236 1059T238 1177Q238 1236 234 1268T214 1327T168 1367T85 1388Q40 1394 40
1427Z" />
<glyph unicode="&#xdc;" glyph-name="Udieresis" horiz-adv-x="1669" d="M654 1750Q654 1778 686 1816T751 1855Q785 1855 817 1819T849 1750Q849 1716 813 1679T760 1641Q719 1641 687 1680T654 1750ZM981 1750Q981 1778 1013 1816T1078 1855Q1112 1855 1144
1819T1176 1750Q1176 1716 1140 1679T1087 1641Q1046 1641 1014 1680T981 1750ZM40 1427Q40 1436 42 1441T55 1450T88 1455T182 1451T319 1446Q360 1446 394 1448T512 1450Q556 1450 556 1422Q556 1407 546 1401T519 1396T484 1389T449 1365T423 1303T412 1188V1131Q412
1035 411 888T410 688Q410 482 431 384Q478 160 667 91Q758 57 885 57Q1043 57 1121 79Q1301 129 1369 327Q1415 459 1415 663Q1415 870 1415 978T1414 1098Q1414 1168 1411 1210T1391 1300T1340 1372Q1320 1386 1287 1391T1233 1400T1213 1418Q1213 1449 1253
1449Q1266 1449 1333 1448T1411 1446Q1460 1446 1516 1449T1585 1452Q1605 1452 1615 1447T1627 1437T1629 1425Q1629 1412 1610 1400T1565 1372T1530 1338Q1516 1312 1512 1287T1508 1203Q1508 1189 1508 1144T1509 1064Q1509 865 1503 721T1479 466T1438 281T1375
154T1290 67T1177 6Q1127 -15 1037 -27T884 -39Q700 -39 588 -8T400 92Q373 117 352 144T313 198T284 262T264 329T250 410T241 497T236 601T235 715T234 848V883Q234 963 236 1059T238 1177Q238 1236 234 1268T214 1327T168 1367T85 1388Q40 1394 40 1427Z" />
<glyph unicode="&#xdd;" glyph-name="Yacute" horiz-adv-x="1458" d="M687 1536T687 1546T701 1578T756 1673T842 1857Q859 1896 884 1896Q906 1896 948 1883T991 1842Q991 1798 792 1587Q732 1523 712 1523Q702 1523 695 1529ZM40 1410Q40 1432 64 1438T167 1444Q180
1444 224 1442T286 1440Q308 1440 369 1441T460 1442Q564 1442 564 1418Q564 1404 551 1395T521 1381T491 1367T477 1345Q477 1327 484 1306T505 1259T531 1215T562 1169T587 1132Q656 1023 731 923T817 822Q830 822 847 844T899 924T954 1011Q962 1022 978 1046T1003
1084T1026 1119T1049 1155T1069 1188T1086 1220T1099 1248T1108 1274T1111 1294Q1111 1335 1087 1355T1035 1376T982 1387T958 1419Q958 1443 1015 1443Q1025 1443 1053 1442T1099 1441Q1147 1441 1213 1440T1317 1439Q1369 1439 1393 1434T1418 1409Q1418 1400
1406 1394T1371 1378T1330 1353Q1267 1304 1190 1198T1029 959T898 768Q866 727 857 678T848 510Q848 484 848 396T849 272V224Q849 172 861 137T894 88T930 68T959 63Q962 63 979 62T1000 61Q1014 61 1022 52T1030 33Q1030 13 1020 7T980 0Q970 0 891 1T776 2Q703
2 645 -2T551 -7Q494 -7 494 16Q494 35 504 42T542 51T582 58Q668 84 668 182Q668 196 668 216T670 265T671 381T672 597Q672 630 667 654T655 700T620 765T566 848T475 982T351 1167Q303 1240 264 1286T192 1352T140 1377T92 1383Q40 1383 40 1410Z" />
<glyph unicode="&#xde;" glyph-name="Thorn" horiz-adv-x="1163" d="M40 1424Q40 1455 98 1455Q120 1455 192 1450T329 1445Q368 1445 404 1447T510 1449Q566 1449 566 1421Q566 1409 546 1398T472 1365Q439 1352 423 1291T406 1171Q406 1156 409 1152T428 1148Q443
1148 514 1152T632 1157Q722 1157 804 1134T954 1065T1062 946T1103 779Q1103 706 1084 644T1033 540T961 463T877 409T792 376T715 358T656 353Q591 353 523 369T455 401Q455 432 482 432Q494 432 525 424T586 415Q623 415 664 422T754 450T840 501T903 584T929
702Q929 764 903 828T827 948T695 1039T512 1075Q467 1075 446 1059T414 996T404 856L403 505Q400 505 400 362V320Q400 242 414 189T450 113T500 78T554 67T603 66T640 56T654 25Q654 -9 608 -9Q561 -9 443 -5T315 0Q294 0 234 -4T123 -8Q60 -8 60 16Q60 30 63
38T74 52T90 59T113 64T139 69Q141 69 145 70Q154 72 160 74T177 87T195 117T212 174T226 264T236 397T240 582Q240 740 241 835T242 953T244 996T245 1044V1139Q245 1236 238 1288Q231 1337 184 1363T83 1392Q40 1394 40 1424Z" />
<glyph unicode="&#xdf;" glyph-name="germandbls" horiz-adv-x="1079" d="M40 16Q40 29 51 34T79 44T113 56T141 88T153 153Q153 168 153 239T154 446T154 751Q154 754 121 780T87 818Q87 832 97 838T120 846T143 851T154 866Q154 1037 204 1176T349 1396T563
1478Q598 1478 631 1473T703 1451T768 1408T814 1336T833 1228Q833 1160 808 1099T746 993T673 909T611 829T585 752Q585 709 616 669T693 598T794 529T894 454T972 362T1003 244Q1003 218 998 188T976 117T932 46T857 -6T745 -28Q708 -28 671 -21T613 -7T567 11T536
23Q529 25 517 29T500 34T487 39T476 46T469 56T464 70T463 89V267Q463 289 472 304T493 319Q509 319 517 312T528 295T536 266T546 232Q547 230 553 212T564 184T577 155T594 123T613 93T638 65T667 43T701 27T741 22Q798 22 845 62T893 182Q893 234 850 281T746
368T623 450T518 552T475 682Q475 732 499 782T557 876T625 969T683 1082T707 1221Q707 1321 661 1375T546 1429Q512 1429 482 1418T416 1372T356 1279T315 1121T298 886Q298 877 300 825T303 759L298 614Q292 469 292 344Q292 310 292 263T293 201Q293 119 309
87T370 44Q416 32 416 9Q416 3 404 -3T376 -10Q375 -10 352 -8T298 -4T245 -2Q208 -2 142 -5T73 -8Q40 -8 40 16Z" />
<glyph unicode="&#xe0;" glyph-name="agrave" horiz-adv-x="945" d="M229 1302Q229 1329 271 1342T336 1356Q361 1356 378 1317Q424 1207 464 1134T518 1038T533 1006T526 990T508 983Q488 983 428 1047Q229 1258 229 1302ZM98 175Q98 225 112 263T154 328T218
374T303 406T401 430T511 451Q550 457 570 461Q584 464 589 465T600 474T605 494Q605 511 607 547T609 601Q609 663 587 709T530 779T466 812T409 822Q263 822 263 699Q263 682 267 657T271 625Q271 583 234 583Q221 583 203 586T162 597T123 622T107 664Q107 744
213 816T450 888Q513 888 563 877T645 851T700 811T734 765T750 715T757 670T758 631Q758 483 753 397T748 249Q748 185 759 144T788 87T825 64T863 56T891 50T903 26Q903 -16 775 -16Q742 -16 714 -5T669 23T639 57T619 85T610 97T593 84T553 52T497 14T424 -18T340
-31Q271 -31 228 -18T150 31Q98 84 98 175ZM259 204Q259 134 299 93T415 51Q454 51 485 59T535 80T569 112T590 148T600 189T604 227T605 260V408Q605 425 590 425Q587 425 584 425T577 423T570 422Q537 416 524 414T479 405T431 393T387 378T345 358T311 331T283
297T266 255T259 204Z" />
<glyph unicode="&#xe1;" glyph-name="aacute" horiz-adv-x="945" d="M375 996T375 1006T389 1038T444 1133T530 1317Q547 1356 572 1356Q594 1356 636 1343T679 1302Q679 1258 480 1047Q420 983 400 983Q390 983 383 989ZM98 175Q98 225 112 263T154 328T218 374T303
406T401 430T511 451Q550 457 570 461Q584 464 589 465T600 474T605 494Q605 511 607 547T609 601Q609 663 587 709T530 779T466 812T409 822Q263 822 263 699Q263 682 267 657T271 625Q271 583 234 583Q221 583 203 586T162 597T123 622T107 664Q107 744 213 816T450
888Q513 888 563 877T645 851T700 811T734 765T750 715T757 670T758 631Q758 483 753 397T748 249Q748 185 759 144T788 87T825 64T863 56T891 50T903 26Q903 -16 775 -16Q742 -16 714 -5T669 23T639 57T619 85T610 97T593 84T553 52T497 14T424 -18T340 -31Q271
-31 228 -18T150 31Q98 84 98 175ZM259 204Q259 134 299 93T415 51Q454 51 485 59T535 80T569 112T590 148T600 189T604 227T605 260V408Q605 425 590 425Q587 425 584 425T577 423T570 422Q537 416 524 414T479 405T431 393T387 378T345 358T311 331T283 297T266
255T259 204Z" />
<glyph unicode="&#xe2;" glyph-name="acircumflex" horiz-adv-x="945" d="M224 1022Q224 1027 232 1040Q267 1092 296 1137T342 1211T371 1262T390 1296T402 1315T412 1325T424 1327H476Q497 1327 511 1304Q544 1245 589 1177T660 1070T686 1023Q686 1007 664
1007Q649 1007 555 1094T454 1181Q441 1181 350 1095T244 1009Q224 1009 224 1022ZM98 175Q98 225 112 263T154 328T218 374T303 406T401 430T511 451Q550 457 570 461Q584 464 589 465T600 474T605 494Q605 511 607 547T609 601Q609 663 587 709T530 779T466 812T409
822Q263 822 263 699Q263 682 267 657T271 625Q271 583 234 583Q221 583 203 586T162 597T123 622T107 664Q107 744 213 816T450 888Q513 888 563 877T645 851T700 811T734 765T750 715T757 670T758 631Q758 483 753 397T748 249Q748 185 759 144T788 87T825 64T863
56T891 50T903 26Q903 -16 775 -16Q742 -16 714 -5T669 23T639 57T619 85T610 97T593 84T553 52T497 14T424 -18T340 -31Q271 -31 228 -18T150 31Q98 84 98 175ZM259 204Q259 134 299 93T415 51Q454 51 485 59T535 80T569 112T590 148T600 189T604 227T605 260V408Q605
425 590 425Q587 425 584 425T577 423T570 422Q537 416 524 414T479 405T431 393T387 378T345 358T311 331T283 297T266 255T259 204Z" />
<glyph unicode="&#xe3;" glyph-name="atilde" horiz-adv-x="945" d="M152 1086Q152 1104 181 1155T260 1254T351 1302Q401 1302 479 1253T608 1204Q638 1204 665 1233T709 1290T733 1319Q754 1319 754 1295Q754 1274 725 1225T648 1131T557 1086Q514 1086 469
1110T381 1159T300 1184Q269 1184 242 1155T197 1098T173 1069Q152 1069 152 1086ZM98 175Q98 225 112 263T154 328T218 374T303 406T401 430T511 451Q550 457 570 461Q584 464 589 465T600 474T605 494Q605 511 607 547T609 601Q609 663 587 709T530 779T466 812T409
822Q263 822 263 699Q263 682 267 657T271 625Q271 583 234 583Q221 583 203 586T162 597T123 622T107 664Q107 744 213 816T450 888Q513 888 563 877T645 851T700 811T734 765T750 715T757 670T758 631Q758 483 753 397T748 249Q748 185 759 144T788 87T825 64T863
56T891 50T903 26Q903 -16 775 -16Q742 -16 714 -5T669 23T639 57T619 85T610 97T593 84T553 52T497 14T424 -18T340 -31Q271 -31 228 -18T150 31Q98 84 98 175ZM259 204Q259 134 299 93T415 51Q454 51 485 59T535 80T569 112T590 148T600 189T604 227T605 260V408Q605
425 590 425Q587 425 584 425T577 423T570 422Q537 416 524 414T479 405T431 393T387 378T345 358T311 331T283 297T266 255T259 204Z" />
<glyph unicode="&#xe4;" glyph-name="adieresis" horiz-adv-x="945" d="M216 1210Q216 1238 248 1276T313 1315Q347 1315 379 1279T411 1210Q411 1176 375 1139T322 1101Q281 1101 249 1140T216 1210ZM543 1210Q543 1238 575 1276T640 1315Q674 1315 706 1279T738
1210Q738 1176 702 1139T649 1101Q608 1101 576 1140T543 1210ZM98 175Q98 225 112 263T154 328T218 374T303 406T401 430T511 451Q550 457 570 461Q584 464 589 465T600 474T605 494Q605 511 607 547T609 601Q609 663 587 709T530 779T466 812T409 822Q263 822
263 699Q263 682 267 657T271 625Q271 583 234 583Q221 583 203 586T162 597T123 622T107 664Q107 744 213 816T450 888Q513 888 563 877T645 851T700 811T734 765T750 715T757 670T758 631Q758 483 753 397T748 249Q748 185 759 144T788 87T825 64T863 56T891
50T903 26Q903 -16 775 -16Q742 -16 714 -5T669 23T639 57T619 85T610 97T593 84T553 52T497 14T424 -18T340 -31Q271 -31 228 -18T150 31Q98 84 98 175ZM259 204Q259 134 299 93T415 51Q454 51 485 59T535 80T569 112T590 148T600 189T604 227T605 260V408Q605
425 590 425Q587 425 584 425T577 423T570 422Q537 416 524 414T479 405T431 393T387 378T345 358T311 331T283 297T266 255T259 204Z" />
<glyph unicode="&#xe5;" glyph-name="aring" horiz-adv-x="945" d="M298 1210Q298 1264 344 1316T457 1368Q509 1368 545 1338T595 1272T609 1203Q609 1163 590 1131T543 1081T492 1054T456 1044Q417 1044 387 1057T340 1088T314 1131T301 1174T298 1210ZM375
1208Q375 1170 397 1147T455 1124Q462 1124 473 1127T498 1139T522 1164T532 1205Q532 1236 516 1262T455 1288Q426 1288 401 1265T375 1208ZM98 175Q98 225 112 263T154 328T218 374T303 406T401 430T511 451Q550 457 570 461Q584 464 589 465T600 474T605 494Q605
511 607 547T609 601Q609 663 587 709T530 779T466 812T409 822Q263 822 263 699Q263 682 267 657T271 625Q271 583 234 583Q221 583 203 586T162 597T123 622T107 664Q107 744 213 816T450 888Q513 888 563 877T645 851T700 811T734 765T750 715T757 670T758 631Q758
483 753 397T748 249Q748 185 759 144T788 87T825 64T863 56T891 50T903 26Q903 -16 775 -16Q742 -16 714 -5T669 23T639 57T619 85T610 97T593 84T553 52T497 14T424 -18T340 -31Q271 -31 228 -18T150 31Q98 84 98 175ZM259 204Q259 134 299 93T415 51Q454 51
485 59T535 80T569 112T590 148T600 189T604 227T605 260V408Q605 425 590 425Q587 425 584 425T577 423T570 422Q537 416 524 414T479 405T431 393T387 378T345 358T311 331T283 297T266 255T259 204Z" />
<glyph unicode="&#xe6;" glyph-name="ae" horiz-adv-x="1480" d="M98 175Q98 312 218 374Q291 412 475 444Q486 446 509 450Q553 458 576 462Q589 465 593 467T603 482T608 522T609 601Q609 663 587 709T531 778T466 811T409 822Q263 822 263 699Q263 682 267
657T271 625Q271 583 234 583Q221 583 203 586T162 597T123 622T107 664Q107 744 213 816T450 888Q521 888 574 876T656 846T701 810T726 780T738 767Q741 767 754 779T790 808T844 843T922 873T1021 885Q1108 885 1178 854T1287 779T1353 687T1389 605T1398 559Q1398
538 1379 530T1315 522H850Q833 522 813 522T788 523Q772 523 769 519T766 499Q766 401 796 321T875 191T985 114T1111 87Q1161 87 1209 101T1288 132T1344 164T1381 178Q1389 178 1394 172T1400 159Q1400 151 1386 130T1341 80T1270 25T1168 -19T1038 -38Q963
-38 899 -20T795 25T727 78T685 123T670 142Q668 142 655 124T617 81T557 30T465 -13T340 -31Q271 -31 228 -18T150 31Q98 84 98 175ZM259 204Q259 134 299 93T415 51Q454 51 485 59T535 80T569 112T590 148T600 189T604 227T605 260V408Q605 426 595 426Q592 426
560 421T475 404T389 379Q259 326 259 204ZM778 601Q778 585 783 578T805 571Q860 571 1008 577T1165 584Q1193 584 1200 589T1208 608Q1208 626 1201 652T1177 710T1135 769T1072 814T987 833Q935 833 893 807T827 743T791 668T778 601Z" />
<glyph unicode="&#xe7;" glyph-name="ccedilla" horiz-adv-x="925" d="M415 -162Q415 -159 417 -157T424 -150T432 -143T444 -134T457 -125Q460 -123 473 -112T496 -95T518 -90Q524 -90 540 -97T575 -118T609 -158T624 -216Q624 -264 602 -304T550 -366T495 -400T455
-412Q446 -412 441 -407T435 -398Q435 -391 456 -380T499 -345T521 -284Q521 -253 505 -233T468 -205T432 -186T415 -162ZM80 394Q80 520 137 629T305 808T556 878Q628 878 709 859T794 812Q799 750 799 714Q799 624 777 624Q765 624 756 634T734 661T708 690Q661
729 585 764T437 799Q422 799 400 792T348 761T293 702T251 602T233 458Q233 300 335 182T584 64Q640 64 691 80T771 117T823 153T855 170Q864 170 870 164T876 149Q876 142 864 122T821 74T750 20T644 -24T504 -43Q312 -43 196 73T80 394Z" />
<glyph unicode="&#xe8;" glyph-name="egrave" horiz-adv-x="954" d="M251 1302Q251 1329 293 1342T358 1356Q383 1356 400 1317Q446 1207 486 1134T540 1038T555 1006T548 990T530 983Q510 983 450 1047Q251 1258 251 1302ZM80 398Q80 531 131 641T278 818T495
885Q582 885 652 854T761 779T827 687T863 605T872 559Q872 538 853 530T789 522H324Q307 522 287 522T262 523Q246 523 243 519T240 499Q240 401 270 321T349 191T459 114T585 87Q635 87 683 101T762 132T818 164T855 178Q863 178 868 172T874 159Q874 151 860
130T815 80T744 25T642 -19T512 -38Q427 -38 352 -12T215 65T117 202T80 398ZM252 601Q252 585 257 578T279 571Q334 571 482 577T639 584Q667 584 674 589T682 608Q682 626 675 652T651 710T609 769T546 814T461 833Q409 833 367 807T301 743T265 668T252 601Z"
/>
<glyph unicode="&#xe9;" glyph-name="eacute" horiz-adv-x="954" d="M397 996T397 1006T411 1038T466 1133T552 1317Q569 1356 594 1356Q616 1356 658 1343T701 1302Q701 1258 502 1047Q442 983 422 983Q412 983 405 989ZM80 398Q80 531 131 641T278 818T495 885Q582
885 652 854T761 779T827 687T863 605T872 559Q872 538 853 530T789 522H324Q307 522 287 522T262 523Q246 523 243 519T240 499Q240 401 270 321T349 191T459 114T585 87Q635 87 683 101T762 132T818 164T855 178Q863 178 868 172T874 159Q874 151 860 130T815
80T744 25T642 -19T512 -38Q427 -38 352 -12T215 65T117 202T80 398ZM252 601Q252 585 257 578T279 571Q334 571 482 577T639 584Q667 584 674 589T682 608Q682 626 675 652T651 710T609 769T546 814T461 833Q409 833 367 807T301 743T265 668T252 601Z" />
<glyph unicode="&#xea;" glyph-name="ecircumflex" horiz-adv-x="954" d="M246 1022Q246 1027 254 1040Q289 1092 318 1137T364 1211T393 1262T412 1296T424 1315T434 1325T446 1327H498Q519 1327 533 1304Q566 1245 611 1177T682 1070T708 1023Q708 1007 686
1007Q671 1007 577 1094T476 1181Q463 1181 372 1095T266 1009Q246 1009 246 1022ZM80 398Q80 531 131 641T278 818T495 885Q582 885 652 854T761 779T827 687T863 605T872 559Q872 538 853 530T789 522H324Q307 522 287 522T262 523Q246 523 243 519T240 499Q240
401 270 321T349 191T459 114T585 87Q635 87 683 101T762 132T818 164T855 178Q863 178 868 172T874 159Q874 151 860 130T815 80T744 25T642 -19T512 -38Q427 -38 352 -12T215 65T117 202T80 398ZM252 601Q252 585 257 578T279 571Q334 571 482 577T639 584Q667
584 674 589T682 608Q682 626 675 652T651 710T609 769T546 814T461 833Q409 833 367 807T301 743T265 668T252 601Z" />
<glyph unicode="&#xeb;" glyph-name="edieresis" horiz-adv-x="954" d="M238 1210Q238 1238 270 1276T335 1315Q369 1315 401 1279T433 1210Q433 1176 397 1139T344 1101Q303 1101 271 1140T238 1210ZM565 1210Q565 1238 597 1276T662 1315Q696 1315 728 1279T760
1210Q760 1176 724 1139T671 1101Q630 1101 598 1140T565 1210ZM80 398Q80 531 131 641T278 818T495 885Q582 885 652 854T761 779T827 687T863 605T872 559Q872 538 853 530T789 522H324Q307 522 287 522T262 523Q246 523 243 519T240 499Q240 401 270 321T349
191T459 114T585 87Q635 87 683 101T762 132T818 164T855 178Q863 178 868 172T874 159Q874 151 860 130T815 80T744 25T642 -19T512 -38Q427 -38 352 -12T215 65T117 202T80 398ZM252 601Q252 585 257 578T279 571Q334 571 482 577T639 584Q667 584 674 589T682
608Q682 626 675 652T651 710T609 769T546 814T461 833Q409 833 367 807T301 743T265 668T252 601Z" />
<glyph unicode="&#xec;" glyph-name="igrave" horiz-adv-x="581" d="M28 1302Q28 1329 70 1342T135 1356Q160 1356 177 1317Q223 1207 263 1134T317 1038T332 1006T325 990T307 983Q287 983 227 1047Q28 1258 28 1302ZM73 781Q73 790 78 796T99 809T130 821T178
838T239 862Q261 871 280 880T307 893T322 898T343 900Q354 900 363 891T372 861Q372 850 367 816T361 762V200Q361 148 374 115T406 71T449 54T491 49T524 43T537 20Q537 -14 502 -14Q498 -14 488 -14T472 -13Q427 -13 396 -11T326 -8Q277 -8 235 -10T181 -13Q98
-13 98 15Q98 26 106 38T129 54Q172 68 182 78Q205 100 210 197Q213 256 213 421V603Q213 651 206 682T184 727T156 746T123 754T94 760Q73 768 73 781Z" />
<glyph unicode="&#xed;" glyph-name="iacute" horiz-adv-x="581" d="M174 996T174 1006T188 1038T243 1133T329 1317Q346 1356 371 1356Q393 1356 435 1343T478 1302Q478 1258 279 1047Q219 983 199 983Q189 983 182 989ZM73 781Q73 790 78 796T99 809T130 821T178
838T239 862Q261 871 280 880T307 893T322 898T343 900Q354 900 363 891T372 861Q372 850 367 816T361 762V200Q361 148 374 115T406 71T449 54T491 49T524 43T537 20Q537 -14 502 -14Q498 -14 488 -14T472 -13Q427 -13 396 -11T326 -8Q277 -8 235 -10T181 -13Q98
-13 98 15Q98 26 106 38T129 54Q172 68 182 78Q205 100 210 197Q213 256 213 421V603Q213 651 206 682T184 727T156 746T123 754T94 760Q73 768 73 781Z" />
<glyph unicode="&#xee;" glyph-name="icircumflex" horiz-adv-x="581" d="M23 1022Q23 1027 31 1040Q66 1092 95 1137T141 1211T170 1262T189 1296T201 1315T211 1325T223 1327H275Q296 1327 310 1304Q343 1245 388 1177T459 1070T485 1023Q485 1007 463 1007Q448
1007 354 1094T253 1181Q240 1181 149 1095T43 1009Q23 1009 23 1022ZM73 781Q73 790 78 796T99 809T130 821T178 838T239 862Q261 871 280 880T307 893T322 898T343 900Q354 900 363 891T372 861Q372 850 367 816T361 762V200Q361 148 374 115T406 71T449 54T491
49T524 43T537 20Q537 -14 502 -14Q498 -14 488 -14T472 -13Q427 -13 396 -11T326 -8Q277 -8 235 -10T181 -13Q98 -13 98 15Q98 26 106 38T129 54Q172 68 182 78Q205 100 210 197Q213 256 213 421V603Q213 651 206 682T184 727T156 746T123 754T94 760Q73 768 73
781Z" />
<glyph unicode="&#xef;" glyph-name="idieresis" horiz-adv-x="581" d="M15 1210Q15 1238 47 1276T112 1315Q146 1315 178 1279T210 1210Q210 1176 174 1139T121 1101Q80 1101 48 1140T15 1210ZM342 1210Q342 1238 374 1276T439 1315Q473 1315 505 1279T537 1210Q537
1176 501 1139T448 1101Q407 1101 375 1140T342 1210ZM73 781Q73 790 78 796T99 809T130 821T178 838T239 862Q261 871 280 880T307 893T322 898T343 900Q354 900 363 891T372 861Q372 850 367 816T361 762V200Q361 148 374 115T406 71T449 54T491 49T524 43T537
20Q537 -14 502 -14Q498 -14 488 -14T472 -13Q427 -13 396 -11T326 -8Q277 -8 235 -10T181 -13Q98 -13 98 15Q98 26 106 38T129 54Q172 68 182 78Q205 100 210 197Q213 256 213 421V603Q213 651 206 682T184 727T156 746T123 754T94 760Q73 768 73 781Z" />
<glyph unicode="&#xf0;" glyph-name="eth" horiz-adv-x="1121" d="M80 415Q80 504 111 586T200 735T352 842T563 882Q641 882 729 833Q749 822 773 801T814 765T837 750Q846 750 846 757Q846 780 816 851T742 994Q697 1070 655 1127T601 1184Q595 1184 574 1176L282
1058Q276 1056 273 1056Q255 1056 243 1077T230 1116Q230 1131 248 1139L521 1249Q538 1256 538 1263Q538 1267 521 1286Q468 1345 415 1389T326 1453T260 1486T216 1506T201 1522Q201 1546 250 1546H299Q358 1546 452 1494T644 1347Q674 1317 685 1317Q693 1317
712 1325L963 1426Q986 1435 997 1435Q1015 1435 1024 1412T1034 1377Q1034 1357 993 1340L778 1254Q750 1243 750 1237Q750 1236 780 1200T853 1098T938 944T1011 731T1041 470Q1041 242 901 103T548 -37Q435 -37 344 1T196 104T110 248T80 415ZM241 486Q241 379
274 289T360 143T478 56T610 25Q727 25 809 113T891 367Q891 534 844 630Q829 661 782 705T702 771Q616 827 515 827Q467 827 422 809T334 752T267 645T241 486Z" />
<glyph unicode="&#xf1;" glyph-name="ntilde" horiz-adv-x="1210" d="M318 1086Q318 1104 347 1155T426 1254T517 1302Q567 1302 645 1253T774 1204Q804 1204 831 1233T875 1290T899 1319Q920 1319 920 1295Q920 1274 891 1225T814 1131T723 1086Q680 1086 635
1110T547 1159T466 1184Q435 1184 408 1155T363 1098T339 1069Q318 1069 318 1086ZM63 798Q63 810 76 816T120 827T164 836Q202 846 244 863T312 893T346 905H350Q369 905 369 881Q369 876 367 844T364 793Q364 739 375 739Q380 739 388 750T419 783T472 824Q565
880 650 880Q733 880 797 855T899 791T960 705T993 615T1001 537Q1001 528 1001 517T1002 489T1003 408T1004 244V198Q1004 121 1024 92T1128 50Q1153 46 1161 39T1169 19Q1169 -3 1128 -3Q1081 -3 1030 3T961 9Q932 9 872 5T803 0Q762 0 762 26Q762 36 769 42T785
51T803 55T814 57Q858 71 858 194V472Q858 630 780 710T593 790Q505 790 440 744T364 666Q357 647 352 528T347 342V264Q347 223 348 197T357 143T376 99T409 72T462 58Q547 51 547 27Q547 0 507 0Q472 0 440 4T359 8Q306 8 219 4T130 0Q99 0 99 20Q99 37 109 41T134
48T164 61T192 111T206 218Q210 332 210 370V666Q210 732 188 754T123 776H103Q63 776 63 798Z" />
<glyph unicode="&#xf2;" glyph-name="ograve" horiz-adv-x="1121" d="M319 1302Q319 1329 361 1342T426 1356Q451 1356 468 1317Q514 1207 554 1134T608 1038T623 1006T616 990T598 983Q578 983 518 1047Q319 1258 319 1302ZM80 415Q80 504 111 586T200 735T352
842T563 882Q655 882 739 853T892 768T1000 625T1041 429Q1041 318 999 227T886 80T729 -7T548 -37Q435 -37 344 1T196 104T110 248T80 415ZM241 486Q241 379 274 289T360 143T478 56T610 25Q727 25 806 113T886 367Q886 451 863 531T795 678T678 786T515 827Q467
827 422 809T334 752T267 645T241 486Z" />
<glyph unicode="&#xf3;" glyph-name="oacute" horiz-adv-x="1121" d="M465 996T465 1006T479 1038T534 1133T620 1317Q637 1356 662 1356Q684 1356 726 1343T769 1302Q769 1258 570 1047Q510 983 490 983Q480 983 473 989ZM80 415Q80 504 111 586T200 735T352
842T563 882Q655 882 739 853T892 768T1000 625T1041 429Q1041 318 999 227T886 80T729 -7T548 -37Q435 -37 344 1T196 104T110 248T80 415ZM241 486Q241 379 274 289T360 143T478 56T610 25Q727 25 806 113T886 367Q886 451 863 531T795 678T678 786T515 827Q467
827 422 809T334 752T267 645T241 486Z" />
<glyph unicode="&#xf4;" glyph-name="ocircumflex" horiz-adv-x="1121" d="M314 1022Q314 1027 322 1040Q357 1092 386 1137T432 1211T461 1262T480 1296T492 1315T502 1325T514 1327H566Q587 1327 601 1304Q634 1245 679 1177T750 1070T776 1023Q776 1007 754
1007Q739 1007 645 1094T544 1181Q531 1181 440 1095T334 1009Q314 1009 314 1022ZM80 415Q80 504 111 586T200 735T352 842T563 882Q655 882 739 853T892 768T1000 625T1041 429Q1041 318 999 227T886 80T729 -7T548 -37Q435 -37 344 1T196 104T110 248T80 415ZM241
486Q241 379 274 289T360 143T478 56T610 25Q727 25 806 113T886 367Q886 451 863 531T795 678T678 786T515 827Q467 827 422 809T334 752T267 645T241 486Z" />
<glyph unicode="&#xf5;" glyph-name="otilde" horiz-adv-x="1121" d="M242 1086Q242 1104 271 1155T350 1254T441 1302Q491 1302 569 1253T698 1204Q728 1204 755 1233T799 1290T823 1319Q844 1319 844 1295Q844 1274 815 1225T738 1131T647 1086Q604 1086 559
1110T471 1159T390 1184Q359 1184 332 1155T287 1098T263 1069Q242 1069 242 1086ZM80 415Q80 504 111 586T200 735T352 842T563 882Q655 882 739 853T892 768T1000 625T1041 429Q1041 318 999 227T886 80T729 -7T548 -37Q435 -37 344 1T196 104T110 248T80 415ZM241
486Q241 379 274 289T360 143T478 56T610 25Q727 25 806 113T886 367Q886 451 863 531T795 678T678 786T515 827Q467 827 422 809T334 752T267 645T241 486Z" />
<glyph unicode="&#xf6;" glyph-name="odieresis" horiz-adv-x="1121" d="M306 1210Q306 1238 338 1276T403 1315Q437 1315 469 1279T501 1210Q501 1176 465 1139T412 1101Q371 1101 339 1140T306 1210ZM633 1210Q633 1238 665 1276T730 1315Q764 1315 796 1279T828
1210Q828 1176 792 1139T739 1101Q698 1101 666 1140T633 1210ZM80 415Q80 504 111 586T200 735T352 842T563 882Q655 882 739 853T892 768T1000 625T1041 429Q1041 318 999 227T886 80T729 -7T548 -37Q435 -37 344 1T196 104T110 248T80 415ZM241 486Q241 379
274 289T360 143T478 56T610 25Q727 25 806 113T886 367Q886 451 863 531T795 678T678 786T515 827Q467 827 422 809T334 752T267 645T241 486Z" />
<glyph unicode="&#xf7;" glyph-name="divide" horiz-adv-x="1080" d="M63 434Q63 450 64 457T74 470T101 476H983Q1006 476 1011 467T1016 433Q1016 413 1014 405T1003 391T973 385H99Q74 385 69 394T63 434ZM434 621T434 655T459 714T520 739Q554 739 578 715T603
657T579 599T519 574T459 597ZM445 206Q445 240 469 264T528 288T588 263T613 204T589 147T530 123Q496 123 471 147T445 206Z" />
<glyph unicode="&#xf8;" glyph-name="oslash" horiz-adv-x="1121" d="M80 415Q80 504 111 586T200 735T352 842T563 882Q613 882 659 874T706 865Q715 865 720 870T732 890Q781 996 788 1010T808 1024Q822 1024 846 1014T871 987Q871 981 821 872Q819 867 815
860T808 848T805 838Q805 826 826 814Q925 757 983 659T1041 429Q1041 318 999 227T886 80T729 -7T548 -37Q512 -37 482 -34T434 -26T413 -22Q410 -22 408 -22T404 -26T402 -30T398 -37Q319 -204 312 -212Q308 -216 302 -216Q284 -216 260 -205T235 -177Q235 -170
275 -85T316 5Q316 13 297 24Q192 84 136 189T80 415ZM241 486Q241 419 254 358T286 258T324 189T357 146T372 133Q378 133 385 149L666 750Q668 755 671 760T676 770T678 777Q678 793 625 810T515 827Q467 827 422 809T334 752T267 645T241 486ZM452 76Q452 62
505 44T610 25Q727 25 806 113T886 367Q886 430 874 490T843 590T806 662T773 708T757 723Q753 723 747 710Q542 262 460 94Q452 77 452 76Z" />
<glyph unicode="&#xf9;" glyph-name="ugrave" horiz-adv-x="1180" d="M349 1302Q349 1329 391 1342T456 1356Q481 1356 498 1317Q544 1207 584 1134T638 1038T653 1006T646 990T628 983Q608 983 548 1047Q349 1258 349 1302ZM59 806Q59 829 86 840T196 851Q211
851 260 856T313 862Q348 862 354 848T361 759Q361 718 356 619T351 399Q351 321 366 261T404 166T458 109T518 78T577 70Q709 70 768 125T828 319L824 603Q824 706 808 741T729 782Q684 786 684 808Q684 857 865 857Q882 857 906 861T937 866Q969 866 978 855T988
809Q988 807 987 778T984 700T981 589T978 446T977 286Q977 161 988 117T1034 72Q1044 72 1062 72T1088 73Q1136 73 1136 48Q1136 24 1122 18T1061 12Q1025 12 942 1T854 -11Q839 -11 831 42T818 95Q814 95 790 75T734 30T643 -15T522 -36Q192 -36 192 320Q192
518 193 601T194 689Q194 730 174 754T134 779Q126 779 116 779T97 778Q59 778 59 806Z" />
<glyph unicode="&#xfa;" glyph-name="uacute" horiz-adv-x="1180" d="M495 996T495 1006T509 1038T564 1133T650 1317Q667 1356 692 1356Q714 1356 756 1343T799 1302Q799 1258 600 1047Q540 983 520 983Q510 983 503 989ZM59 806Q59 829 86 840T196 851Q211 851
260 856T313 862Q348 862 354 848T361 759Q361 718 356 619T351 399Q351 321 366 261T404 166T458 109T518 78T577 70Q709 70 768 125T828 319L824 603Q824 706 808 741T729 782Q684 786 684 808Q684 857 865 857Q882 857 906 861T937 866Q969 866 978 855T988
809Q988 807 987 778T984 700T981 589T978 446T977 286Q977 161 988 117T1034 72Q1044 72 1062 72T1088 73Q1136 73 1136 48Q1136 24 1122 18T1061 12Q1025 12 942 1T854 -11Q839 -11 831 42T818 95Q814 95 790 75T734 30T643 -15T522 -36Q192 -36 192 320Q192
518 193 601T194 689Q194 730 174 754T134 779Q126 779 116 779T97 778Q59 778 59 806Z" />
<glyph unicode="&#xfb;" glyph-name="ucircumflex" horiz-adv-x="1180" d="M344 1022Q344 1027 352 1040Q387 1092 416 1137T462 1211T491 1262T510 1296T522 1315T532 1325T544 1327H596Q617 1327 631 1304Q664 1245 709 1177T780 1070T806 1023Q806 1007 784
1007Q769 1007 675 1094T574 1181Q561 1181 470 1095T364 1009Q344 1009 344 1022ZM59 806Q59 829 86 840T196 851Q211 851 260 856T313 862Q348 862 354 848T361 759Q361 718 356 619T351 399Q351 321 366 261T404 166T458 109T518 78T577 70Q709 70 768 125T828
319L824 603Q824 706 808 741T729 782Q684 786 684 808Q684 857 865 857Q882 857 906 861T937 866Q969 866 978 855T988 809Q988 807 987 778T984 700T981 589T978 446T977 286Q977 161 988 117T1034 72Q1044 72 1062 72T1088 73Q1136 73 1136 48Q1136 24 1122
18T1061 12Q1025 12 942 1T854 -11Q839 -11 831 42T818 95Q814 95 790 75T734 30T643 -15T522 -36Q192 -36 192 320Q192 518 193 601T194 689Q194 730 174 754T134 779Q126 779 116 779T97 778Q59 778 59 806Z" />
<glyph unicode="&#xfc;" glyph-name="udieresis" horiz-adv-x="1180" d="M336 1210Q336 1238 368 1276T433 1315Q467 1315 499 1279T531 1210Q531 1176 495 1139T442 1101Q401 1101 369 1140T336 1210ZM663 1210Q663 1238 695 1276T760 1315Q794 1315 826 1279T858
1210Q858 1176 822 1139T769 1101Q728 1101 696 1140T663 1210ZM59 806Q59 829 86 840T196 851Q211 851 260 856T313 862Q348 862 354 848T361 759Q361 718 356 619T351 399Q351 321 366 261T404 166T458 109T518 78T577 70Q709 70 768 125T828 319L824 603Q824
706 808 741T729 782Q684 786 684 808Q684 857 865 857Q882 857 906 861T937 866Q969 866 978 855T988 809Q988 807 987 778T984 700T981 589T978 446T977 286Q977 161 988 117T1034 72Q1044 72 1062 72T1088 73Q1136 73 1136 48Q1136 24 1122 18T1061 12Q1025
12 942 1T854 -11Q839 -11 831 42T818 95Q814 95 790 75T734 30T643 -15T522 -36Q192 -36 192 320Q192 518 193 601T194 689Q194 730 174 754T134 779Q126 779 116 779T97 778Q59 778 59 806Z" />
<glyph unicode="&#xfd;" glyph-name="yacute" horiz-adv-x="1020" d="M451 996T451 1006T465 1038T520 1133T606 1317Q623 1356 648 1356Q670 1356 712 1343T755 1302Q755 1258 556 1047Q496 983 476 983Q466 983 459 989ZM40 844Q40 856 54 862T81 868Q139 868
200 866T302 864Q336 864 364 866T418 868Q432 868 443 861T454 845Q454 836 453 830T447 819T439 813T427 810T413 809T395 808T375 808Q342 807 342 752Q342 719 361 669T441 482Q456 450 464 432Q474 411 489 375T516 314T539 264T560 225T574 212Q587 212 669
448T751 734Q751 768 738 785T707 806T670 811T638 819T625 845Q625 870 664 870Q694 870 744 869T810 868Q830 868 881 869T938 870Q980 870 980 844Q980 828 966 822T930 809T898 788Q863 738 786 531L605 46Q588 -1 570 -51T539 -135T513 -205T492 -264T474
-310T459 -346T446 -370T434 -385T424 -390Q422 -390 417 -390T392 -391T330 -392Q291 -392 291 -365Q291 -359 320 -322T384 -237T448 -125T477 -6Q477 53 361 305T158 722Q136 764 112 785T74 810T50 820T40 844Z" />
<glyph unicode="&#xfe;" glyph-name="thorn" horiz-adv-x="1114" d="M40 1420Q40 1431 43 1437T57 1448T81 1456T122 1469T180 1490Q197 1497 232 1513T292 1539T335 1548Q360 1548 360 1510Q360 1501 356 1461T349 1351T345 1198V1083Q345 1031 343 927T341 802Q341
745 347 745Q351 745 375 767T432 817T526 866T658 889Q751 889 824 855T942 762T1010 631T1034 477Q1034 388 1005 301T922 142T783 26T594 -19Q520 -19 467 -7T392 20T354 47T329 60Q323 60 323 43Q324 43 324 -182V-208Q324 -253 357 -306Q376 -334 408 -344T468
-353T515 -356T536 -384Q536 -409 467 -409Q454 -409 401 -406T254 -402Q217 -402 175 -405T124 -408Q79 -408 67 -404T54 -388Q54 -374 63 -367T87 -357T118 -346T149 -320T172 -264T182 -167V-128Q182 114 185 274T188 438V483Q188 512 191 843T195 1263Q195
1309 180 1348T145 1395Q128 1402 63 1402Q40 1402 40 1420ZM324 394Q324 374 325 343T326 291Q326 234 347 189T399 117T472 73T552 50T627 43Q717 43 780 91T871 214T900 378Q900 480 865 571T754 725T579 787Q474 787 392 721Q363 698 351 675T331 588T324 394Z"
/>
<glyph unicode="&#xff;" glyph-name="ydieresis" horiz-adv-x="1020" d="M292 1210Q292 1238 324 1276T389 1315Q423 1315 455 1279T487 1210Q487 1176 451 1139T398 1101Q357 1101 325 1140T292 1210ZM619 1210Q619 1238 651 1276T716 1315Q750 1315 782 1279T814
1210Q814 1176 778 1139T725 1101Q684 1101 652 1140T619 1210ZM40 844Q40 856 54 862T81 868Q139 868 200 866T302 864Q336 864 364 866T418 868Q432 868 443 861T454 845Q454 836 453 830T447 819T439 813T427 810T413 809T395 808T375 808Q342 807 342 752Q342
719 361 669T441 482Q456 450 464 432Q474 411 489 375T516 314T539 264T560 225T574 212Q587 212 669 448T751 734Q751 768 738 785T707 806T670 811T638 819T625 845Q625 870 664 870Q694 870 744 869T810 868Q830 868 881 869T938 870Q980 870 980 844Q980 828
966 822T930 809T898 788Q863 738 786 531L605 46Q588 -1 570 -51T539 -135T513 -205T492 -264T474 -310T459 -346T446 -370T434 -385T424 -390Q422 -390 417 -390T392 -391T330 -392Q291 -392 291 -365Q291 -359 320 -322T384 -237T448 -125T477 -6Q477 53 361
305T158 722Q136 764 112 785T74 810T50 820T40 844Z" />
<glyph unicode="&#x100;" glyph-name="Amacron" horiz-adv-x="1663" d="M612 1747Q612 1785 646 1785Q803 1785 871 1784T1015 1782Q1035 1782 1041 1772T1047 1722Q1047 1711 1040 1704T1027 1696T1017 1694Q1003 1694 839 1695T632 1696Q612 1696 612 1747ZM40
17Q40 44 72 56Q109 70 131 91T188 169T283 355T436 684Q634 1114 785 1435Q799 1465 810 1473T845 1482Q865 1482 872 1472T897 1409Q940 1283 993 1153Q1059 992 1219 618T1395 214Q1423 157 1457 123T1520 80T1572 66T1609 55T1623 27Q1623 -5 1567 -5Q1545
-5 1479 1T1383 8Q1345 8 1282 5T1191 1Q1127 1 1111 5T1094 28Q1094 43 1110 51T1145 64T1181 83T1197 124Q1197 169 1146 309T1058 514Q1051 526 1047 531T1025 543T975 549Q964 549 885 547T727 545H619Q554 545 525 540T485 525T461 486Q449 460 421 401T382
320T357 261T336 203T330 165Q330 126 345 103T383 73T428 63T465 52T481 27Q481 12 475 5T447 -3Q436 -3 377 -2T277 -1Q233 -1 177 -5T101 -9Q40 -9 40 17ZM555 692Q555 666 573 660T660 653H722L917 655Q997 655 997 689Q997 715 897 941T771 1168Q753 1168
654 942T555 692Z" />
<glyph unicode="&#x101;" glyph-name="amacron" horiz-adv-x="945" d="M236 1207Q236 1245 270 1245Q427 1245 495 1244T639 1242Q659 1242 665 1232T671 1182Q671 1171 664 1164T651 1156T641 1154Q627 1154 463 1155T256 1156Q236 1156 236 1207ZM98 175Q98
225 112 263T154 328T218 374T303 406T401 430T511 451Q550 457 570 461Q584 464 589 465T600 474T605 494Q605 511 607 547T609 601Q609 663 587 709T530 779T466 812T409 822Q263 822 263 699Q263 682 267 657T271 625Q271 583 234 583Q221 583 203 586T162 597T123
622T107 664Q107 744 213 816T450 888Q513 888 563 877T645 851T700 811T734 765T750 715T757 670T758 631Q758 483 753 397T748 249Q748 185 759 144T788 87T825 64T863 56T891 50T903 26Q903 -16 775 -16Q742 -16 714 -5T669 23T639 57T619 85T610 97T593 84T553
52T497 14T424 -18T340 -31Q271 -31 228 -18T150 31Q98 84 98 175ZM259 204Q259 134 299 93T415 51Q454 51 485 59T535 80T569 112T590 148T600 189T604 227T605 260V408Q605 425 590 425Q587 425 584 425T577 423T570 422Q537 416 524 414T479 405T431 393T387
378T345 358T311 331T283 297T266 255T259 204Z" />
<glyph unicode="&#x102;" glyph-name="Abreve" horiz-adv-x="1663" d="M599 1825Q599 1830 621 1830H630Q636 1830 644 1820T660 1793T686 1758T723 1723T777 1697T852 1686Q898 1686 933 1701T987 1737T1017 1779T1037 1815T1052 1830H1061Q1083 1830 1083 1825Q1083
1791 1069 1749T1026 1665T949 1595T840 1567T732 1593T656 1660T614 1743T599 1825ZM40 17Q40 44 72 56Q109 70 131 91T188 169T283 355T436 684Q634 1114 785 1435Q799 1465 810 1473T845 1482Q865 1482 872 1472T897 1409Q940 1283 993 1153Q1059 992 1219 618T1395
214Q1423 157 1457 123T1520 80T1572 66T1609 55T1623 27Q1623 -5 1567 -5Q1545 -5 1479 1T1383 8Q1345 8 1282 5T1191 1Q1127 1 1111 5T1094 28Q1094 43 1110 51T1145 64T1181 83T1197 124Q1197 169 1146 309T1058 514Q1051 526 1047 531T1025 543T975 549Q964
549 885 547T727 545H619Q554 545 525 540T485 525T461 486Q449 460 421 401T382 320T357 261T336 203T330 165Q330 126 345 103T383 73T428 63T465 52T481 27Q481 12 475 5T447 -3Q436 -3 377 -2T277 -1Q233 -1 177 -5T101 -9Q40 -9 40 17ZM555 692Q555 666 573
660T660 653H722L917 655Q997 655 997 689Q997 715 897 941T771 1168Q753 1168 654 942T555 692Z" />
<glyph unicode="&#x103;" glyph-name="abreve" horiz-adv-x="945" d="M223 1285Q223 1290 245 1290H254Q260 1290 268 1280T284 1253T310 1218T347 1183T401 1157T476 1146Q522 1146 557 1161T611 1197T641 1239T661 1275T676 1290H685Q707 1290 707 1285Q707
1251 693 1209T650 1125T573 1055T464 1027T356 1053T280 1120T238 1203T223 1285ZM98 175Q98 225 112 263T154 328T218 374T303 406T401 430T511 451Q550 457 570 461Q584 464 589 465T600 474T605 494Q605 511 607 547T609 601Q609 663 587 709T530 779T466 812T409
822Q263 822 263 699Q263 682 267 657T271 625Q271 583 234 583Q221 583 203 586T162 597T123 622T107 664Q107 744 213 816T450 888Q513 888 563 877T645 851T700 811T734 765T750 715T757 670T758 631Q758 483 753 397T748 249Q748 185 759 144T788 87T825 64T863
56T891 50T903 26Q903 -16 775 -16Q742 -16 714 -5T669 23T639 57T619 85T610 97T593 84T553 52T497 14T424 -18T340 -31Q271 -31 228 -18T150 31Q98 84 98 175ZM259 204Q259 134 299 93T415 51Q454 51 485 59T535 80T569 112T590 148T600 189T604 227T605 260V408Q605
425 590 425Q587 425 584 425T577 423T570 422Q537 416 524 414T479 405T431 393T387 378T345 358T311 331T283 297T266 255T259 204Z" />
<glyph unicode="&#x104;" glyph-name="Aogonek" horiz-adv-x="1663" d="M40 17Q40 44 72 56Q119 74 146 109Q188 160 296 389Q325 451 401 617Q613 1073 785 1435Q799 1465 810 1473T845 1482Q865 1482 872 1472T897 1409Q940 1283 993 1153Q1059 992 1219 618T1395
214Q1423 157 1457 123T1520 80T1572 66T1609 55T1623 27Q1623 -5 1567 -5Q1545 -5 1479 1T1383 8Q1332 8 1296 5T1221 -12T1157 -48T1117 -113T1101 -213Q1101 -247 1132 -291T1218 -336Q1241 -336 1261 -323T1296 -297T1319 -284Q1324 -284 1329 -289T1335 -302Q1335
-328 1274 -373T1150 -418Q1110 -418 1078 -404T1026 -370T994 -325T977 -281T972 -248Q972 -199 988 -158T1030 -90T1084 -37T1139 10T1180 61T1197 124Q1197 170 1144 311T1056 515Q1055 516 1053 520T1050 526T1047 531T1043 536T1038 539T1033 543T1026 545T1017
547T1006 548T993 549Q973 549 906 547T801 545Q557 542 542 540Q492 536 477 515Q471 507 461 486Q449 460 421 401T382 320T357 261T336 203T330 165Q330 126 345 103T383 73T428 63T465 52T481 27Q481 12 475 5T447 -3Q436 -3 377 -2T277 -1Q233 -1 177 -5T101
-9Q40 -9 40 17ZM555 692Q555 666 573 660T660 653H722L917 655Q997 655 997 689Q997 715 897 941T771 1168Q753 1168 654 942T555 692Z" />
<glyph unicode="&#x105;" glyph-name="aogonek" horiz-adv-x="945" d="M98 175Q98 225 112 263T154 328T218 374T303 406T401 430T511 451Q550 457 570 461Q584 464 589 465T600 474T605 494Q605 511 607 547T609 601Q609 663 587 709T530 779T466 812T409 822Q263
822 263 699Q263 682 267 657T271 625Q271 583 234 583Q221 583 203 586T162 597T123 622T107 664Q107 744 213 816T450 888Q513 888 563 877T645 851T700 811T734 765T750 715T757 670T758 631Q758 483 753 397T748 249Q748 185 759 144T788 87T825 64T863 56T891
50T903 26T888 1T835 -16T773 -34Q615 -96 615 -208Q615 -264 645 -301T717 -339Q747 -339 781 -313T822 -286T829 -302Q829 -329 771 -373T649 -418Q573 -418 532 -367T491 -243Q491 -197 515 -158T575 -95T646 -54T706 -28T731 -15Q731 -11 714 -4Q683 9 659
34T624 78T610 97T593 84T553 52T497 14T424 -18T340 -31Q271 -31 228 -18T150 31Q98 84 98 175ZM259 204Q259 134 299 93T415 51Q454 51 485 59T535 80T569 112T590 148T600 189T604 227T605 260V408Q605 425 590 425Q587 425 584 425T577 423T570 422Q537 416
524 414T479 405T431 393T387 378T345 358T311 331T283 297T266 255T259 204Z" />
<glyph unicode="&#x106;" glyph-name="Cacute" horiz-adv-x="1653" d="M780 1536T780 1546T794 1578T849 1673T935 1857Q952 1896 977 1896Q999 1896 1041 1883T1084 1842Q1084 1798 885 1587Q825 1523 805 1523Q795 1523 788 1529ZM90 663Q90 829 140 973T286
1226T531 1399T866 1463Q945 1463 1027 1448T1170 1410T1282 1366T1362 1328T1397 1312Q1404 1312 1417 1322T1439 1333Q1450 1333 1459 1325T1470 1301Q1472 1242 1479 1176T1493 1065T1499 1013Q1499 977 1475 977Q1455 977 1440 1006Q1347 1182 1203 1280T866
1378Q698 1378 566 1305T358 1096T282 786Q282 671 304 568T378 369T507 204T701 94T962 53Q1035 53 1103 73T1223 125T1321 199T1400 280T1459 360Q1468 374 1489 374Q1508 374 1508 347Q1508 330 1503 300T1493 244T1480 186T1470 145Q1465 122 1438 109Q1353
68 1307 48T1191 4T1054 -30T910 -40Q781 -40 670 -18T477 42T328 135T218 251T145 383T103 522T90 663Z" />
<glyph unicode="&#x107;" glyph-name="cacute" horiz-adv-x="925" d="M435 996T435 1006T449 1038T504 1133T590 1317Q607 1356 632 1356Q654 1356 696 1343T739 1302Q739 1258 540 1047Q480 983 460 983Q450 983 443 989ZM80 394Q80 520 137 629T305 808T556
878Q628 878 709 859T794 812Q799 750 799 714Q799 624 777 624Q765 624 756 634T734 661T708 690Q661 729 585 764T437 799Q422 799 400 792T348 761T293 702T251 602T233 458Q233 300 335 182T584 64Q640 64 691 80T771 117T823 153T855 170Q864 170 870 164T876
149Q876 142 864 122T821 74T750 20T644 -24T504 -43Q312 -43 196 73T80 394Z" />
<glyph unicode="&#x108;" glyph-name="Ccircumflex" horiz-adv-x="1653" d="M629 1562Q629 1567 637 1580Q672 1632 701 1677T747 1751T776 1802T795 1836T807 1855T817 1865T829 1867H881Q902 1867 916 1844Q949 1785 994 1717T1065 1610T1091 1563Q1091 1547
1069 1547Q1054 1547 960 1634T859 1721Q846 1721 755 1635T649 1549Q629 1549 629 1562ZM90 663Q90 829 140 973T286 1226T531 1399T866 1463Q945 1463 1027 1448T1170 1410T1282 1366T1362 1328T1397 1312Q1404 1312 1417 1322T1439 1333Q1450 1333 1459 1325T1470
1301Q1472 1242 1479 1176T1493 1065T1499 1013Q1499 977 1475 977Q1455 977 1440 1006Q1347 1182 1203 1280T866 1378Q698 1378 566 1305T358 1096T282 786Q282 671 304 568T378 369T507 204T701 94T962 53Q1035 53 1103 73T1223 125T1321 199T1400 280T1459 360Q1468
374 1489 374Q1508 374 1508 347Q1508 330 1503 300T1493 244T1480 186T1470 145Q1465 122 1438 109Q1353 68 1307 48T1191 4T1054 -30T910 -40Q781 -40 670 -18T477 42T328 135T218 251T145 383T103 522T90 663Z" />
<glyph unicode="&#x109;" glyph-name="ccircumflex" horiz-adv-x="925" d="M284 1022Q284 1027 292 1040Q327 1092 356 1137T402 1211T431 1262T450 1296T462 1315T472 1325T484 1327H536Q557 1327 571 1304Q604 1245 649 1177T720 1070T746 1023Q746 1007 724
1007Q709 1007 615 1094T514 1181Q501 1181 410 1095T304 1009Q284 1009 284 1022ZM80 394Q80 520 137 629T305 808T556 878Q628 878 709 859T794 812Q799 750 799 714Q799 624 777 624Q765 624 756 634T734 661T708 690Q661 729 585 764T437 799Q422 799 400 792T348
761T293 702T251 602T233 458Q233 300 335 182T584 64Q640 64 691 80T771 117T823 153T855 170Q864 170 870 164T876 149Q876 142 864 122T821 74T750 20T644 -24T504 -43Q312 -43 196 73T80 394Z" />
<glyph unicode="&#x10a;" glyph-name="Cdotaccent" horiz-adv-x="1653" d="M765 1749Q765 1773 800 1816T866 1860Q900 1860 931 1819T962 1744Q962 1711 923 1672T865 1632Q825 1632 795 1675T765 1749ZM90 663Q90 829 140 973T286 1226T531 1399T866 1463Q945
1463 1027 1448T1170 1410T1282 1366T1362 1328T1397 1312Q1404 1312 1417 1322T1439 1333Q1450 1333 1459 1325T1470 1301Q1472 1242 1479 1176T1493 1065T1499 1013Q1499 977 1475 977Q1455 977 1440 1006Q1347 1182 1203 1280T866 1378Q698 1378 566 1305T358
1096T282 786Q282 671 304 568T378 369T507 204T701 94T962 53Q1035 53 1103 73T1223 125T1321 199T1400 280T1459 360Q1468 374 1489 374Q1508 374 1508 347Q1508 330 1503 300T1493 244T1480 186T1470 145Q1465 122 1438 109Q1353 68 1307 48T1191 4T1054 -30T910
-40Q781 -40 670 -18T477 42T328 135T218 251T145 383T103 522T90 663Z" />
<glyph unicode="&#x10b;" glyph-name="cdotaccent" horiz-adv-x="925" d="M420 1209Q420 1233 455 1276T521 1320Q555 1320 586 1279T617 1204Q617 1171 578 1132T520 1092Q480 1092 450 1135T420 1209ZM80 394Q80 520 137 629T305 808T556 878Q628 878 709 859T794
812Q799 750 799 714Q799 624 777 624Q765 624 756 634T734 661T708 690Q661 729 585 764T437 799Q422 799 400 792T348 761T293 702T251 602T233 458Q233 300 335 182T584 64Q640 64 691 80T771 117T823 153T855 170Q864 170 870 164T876 149Q876 142 864 122T821
74T750 20T644 -24T504 -43Q312 -43 196 73T80 394Z" />
<glyph unicode="&#x10c;" glyph-name="Ccaron" horiz-adv-x="1653" d="M629 1851Q629 1867 651 1867Q666 1867 760 1780T861 1693Q874 1693 965 1779T1071 1865Q1091 1865 1091 1852Q1091 1847 1083 1834Q1048 1782 1019 1737T973 1663T944 1612T925 1578T913
1559T903 1549T891 1547H839Q818 1547 804 1570Q771 1629 726 1697T655 1804T629 1851ZM90 663Q90 829 140 973T286 1226T531 1399T866 1463Q945 1463 1027 1448T1170 1410T1282 1366T1362 1328T1397 1312Q1404 1312 1417 1322T1439 1333Q1450 1333 1459 1325T1470
1301Q1472 1242 1479 1176T1493 1065T1499 1013Q1499 977 1475 977Q1455 977 1440 1006Q1347 1182 1203 1280T866 1378Q698 1378 566 1305T358 1096T282 786Q282 671 304 568T378 369T507 204T701 94T962 53Q1035 53 1103 73T1223 125T1321 199T1400 280T1459 360Q1468
374 1489 374Q1508 374 1508 347Q1508 330 1503 300T1493 244T1480 186T1470 145Q1465 122 1438 109Q1353 68 1307 48T1191 4T1054 -30T910 -40Q781 -40 670 -18T477 42T328 135T218 251T145 383T103 522T90 663Z" />
<glyph unicode="&#x10d;" glyph-name="ccaron" horiz-adv-x="925" d="M284 1311Q284 1327 306 1327Q321 1327 415 1240T516 1153Q529 1153 620 1239T726 1325Q746 1325 746 1312Q746 1307 738 1294Q703 1242 674 1197T628 1123T599 1072T580 1038T568 1019T558
1009T546 1007H494Q473 1007 459 1030Q426 1089 381 1157T310 1264T284 1311ZM80 394Q80 520 137 629T305 808T556 878Q628 878 709 859T794 812Q799 750 799 714Q799 624 777 624Q765 624 756 634T734 661T708 690Q661 729 585 764T437 799Q422 799 400 792T348
761T293 702T251 602T233 458Q233 300 335 182T584 64Q640 64 691 80T771 117T823 153T855 170Q864 170 870 164T876 149Q876 142 864 122T821 74T750 20T644 -24T504 -43Q312 -43 196 73T80 394Z" />
<glyph unicode="&#x10e;" glyph-name="Dcaron" horiz-adv-x="1623" d="M535 1851Q535 1867 557 1867Q572 1867 666 1780T767 1693Q780 1693 871 1779T977 1865Q997 1865 997 1852Q997 1847 989 1834Q954 1782 925 1737T879 1663T850 1612T831 1578T819 1559T809
1549T797 1547H745Q724 1547 710 1570Q677 1629 632 1697T561 1804T535 1851ZM40 1433Q40 1451 58 1455T146 1459H323Q374 1459 511 1463T722 1467Q835 1467 948 1441T1166 1359T1353 1226T1483 1038T1532 799Q1532 682 1517 590T1480 435T1416 314T1336 218T1235
129Q1175 79 1059 36T818 -7Q806 -7 609 -1T326 5Q254 5 192 0T120 -6Q91 -6 82 0T72 20Q72 33 78 40T91 51T115 58T143 68Q176 82 203 122T231 201Q231 315 232 494T234 756Q234 829 233 985T232 1275Q232 1311 198 1346T122 1385Q68 1389 55 1398Q40 1408 40
1433ZM404 289Q404 258 404 238T408 199T415 170T427 150T444 136T469 125T500 115T541 105T590 91Q659 70 740 70H780Q920 70 1018 109T1206 235Q1285 312 1321 441T1358 706Q1358 839 1316 951T1203 1141T1040 1273T851 1353T656 1378Q610 1378 589 1378T537
1375T495 1371T464 1361T441 1346T427 1321T416 1289T412 1245T409 1190T409 1119Q409 1074 408 906T406 724Q406 601 405 459T404 289Z" />
<glyph unicode="&#x10f;" glyph-name="dcaron" horiz-adv-x="1157" d="M1081 1470Q1081 1473 1083 1475T1090 1482T1098 1489T1110 1498T1123 1507Q1126 1509 1139 1520T1162 1537T1184 1542Q1190 1542 1206 1535T1241 1514T1275 1474T1290 1416Q1290 1368 1268
1328T1216 1266T1161 1232T1121 1220Q1112 1220 1107 1225T1101 1234Q1101 1241 1122 1252T1165 1287T1187 1348Q1187 1379 1171 1399T1134 1427T1098 1446T1081 1470ZM80 399Q80 492 112 579T204 739T361 854T578 898Q633 898 718 868T810 838Q821 838 821 911Q821
1067 823 1114T825 1175Q825 1220 825 1241T821 1294T812 1342T793 1374T762 1397T717 1404H695Q664 1404 658 1406T652 1421V1423Q652 1436 672 1444T755 1472T883 1522Q889 1525 907 1533T938 1547T963 1552Q988 1552 988 1511Q988 1505 974 1337T960 1067Q960
855 959 610T957 319Q957 178 970 132T1028 72Q1036 69 1055 66T1085 60T1107 49T1117 29Q1117 22 1110 17T1066 5T958 -8Q926 -11 884 -20T830 -29Q807 -29 807 -7Q807 0 804 24T801 69Q801 104 782 104Q776 104 753 83T698 38T609 -8T484 -29Q406 -29 339 -6T225
58T145 153T96 270T80 399ZM227 495Q227 398 266 304T386 144T568 78Q660 78 735 125T810 240Q811 359 811 436T812 534T813 568T813 590Q813 665 798 698T755 748Q697 783 629 810T511 837Q379 837 303 740T227 495Z" />
<glyph unicode="&#x110;" glyph-name="Dcroat" horiz-adv-x="1623" d="M40 1433Q40 1451 58 1455T146 1459H323Q374 1459 511 1463T722 1467Q835 1467 948 1441T1166 1359T1353 1226T1483 1038T1532 799Q1532 682 1517 590T1480 435T1416 314T1336 218T1235 129Q1175
79 1059 36T818 -7Q806 -7 609 -1T326 5Q254 5 192 0T120 -6Q91 -6 82 0T72 20Q72 33 78 40T91 51T115 58T143 68Q176 82 203 122T231 201Q231 235 234 664Q234 683 228 689T204 696Q142 697 72 697Q62 697 55 708T47 743Q47 769 53 777T71 785Q99 785 204 786Q224
786 229 793T234 822Q234 878 233 1018T232 1275Q232 1311 198 1346T122 1385Q68 1389 55 1398Q40 1408 40 1433ZM404 289Q404 258 404 238T408 199T415 171T427 150T444 136T469 125T500 116T541 105T590 91Q659 70 740 70H780Q920 70 1018 109T1206 235Q1285
312 1321 441T1358 706Q1358 839 1316 951T1203 1141T1040 1273T851 1353T656 1378Q610 1378 589 1378T537 1375T495 1371T464 1361T441 1346T427 1321T416 1289T412 1245T409 1190T409 1119Q409 1030 407 832Q407 804 414 796T451 787H760Q789 787 795 778T802
740Q802 728 801 722T796 708T782 699T756 696Q713 696 605 695T448 694H428Q412 694 409 690T406 669V659Q406 576 405 447T404 289Z" />
<glyph unicode="&#x111;" glyph-name="" horiz-adv-x="1157" d="M80 399Q80 492 112 579T204 739T361 854T578 898Q633 898 718 868T810 838Q821 838 821 911Q821 951 821 999T822 1059Q822 1080 818 1088T797 1096H511Q482 1096 476 1105T469 1141Q469 1153 470
1159T475 1173T489 1182T515 1185Q551 1185 643 1186T781 1187H797Q809 1187 814 1188T822 1193T825 1209Q825 1250 823 1275T815 1328T798 1370T766 1394T717 1404H695Q664 1404 658 1406T652 1421V1423Q652 1436 672 1444T755 1472T883 1522Q889 1525 907 1533T938
1547T963 1552Q988 1552 988 1511Q988 1497 976 1358T964 1199Q964 1189 973 1187T1023 1184H1089Q1099 1184 1106 1173T1114 1138Q1114 1112 1108 1104T1090 1096H997Q972 1096 966 1092T960 1067Q960 855 959 610T957 319Q957 178 970 132T1028 72Q1036 69 1055
66T1085 60T1107 49T1117 29Q1117 22 1110 17T1066 5T958 -8Q926 -11 884 -20T830 -29Q807 -29 807 -7Q807 0 804 24T801 69Q801 104 782 104Q776 104 753 83T698 38T609 -8T484 -29Q406 -29 339 -6T225 58T145 153T96 270T80 399ZM227 495Q227 398 266 304T386
144T568 78Q660 78 734 125T810 240Q811 359 811 436T812 534T813 568T813 590Q813 665 798 698T755 748Q697 783 629 810T511 837Q379 837 303 740T227 495Z" />
<glyph unicode="&#x112;" glyph-name="Emacron" horiz-adv-x="1237" d="M413 1747Q413 1785 447 1785Q604 1785 672 1784T816 1782Q836 1782 842 1772T848 1722Q848 1711 841 1704T828 1696T818 1694Q804 1694 640 1695T433 1696Q413 1696 413 1747ZM40 1432Q40
1460 99 1460Q107 1460 125 1459T154 1457Q160 1457 346 1451T653 1445Q697 1445 866 1449T1063 1454Q1101 1454 1101 1407Q1101 1395 1089 1326T1077 1198Q1077 1180 1067 1167T1045 1153Q1032 1153 1023 1164T1014 1197Q1014 1252 979 1296T892 1344Q720 1357
610 1357H558Q522 1357 506 1357T469 1353T443 1348T428 1334T418 1314T415 1282T411 1240Q411 1235 411 1232Q407 1155 404 890Q404 789 442 787Q461 786 493 786Q508 786 535 786T580 787H643Q766 787 806 795T880 825Q916 850 928 901Q931 914 933 919T941 930T957
936Q974 936 979 929T984 903Q984 889 975 809T966 688Q966 650 969 615T973 564Q973 511 959 511Q930 511 914 562Q912 568 908 583T900 607T891 628T879 648T863 662Q820 691 665 691Q604 691 566 691T517 691T499 692T486 692Q402 692 402 653Q402 594 400 505T398
358Q398 344 398 317T397 276Q397 218 409 170T446 114Q497 98 534 98Q651 98 746 106T901 128T1007 159T1076 195T1116 231T1139 262T1154 284T1172 293Q1197 293 1197 259Q1197 172 1109 81T954 -11Q806 -11 622 0T392 11Q334 11 247 1T112 -9Q98 -9 91 -9T77
-3T70 13Q70 31 70 37T76 47T89 52T116 58T158 76Q192 92 207 124T230 235T238 473V727Q238 782 241 899T244 1082Q244 1157 239 1267Q236 1327 188 1359T73 1394Q58 1394 50 1400T41 1413T40 1432Z" />
<glyph unicode="&#x113;" glyph-name="emacron" horiz-adv-x="954" d="M258 1207Q258 1245 292 1245Q449 1245 517 1244T661 1242Q681 1242 687 1232T693 1182Q693 1171 686 1164T673 1156T663 1154Q649 1154 485 1155T278 1156Q258 1156 258 1207ZM80 398Q80
531 131 641T278 818T495 885Q582 885 652 854T761 779T827 687T863 605T872 559Q872 538 853 530T789 522H324Q307 522 287 522T262 523Q246 523 243 519T240 499Q240 401 270 321T349 191T459 114T585 87Q635 87 683 101T762 132T818 164T855 178Q863 178 868
172T874 159Q874 151 860 130T815 80T744 25T642 -19T512 -38Q427 -38 352 -12T215 65T117 202T80 398ZM252 601Q252 585 257 578T279 571Q334 571 482 577T639 584Q667 584 674 589T682 608Q682 626 675 652T651 710T609 769T546 814T461 833Q409 833 367 807T301
743T265 668T252 601Z" />
<glyph unicode="&#x114;" glyph-name="Ebreve" horiz-adv-x="1237" d="M400 1825Q400 1830 422 1830H431Q437 1830 445 1820T461 1793T487 1758T524 1723T578 1697T653 1686Q699 1686 734 1701T788 1737T818 1779T838 1815T853 1830H862Q884 1830 884 1825Q884
1791 870 1749T827 1665T750 1595T641 1567T533 1593T457 1660T415 1743T400 1825ZM40 1432Q40 1460 99 1460Q107 1460 125 1459T154 1457Q160 1457 346 1451T653 1445Q697 1445 866 1449T1063 1454Q1101 1454 1101 1407Q1101 1395 1089 1326T1077 1198Q1077 1180
1067 1167T1045 1153Q1032 1153 1023 1164T1014 1197Q1014 1252 979 1296T892 1344Q720 1357 610 1357H558Q522 1357 506 1357T469 1353T443 1348T428 1334T418 1314T415 1282T411 1240Q411 1235 411 1232Q407 1155 404 890Q404 789 442 787Q461 786 493 786Q508
786 535 786T580 787H643Q766 787 806 795T880 825Q916 850 928 901Q931 914 933 919T941 930T957 936Q974 936 979 929T984 903Q984 889 975 809T966 688Q966 650 969 615T973 564Q973 511 959 511Q930 511 914 562Q912 568 908 583T900 607T891 628T879 648T863
662Q820 691 665 691Q604 691 566 691T517 691T499 692T486 692Q402 692 402 653Q402 594 400 505T398 358Q398 344 398 317T397 276Q397 218 409 170T446 114Q497 98 534 98Q651 98 746 106T901 128T1007 159T1076 195T1116 231T1139 262T1154 284T1172 293Q1197
293 1197 259Q1197 172 1109 81T954 -11Q806 -11 622 0T392 11Q334 11 247 1T112 -9Q98 -9 91 -9T77 -3T70 13Q70 31 70 37T76 47T89 52T116 58T158 76Q192 92 207 124T230 235T238 473V727Q238 782 241 899T244 1082Q244 1157 239 1267Q236 1327 188 1359T73 1394Q58
1394 50 1400T41 1413T40 1432Z" />
<glyph unicode="&#x115;" glyph-name="ebreve" horiz-adv-x="954" d="M245 1285Q245 1290 267 1290H276Q282 1290 290 1280T306 1253T332 1218T369 1183T423 1157T498 1146Q544 1146 579 1161T633 1197T663 1239T683 1275T698 1290H707Q729 1290 729 1285Q729
1251 715 1209T672 1125T595 1055T486 1027T378 1053T302 1120T260 1203T245 1285ZM80 398Q80 531 131 641T278 818T495 885Q582 885 652 854T761 779T827 687T863 605T872 559Q872 538 853 530T789 522H324Q307 522 287 522T262 523Q246 523 243 519T240 499Q240
401 270 321T349 191T459 114T585 87Q635 87 683 101T762 132T818 164T855 178Q863 178 868 172T874 159Q874 151 860 130T815 80T744 25T642 -19T512 -38Q427 -38 352 -12T215 65T117 202T80 398ZM252 601Q252 585 257 578T279 571Q334 571 482 577T639 584Q667
584 674 589T682 608Q682 626 675 652T651 710T609 769T546 814T461 833Q409 833 367 807T301 743T265 668T252 601Z" />
<glyph unicode="&#x116;" glyph-name="Edotaccent" horiz-adv-x="1237" d="M537 1749Q537 1773 572 1816T638 1860Q672 1860 703 1819T734 1744Q734 1711 695 1672T637 1632Q597 1632 567 1675T537 1749ZM40 1432Q40 1460 99 1460Q107 1460 125 1459T154 1457Q160
1457 346 1451T653 1445Q697 1445 866 1449T1063 1454Q1101 1454 1101 1407Q1101 1395 1089 1326T1077 1198Q1077 1180 1067 1167T1045 1153Q1032 1153 1023 1164T1014 1197Q1014 1252 979 1296T892 1344Q720 1357 610 1357H558Q522 1357 506 1357T469 1353T443
1348T428 1334T418 1314T415 1282T411 1240Q411 1235 411 1232Q407 1155 404 890Q404 789 442 787Q461 786 493 786Q508 786 535 786T580 787H643Q766 787 806 795T880 825Q916 850 928 901Q931 914 933 919T941 930T957 936Q974 936 979 929T984 903Q984 889 975
809T966 688Q966 650 969 615T973 564Q973 511 959 511Q930 511 914 562Q912 568 908 583T900 607T891 628T879 648T863 662Q820 691 665 691Q604 691 566 691T517 691T499 692T486 692Q402 692 402 653Q402 594 400 505T398 358Q398 344 398 317T397 276Q397 218
409 170T446 114Q497 98 534 98Q651 98 746 106T901 128T1007 159T1076 195T1116 231T1139 262T1154 284T1172 293Q1197 293 1197 259Q1197 172 1109 81T954 -11Q806 -11 622 0T392 11Q334 11 247 1T112 -9Q98 -9 91 -9T77 -3T70 13Q70 31 70 37T76 47T89 52T116
58T158 76Q192 92 207 124T230 235T238 473V727Q238 782 241 899T244 1082Q244 1157 239 1267Q236 1327 188 1359T73 1394Q58 1394 50 1400T41 1413T40 1432Z" />
<glyph unicode="&#x117;" glyph-name="edotaccent" horiz-adv-x="954" d="M382 1209Q382 1233 417 1276T483 1320Q517 1320 548 1279T579 1204Q579 1171 540 1132T482 1092Q442 1092 412 1135T382 1209ZM80 398Q80 531 131 641T278 818T495 885Q582 885 652 854T761
779T827 687T863 605T872 559Q872 538 853 530T789 522H324Q307 522 287 522T262 523Q246 523 243 519T240 499Q240 401 270 321T349 191T459 114T585 87Q635 87 683 101T762 132T818 164T855 178Q863 178 868 172T874 159Q874 151 860 130T815 80T744 25T642 -19T512
-38Q427 -38 352 -12T215 65T117 202T80 398ZM252 601Q252 585 257 578T279 571Q334 571 482 577T639 584Q667 584 674 589T682 608Q682 626 675 652T651 710T609 769T546 814T461 833Q409 833 367 807T301 743T265 668T252 601Z" />
<glyph unicode="&#x118;" glyph-name="Eogonek" horiz-adv-x="1237" d="M40 1432Q40 1460 99 1460Q107 1460 125 1459T154 1457Q160 1457 346 1451T653 1445Q697 1445 866 1449T1063 1454Q1101 1454 1101 1407Q1101 1395 1089 1326T1077 1198Q1077 1180 1067 1167T1045
1153Q1032 1153 1023 1164T1014 1197Q1014 1252 979 1296T892 1344Q720 1357 610 1357H558Q522 1357 506 1357T469 1353T443 1348T428 1334T418 1314T415 1282T411 1240Q411 1235 411 1232Q407 1155 404 890Q404 789 442 787Q461 786 493 786Q508 786 535 786T580
787H643Q766 787 806 795T880 825Q902 840 913 861T927 898T935 925T957 936Q974 936 979 929T984 903Q984 889 975 809T966 688Q966 650 969 615T973 564Q973 511 959 511Q940 511 928 530T911 573T894 623T863 662Q820 691 665 691Q604 691 566 691T517 691T499
692T486 692Q402 692 402 653Q402 594 400 505T398 358Q398 344 398 317T397 276Q397 218 409 170T446 114Q497 98 534 98Q651 98 746 106T901 128T1007 159T1076 195T1116 231T1139 262T1154 284T1172 293Q1197 293 1197 259Q1197 232 1185 196Q1167 147 1132
106T1072 46T1005 1Q1002 0 992 -6T965 -28T932 -63T905 -114T893 -178Q893 -254 929 -294T1013 -334Q1048 -334 1080 -313T1116 -292Q1131 -292 1131 -305Q1131 -340 1080 -379T953 -418Q863 -418 813 -362T763 -234Q763 -199 777 -164T810 -104T850 -58T884 -27T898
-14Q898 -12 873 -10Q755 -8 598 1T392 11Q334 11 247 1T112 -9Q98 -9 91 -9T77 -3T70 13Q70 31 70 37T76 47T89 52T116 58T158 76Q192 92 207 124T230 235T238 473V727Q238 782 241 899T244 1082Q244 1157 239 1267Q236 1327 188 1359T73 1394Q58 1394 50 1400T41
1413T40 1432Z" />
<glyph unicode="&#x119;" glyph-name="eogonek" horiz-adv-x="954" d="M80 398Q80 531 131 641T278 818T495 885Q582 885 652 854T761 779T827 687T863 605T872 559Q872 538 853 530T789 522H324Q307 522 287 522T262 523Q246 523 243 519T240 499Q240 401 270
321T349 191T459 114T585 87Q635 87 683 101T762 132T818 164T855 178Q863 178 868 172T874 159Q874 139 833 102T739 21T668 -53Q628 -120 628 -174Q628 -267 684 -311Q714 -334 748 -334Q783 -334 813 -313T846 -292Q861 -292 861 -305Q861 -340 812 -379T688
-418Q639 -418 599 -395Q556 -370 532 -326T508 -230T534 -132T586 -60T612 -33Q612 -28 607 -28Q606 -28 602 -29T589 -31T570 -34T544 -37T512 -38Q427 -38 352 -12T215 65T117 202T80 398ZM252 601Q252 585 257 578T279 571Q334 571 482 577T639 584Q667 584
674 589T682 608Q682 626 675 652T651 710T609 769T546 814T461 833Q409 833 367 807T301 743T265 668T252 601Z" />
<glyph unicode="&#x11a;" glyph-name="Ecaron" horiz-adv-x="1237" d="M401 1851Q401 1867 423 1867Q438 1867 532 1780T633 1693Q646 1693 737 1779T843 1865Q863 1865 863 1852Q863 1847 855 1834Q820 1782 791 1737T745 1663T716 1612T697 1578T685 1559T675
1549T663 1547H611Q590 1547 576 1570Q543 1629 498 1697T427 1804T401 1851ZM40 1432Q40 1460 99 1460Q107 1460 125 1459T154 1457Q160 1457 346 1451T653 1445Q697 1445 866 1449T1063 1454Q1101 1454 1101 1407Q1101 1395 1089 1326T1077 1198Q1077 1180 1067
1167T1045 1153Q1032 1153 1023 1164T1014 1197Q1014 1252 979 1296T892 1344Q720 1357 610 1357H558Q522 1357 506 1357T469 1353T443 1348T428 1334T418 1314T415 1282T411 1240Q411 1235 411 1232Q407 1155 404 890Q404 789 442 787Q461 786 493 786Q508 786
535 786T580 787H643Q766 787 806 795T880 825Q916 850 928 901Q931 914 933 919T941 930T957 936Q974 936 979 929T984 903Q984 889 975 809T966 688Q966 650 969 615T973 564Q973 511 959 511Q930 511 914 562Q912 568 908 583T900 607T891 628T879 648T863 662Q820
691 665 691Q604 691 566 691T517 691T499 692T486 692Q402 692 402 653Q402 594 400 505T398 358Q398 344 398 317T397 276Q397 218 409 170T446 114Q497 98 534 98Q651 98 746 106T901 128T1007 159T1076 195T1116 231T1139 262T1154 284T1172 293Q1197 293 1197
259Q1197 172 1109 81T954 -11Q806 -11 622 0T392 11Q334 11 247 1T112 -9Q98 -9 91 -9T77 -3T70 13Q70 31 70 37T76 47T89 52T116 58T158 76Q192 92 207 124T230 235T238 473V727Q238 782 241 899T244 1082Q244 1157 239 1267Q236 1327 188 1359T73 1394Q58 1394
50 1400T41 1413T40 1432Z" />
<glyph unicode="&#x11b;" glyph-name="ecaron" horiz-adv-x="954" d="M246 1311Q246 1327 268 1327Q283 1327 377 1240T478 1153Q491 1153 582 1239T688 1325Q708 1325 708 1312Q708 1307 700 1294Q665 1242 636 1197T590 1123T561 1072T542 1038T530 1019T520
1009T508 1007H456Q435 1007 421 1030Q388 1089 343 1157T272 1264T246 1311ZM80 398Q80 531 131 641T278 818T495 885Q582 885 652 854T761 779T827 687T863 605T872 559Q872 538 853 530T789 522H324Q307 522 287 522T262 523Q246 523 243 519T240 499Q240 401
270 321T349 191T459 114T585 87Q635 87 683 101T762 132T818 164T855 178Q863 178 868 172T874 159Q874 151 860 130T815 80T744 25T642 -19T512 -38Q427 -38 352 -12T215 65T117 202T80 398ZM252 601Q252 585 257 578T279 571Q334 571 482 577T639 584Q667 584
674 589T682 608Q682 626 675 652T651 710T609 769T546 814T461 833Q409 833 367 807T301 743T265 668T252 601Z" />
<glyph unicode="&#x11c;" glyph-name="Gcircumflex" horiz-adv-x="1675" d="M633 1562Q633 1567 641 1580Q676 1632 705 1677T751 1751T780 1802T799 1836T811 1855T821 1865T833 1867H885Q906 1867 920 1844Q953 1785 998 1717T1069 1610T1095 1563Q1095 1547
1073 1547Q1058 1547 964 1634T863 1721Q850 1721 759 1635T653 1549Q633 1549 633 1562ZM90 674Q90 839 142 983T292 1236T545 1409T890 1473Q987 1473 1073 1458T1215 1422T1311 1379T1374 1342T1400 1327Q1407 1327 1428 1342T1458 1358Q1487 1358 1489 1316Q1491
1257 1498 1192T1512 1084T1518 1033Q1518 997 1494 997T1459 1021Q1387 1177 1219 1284T873 1392Q750 1392 643 1352T455 1237T328 1046T282 786Q282 675 308 568T386 367T510 203T680 91T891 50Q1049 50 1176 121T1318 285Q1325 341 1325 542Q1325 595 1310 628T1273
671T1225 686T1177 692T1140 702T1125 736Q1125 757 1162 757Q1188 757 1275 752T1388 747Q1430 747 1477 747T1554 748L1584 749Q1615 749 1615 731Q1615 718 1590 708T1538 681T1506 637Q1491 542 1491 407Q1491 327 1493 276T1498 205T1501 179Q1501 168 1486
163T1436 149T1372 123Q1371 123 1351 110T1309 85T1252 55T1179 23T1097 -5T1005 -27T909 -35Q730 -35 588 5T354 113T201 273T115 465T90 674Z" />
<glyph unicode="&#x11d;" glyph-name="gcircumflex" horiz-adv-x="999" d="M254 1022Q254 1027 262 1040Q297 1092 326 1137T372 1211T401 1262T420 1296T432 1315T442 1325T454 1327H506Q527 1327 541 1304Q574 1245 619 1177T690 1070T716 1023Q716 1007 694
1007Q679 1007 585 1094T484 1181Q471 1181 380 1095T274 1009Q254 1009 254 1022ZM80 -199Q80 -164 95 -135T132 -89T176 -59T213 -38T228 -24Q228 -20 218 -12T194 7T171 42T160 97Q160 145 176 184T213 243T250 278T267 299Q267 307 253 318T218 348T177 392T142
465T127 573Q127 609 135 646T168 728T229 807T332 863T481 886Q543 886 593 874T668 846T712 818T740 805Q751 805 764 809T788 817T816 830T844 842Q862 850 873 867T888 900T899 928T918 941Q945 941 945 923Q945 873 930 818T899 738Q872 698 815 673Q838 612
838 572Q838 442 739 352T499 261Q445 261 398 269T343 278Q338 278 331 277T309 271T281 256T260 226T250 179Q250 149 263 129T296 98T355 80T429 73T524 71H619Q651 71 675 70T738 63T804 46T859 15T900 -35T915 -109Q915 -173 902 -204Q862 -304 741 -363T461
-423Q395 -423 333 -413T212 -379T116 -309T80 -199ZM199 -187Q199 -278 274 -323T461 -369Q587 -369 688 -317T790 -183Q790 -158 782 -139T757 -109T722 -91T673 -81T621 -78T563 -77H545Q480 -77 386 -63L292 -49Q271 -49 235 -90T199 -187ZM282 594Q282 471
341 389T488 307Q580 307 629 377T678 551Q678 624 654 689T580 798T464 842Q388 842 335 777T282 594Z" />
<glyph unicode="&#x11e;" glyph-name="Gbreve" horiz-adv-x="1675" d="M632 1825Q632 1830 654 1830H663Q669 1830 677 1820T693 1793T719 1758T756 1723T810 1697T885 1686Q931 1686 966 1701T1020 1737T1050 1779T1070 1815T1085 1830H1094Q1116 1830 1116 1825Q1116
1791 1102 1749T1059 1665T982 1595T873 1567T765 1593T689 1660T647 1743T632 1825ZM90 674Q90 839 142 983T292 1236T545 1409T890 1473Q987 1473 1073 1458T1215 1422T1311 1379T1374 1342T1400 1327Q1407 1327 1428 1342T1458 1358Q1487 1358 1489 1316Q1491
1257 1498 1192T1512 1084T1518 1033Q1518 997 1494 997T1459 1021Q1387 1177 1219 1284T873 1392Q750 1392 643 1352T455 1237T328 1046T282 786Q282 675 308 568T386 367T510 203T680 91T891 50Q1049 50 1176 121T1318 285Q1325 341 1325 542Q1325 595 1310 628T1273
671T1225 686T1177 692T1140 702T1125 736Q1125 757 1162 757Q1188 757 1275 752T1388 747Q1430 747 1477 747T1554 748L1584 749Q1615 749 1615 731Q1615 718 1590 708T1538 681T1506 637Q1491 542 1491 407Q1491 327 1493 276T1498 205T1501 179Q1501 168 1486
163T1436 149T1372 123Q1371 123 1351 110T1309 85T1252 55T1179 23T1097 -5T1005 -27T909 -35Q730 -35 588 5T354 113T201 273T115 465T90 674Z" />
<glyph unicode="&#x11f;" glyph-name="gbreve" horiz-adv-x="999" d="M253 1285Q253 1290 275 1290H284Q290 1290 298 1280T314 1253T340 1218T377 1183T431 1157T506 1146Q552 1146 587 1161T641 1197T671 1239T691 1275T706 1290H715Q737 1290 737 1285Q737
1251 723 1209T680 1125T603 1055T494 1027T386 1053T310 1120T268 1203T253 1285ZM80 -199Q80 -164 95 -135T132 -89T176 -59T213 -38T228 -24Q228 -20 218 -12T194 7T171 42T160 97Q160 145 176 184T213 243T250 278T267 299Q267 307 253 318T218 348T177 392T142
465T127 573Q127 609 135 646T168 728T229 807T332 863T481 886Q543 886 593 874T668 846T712 818T740 805Q751 805 764 809T788 817T816 830T844 842Q862 850 873 867T888 900T899 928T918 941Q945 941 945 923Q945 873 930 818T899 738Q872 698 815 673Q838 612
838 572Q838 442 739 352T499 261Q445 261 398 269T343 278Q338 278 331 277T309 271T281 256T260 226T250 179Q250 149 263 129T296 98T355 80T429 73T524 71H619Q651 71 675 70T738 63T804 46T859 15T900 -35T915 -109Q915 -173 902 -204Q862 -304 741 -363T461
-423Q395 -423 333 -413T212 -379T116 -309T80 -199ZM199 -187Q199 -278 274 -323T461 -369Q587 -369 688 -317T790 -183Q790 -158 782 -139T757 -109T722 -91T673 -81T621 -78T563 -77H545Q480 -77 386 -63L292 -49Q271 -49 235 -90T199 -187ZM282 594Q282 471
341 389T488 307Q580 307 629 377T678 551Q678 624 654 689T580 798T464 842Q388 842 335 777T282 594Z" />
<glyph unicode="&#x120;" glyph-name="Gdotaccent" horiz-adv-x="1675" d="M769 1749Q769 1773 804 1816T870 1860Q904 1860 935 1819T966 1744Q966 1711 927 1672T869 1632Q829 1632 799 1675T769 1749ZM90 674Q90 839 142 983T292 1236T545 1409T890 1473Q987
1473 1073 1458T1215 1422T1311 1379T1374 1342T1400 1327Q1407 1327 1428 1342T1458 1358Q1487 1358 1489 1316Q1491 1257 1498 1192T1512 1084T1518 1033Q1518 997 1494 997T1459 1021Q1387 1177 1219 1284T873 1392Q750 1392 643 1352T455 1237T328 1046T282
786Q282 675 308 568T386 367T510 203T680 91T891 50Q1049 50 1176 121T1318 285Q1325 341 1325 542Q1325 595 1310 628T1273 671T1225 686T1177 692T1140 702T1125 736Q1125 757 1162 757Q1188 757 1275 752T1388 747Q1430 747 1477 747T1554 748L1584 749Q1615
749 1615 731Q1615 718 1590 708T1538 681T1506 637Q1491 542 1491 407Q1491 327 1493 276T1498 205T1501 179Q1501 168 1486 163T1436 149T1372 123Q1371 123 1351 110T1309 85T1252 55T1179 23T1097 -5T1005 -27T909 -35Q730 -35 588 5T354 113T201 273T115 465T90
674Z" />
<glyph unicode="&#x121;" glyph-name="gdotaccent" horiz-adv-x="999" d="M390 1209Q390 1233 425 1276T491 1320Q525 1320 556 1279T587 1204Q587 1171 548 1132T490 1092Q450 1092 420 1135T390 1209ZM80 -199Q80 -164 95 -135T132 -89T176 -59T213 -38T228
-24Q228 -20 218 -12T194 7T171 42T160 97Q160 145 176 184T213 243T250 278T267 299Q267 307 253 318T218 348T177 392T142 465T127 573Q127 609 135 646T168 728T229 807T332 863T481 886Q543 886 593 874T668 846T712 818T740 805Q751 805 764 809T788 817T816
830T844 842Q862 850 873 867T888 900T899 928T918 941Q945 941 945 923Q945 873 930 818T899 738Q872 698 815 673Q838 612 838 572Q838 442 739 352T499 261Q445 261 398 269T343 278Q338 278 331 277T309 271T281 256T260 226T250 179Q250 149 263 129T296 98T355
80T429 73T524 71H619Q651 71 675 70T738 63T804 46T859 15T900 -35T915 -109Q915 -173 902 -204Q862 -304 741 -363T461 -423Q395 -423 333 -413T212 -379T116 -309T80 -199ZM199 -187Q199 -278 274 -323T461 -369Q587 -369 688 -317T790 -183Q790 -158 782 -139T757
-109T722 -91T673 -81T621 -78T563 -77H545Q480 -77 386 -63L292 -49Q271 -49 235 -90T199 -187ZM282 594Q282 471 341 389T488 307Q580 307 629 377T678 551Q678 624 654 689T580 798T464 842Q388 842 335 777T282 594Z" />
<glyph unicode="&#x122;" glyph-name="Gcommaaccent" horiz-adv-x="1675" d="M799 -162Q799 -159 801 -157T808 -150T816 -143T828 -134T841 -125Q844 -123 857 -112T880 -95T902 -90Q908 -90 924 -97T959 -118T993 -158T1008 -216Q1008 -264 986 -304T934 -366T879
-400T839 -412Q830 -412 825 -407T819 -398Q819 -391 840 -380T883 -345T905 -284Q905 -253 889 -233T852 -205T816 -186T799 -162ZM90 674Q90 839 142 983T292 1236T545 1409T890 1473Q987 1473 1073 1458T1215 1422T1311 1379T1374 1342T1400 1327Q1407 1327
1428 1342T1458 1358Q1487 1358 1489 1316Q1491 1257 1498 1192T1512 1084T1518 1033Q1518 997 1494 997T1459 1021Q1387 1177 1219 1284T873 1392Q750 1392 643 1352T455 1237T328 1046T282 786Q282 675 308 568T386 367T510 203T680 91T891 50Q1049 50 1176 121T1318
285Q1325 341 1325 542Q1325 595 1310 628T1273 671T1225 686T1177 692T1140 702T1125 736Q1125 757 1162 757Q1188 757 1275 752T1388 747Q1430 747 1477 747T1554 748L1584 749Q1615 749 1615 731Q1615 718 1590 708T1538 681T1506 637Q1491 542 1491 407Q1491
327 1493 276T1498 205T1501 179Q1501 168 1486 163T1436 149T1372 123Q1371 123 1351 110T1309 85T1252 55T1179 23T1097 -5T1005 -27T909 -35Q730 -35 588 5T354 113T201 273T115 465T90 674Z" />
<glyph unicode="&#x123;" glyph-name="gcommaaccent" horiz-adv-x="999" d="M379 1148Q379 1196 401 1236T453 1298T508 1332T548 1344Q557 1344 562 1339T568 1330Q568 1323 547 1312T504 1277T482 1216Q482 1185 498 1165T535 1137T571 1118T588 1094Q588 1091
586 1089T579 1082T571 1075T559 1066T546 1057Q543 1055 530 1044T507 1027T485 1022Q479 1022 463 1029T428 1050T394 1090T379 1148ZM80 -199Q80 -164 95 -135T132 -89T176 -59T213 -38T228 -24Q228 -20 218 -12T194 7T171 42T160 97Q160 145 176 184T213 243T250
278T267 299Q267 307 253 318T218 348T177 392T142 465T127 573Q127 609 135 646T168 728T229 807T332 863T481 886Q543 886 593 874T668 846T712 818T740 805Q751 805 764 809T788 817T816 830T844 842Q862 850 873 867T888 900T899 928T918 941Q945 941 945 923Q945
873 930 818T899 738Q872 698 815 673Q838 612 838 572Q838 442 739 352T499 261Q445 261 398 269T343 278Q338 278 331 277T309 271T281 256T260 226T250 179Q250 149 263 129T296 98T355 80T429 73T524 71H619Q651 71 675 70T738 63T804 46T859 15T900 -35T915
-109Q915 -173 902 -204Q862 -304 741 -363T461 -423Q395 -423 333 -413T212 -379T116 -309T80 -199ZM199 -187Q199 -278 274 -323T461 -369Q587 -369 688 -317T790 -183Q790 -158 782 -139T757 -109T722 -91T673 -81T621 -78T563 -77H545Q480 -77 386 -63L292
-49Q271 -49 235 -90T199 -187ZM282 594Q282 471 341 389T488 307Q580 307 629 377T678 551Q678 624 654 689T580 798T464 842Q388 842 335 777T282 594Z" />
<glyph unicode="&#x124;" glyph-name="Hcircumflex" horiz-adv-x="1619" d="M571 1562Q571 1567 579 1580Q614 1632 643 1677T689 1751T718 1802T737 1836T749 1855T759 1865T771 1867H823Q844 1867 858 1844Q891 1785 936 1717T1007 1610T1033 1563Q1033 1547
1011 1547Q996 1547 902 1634T801 1721Q788 1721 697 1635T591 1549Q571 1549 571 1562ZM40 1432Q40 1454 98 1454Q120 1454 192 1450T329 1445Q368 1445 404 1447T510 1449Q556 1449 556 1421Q556 1404 543 1395T484 1386Q455 1386 436 1337T411 1234T405 1131Q405
1116 405 1091T406 1055Q406 1004 404 942T402 866Q402 814 414 801T472 787Q476 787 551 788T807 789Q824 789 863 789T990 787T1194 785Q1206 785 1210 801Q1217 830 1217 1069Q1217 1086 1217 1122T1216 1179Q1216 1246 1204 1290T1172 1352T1131 1379T1089
1390T1058 1399T1045 1425Q1045 1445 1124 1445Q1145 1445 1212 1443T1323 1441Q1345 1441 1394 1443T1483 1445Q1529 1445 1529 1419T1501 1393Q1444 1393 1415 1358T1385 1266Q1379 872 1379 769Q1379 722 1377 619T1375 460V384Q1375 322 1378 271T1382 197Q1382
68 1555 46Q1579 42 1579 23Q1579 8 1558 4T1479 -1Q1457 -1 1404 5T1320 11Q1284 11 1231 5T1128 -1Q1084 -1 1069 3T1054 27Q1054 40 1074 49T1120 65T1168 89T1196 133Q1211 212 1211 283Q1211 304 1211 341T1212 393Q1212 429 1214 512T1217 645Q1217 675 1193
687T1088 700Q1056 700 946 697T835 694Q746 694 633 697T459 701Q429 701 418 688T407 624Q407 572 404 491T400 372V285Q400 197 416 154T496 70Q514 59 584 59Q599 59 610 52T622 36Q622 0 557 0Q497 0 457 4T387 8Q329 8 264 3T166 -2Q127 -2 105 2T76 13T70
29Q70 44 82 50T114 60T155 71T194 100T222 160Q229 191 238 367T248 706V823Q248 850 249 925T250 1044Q250 1200 238 1288Q231 1339 183 1368T83 1397Q62 1397 51 1410T40 1432Z" />
<glyph unicode="&#x125;" glyph-name="hcircumflex" horiz-adv-x="1202" d="M396 1562Q396 1567 404 1580Q439 1632 468 1677T514 1751T543 1802T562 1836T574 1855T584 1865T596 1867H648Q669 1867 683 1844Q716 1785 761 1717T832 1610T858 1563Q858 1547 836
1547Q821 1547 727 1634T626 1721Q613 1721 522 1635T416 1549Q396 1549 396 1562ZM41 1428Q41 1445 62 1456T123 1477T182 1496Q193 1501 215 1511T251 1526T282 1539T310 1549T329 1552Q356 1552 356 1506Q356 1496 350 1457T342 1379Q335 783 326 782Q326 738
345 738Q350 738 375 761T432 813T519 865T633 889Q798 889 890 790T983 485V189Q983 175 985 158T995 121T1016 87T1051 70Q1161 59 1161 26Q1161 -6 1097 -6Q1087 -6 1018 -1T926 4Q908 4 841 1T768 -2Q721 -2 721 18Q721 36 732 43T760 53T792 60T819 87T831
147Q831 155 831 167T833 201T834 296T835 487Q835 612 759 703T581 795Q489 795 383 714Q357 694 346 663T331 561T326 335V289Q326 196 341 140T407 62Q421 56 441 53T476 50T500 43T511 24Q511 15 505 8T489 0Q488 0 436 2T330 7T271 10Q257 10 199 5T125 0Q98
0 86 3T72 8T70 20Q70 40 95 48Q153 65 170 100T188 205L196 904Q196 925 196 957T197 1003Q197 1276 187 1334Q176 1390 144 1401Q131 1405 110 1405Q92 1405 85 1405T76 1406Q41 1406 41 1428Z" />
<glyph unicode="&#x126;" glyph-name="Hbar" horiz-adv-x="1619" d="M40 1432Q40 1454 98 1454Q120 1454 192 1450T329 1445Q368 1445 404 1447T510 1449Q556 1449 556 1421Q556 1404 543 1395T484 1386Q462 1386 446 1360T421 1293T409 1211T405 1133Q405 1124
407 1122T422 1120Q444 1120 542 1120T811 1121T1181 1122Q1205 1122 1210 1130T1216 1179Q1216 1246 1204 1290T1172 1352T1131 1379T1089 1390T1058 1399T1045 1425Q1045 1445 1124 1445Q1145 1445 1212 1443T1323 1441Q1345 1441 1394 1443T1483 1445Q1529 1445
1529 1419T1501 1393Q1468 1393 1445 1381T1409 1351T1391 1304T1383 1250T1382 1190V1149Q1382 1133 1389 1128T1418 1122H1506Q1535 1122 1541 1113T1548 1075Q1548 1063 1547 1057T1542 1043T1528 1034T1502 1031H1418Q1394 1031 1388 1025T1381 993Q1379 839
1379 769Q1379 722 1377 619T1375 460V384Q1375 322 1378 271T1382 197Q1382 68 1555 46Q1579 42 1579 23Q1579 8 1558 4T1479 -1Q1457 -1 1404 5T1320 11Q1284 11 1231 5T1128 -1Q1084 -1 1069 3T1054 27Q1054 40 1074 49T1120 65T1168 89T1196 133Q1211 212 1211
283Q1211 304 1211 341T1212 393Q1212 429 1214 512T1217 645Q1217 675 1204 687T1148 700Q1116 700 976 699T835 697Q746 697 633 699T459 701Q429 701 418 688T407 624Q407 572 404 491T400 372V285Q400 197 416 154T496 70Q514 59 584 59Q599 59 610 52T622
36Q622 0 557 0Q497 0 457 4T387 8Q329 8 264 3T166 -2Q127 -2 105 2T76 13T70 29Q70 44 82 50T114 60T155 71T194 100T222 160Q229 191 238 367T248 706V823Q248 846 249 911T250 1016Q250 1026 245 1029T228 1032H106Q96 1032 89 1043T81 1078Q81 1104 87 1112T105
1120H228Q242 1120 245 1125T249 1146Q246 1233 238 1288Q231 1339 183 1368T83 1397Q62 1397 51 1410T40 1432ZM402 866Q402 814 414 801T472 787H807Q917 787 1184 785Q1204 785 1209 804T1216 877Q1216 888 1216 894Q1216 905 1216 938T1217 993Q1217 1017 1211
1023T1181 1030Q1020 1029 847 1029Q728 1029 608 1030T476 1031Q449 1031 436 1031T415 1028T407 1024T406 1016Q405 981 404 932T402 866Z" />
<glyph unicode="&#x127;" glyph-name="hbar" horiz-adv-x="1202" d="M41 1141Q41 1153 42 1159T47 1173T61 1182T87 1185H175Q197 1185 197 1210Q197 1276 192 1317T173 1376T146 1400T110 1405Q92 1405 85 1405T76 1406Q41 1406 41 1428Q41 1445 62 1456T123
1477T182 1496Q193 1501 215 1511T251 1526T282 1539T310 1549T329 1552Q356 1552 356 1506Q356 1492 354 1480T348 1453T343 1377T340 1217Q340 1196 345 1190T366 1184H661Q671 1184 678 1173T686 1138Q686 1112 680 1104T662 1096H369Q350 1096 344 1091T337
1068Q331 783 326 782Q326 738 345 738Q350 738 375 761T432 813T519 865T633 889Q798 889 890 790T983 485V189Q983 175 985 158T995 121T1016 87T1051 70Q1161 59 1161 26Q1161 -6 1097 -6Q1087 -6 1018 -1T926 4Q908 4 841 1T768 -2Q721 -2 721 18Q721 36 732
43T760 53T792 60T819 87T831 147Q831 155 831 167T833 201T834 296T835 487Q835 612 759 703T581 795Q489 795 383 714Q357 694 346 663T331 561T326 335V289Q326 196 341 140T407 62Q421 56 441 53T476 50T500 43T511 24Q511 15 505 8T489 0Q488 0 436 2T330
7T271 10Q257 10 199 5T125 0Q98 0 86 3T72 8T70 20Q70 40 95 48Q153 65 170 100T188 205L196 904Q196 925 196 957T197 1003V1068Q197 1086 192 1091T168 1096H83Q54 1096 48 1105T41 1141Z" />
<glyph unicode="&#x128;" glyph-name="Itilde" horiz-adv-x="672" d="M3 1626Q3 1644 32 1695T111 1794T202 1842Q252 1842 330 1793T459 1744Q489 1744 516 1773T560 1830T584 1859Q605 1859 605 1835Q605 1814 576 1765T499 1671T408 1626Q365 1626 320 1650T232
1699T151 1724Q120 1724 93 1695T48 1638T24 1609Q3 1609 3 1626ZM40 1424Q40 1455 98 1455Q120 1455 192 1450T329 1445Q368 1445 404 1447T510 1449Q566 1449 566 1421Q566 1409 546 1398T472 1365Q405 1338 405 1131Q405 853 403 641T400 372Q400 277 411 222T451
125Q495 62 548 62Q552 62 569 61T589 59Q604 59 618 52T632 36Q632 13 621 7T582 0Q522 0 469 4T387 8Q329 8 261 3T161 -2Q122 -2 101 2T75 13T70 29Q70 44 82 50T114 60T155 71T194 100T222 160Q225 174 234 391T243 706V823Q243 850 244 925T245 1044V1139Q245
1236 238 1288Q231 1337 184 1363T83 1392Q40 1394 40 1424Z" />
<glyph unicode="&#x129;" glyph-name="itilde" horiz-adv-x="581" d="M-49 1086Q-49 1104 -20 1155T59 1254T150 1302Q200 1302 278 1253T407 1204Q437 1204 464 1233T508 1290T532 1319Q553 1319 553 1295Q553 1274 524 1225T447 1131T356 1086Q313 1086 268
1110T180 1159T99 1184Q68 1184 41 1155T-4 1098T-28 1069Q-49 1069 -49 1086ZM73 781Q73 790 78 796T99 809T130 821T178 838T239 862Q261 871 280 880T307 893T322 898T343 900Q354 900 363 891T372 861Q372 850 367 816T361 762V200Q361 148 374 115T406 71T449
54T491 49T524 43T537 20Q537 -14 502 -14Q498 -14 488 -14T472 -13Q427 -13 396 -11T326 -8Q277 -8 235 -10T181 -13Q98 -13 98 15Q98 26 106 38T129 54Q172 68 182 78Q205 100 210 197Q213 256 213 421V603Q213 651 206 682T184 727T156 746T123 754T94 760Q73
768 73 781Z" />
<glyph unicode="&#x12a;" glyph-name="Imacron" horiz-adv-x="672" d="M87 1747Q87 1785 121 1785Q278 1785 346 1784T490 1782Q510 1782 516 1772T522 1722Q522 1711 515 1704T502 1696T492 1694Q478 1694 314 1695T107 1696Q87 1696 87 1747ZM40 1424Q40 1455
98 1455Q120 1455 192 1450T329 1445Q368 1445 404 1447T510 1449Q566 1449 566 1421Q566 1409 546 1398T472 1365Q405 1338 405 1131Q405 853 403 641T400 372Q400 277 411 222T451 125Q495 62 548 62Q552 62 569 61T589 59Q604 59 618 52T632 36Q632 13 621 7T582
0Q522 0 469 4T387 8Q329 8 261 3T161 -2Q122 -2 101 2T75 13T70 29Q70 44 82 50T114 60T155 71T194 100T222 160Q225 174 234 391T243 706V823Q243 850 244 925T245 1044V1139Q245 1236 238 1288Q231 1337 184 1363T83 1392Q40 1394 40 1424Z" />
<glyph unicode="&#x12b;" glyph-name="imacron" horiz-adv-x="581" d="M35 1207Q35 1245 69 1245Q226 1245 294 1244T438 1242Q458 1242 464 1232T470 1182Q470 1171 463 1164T450 1156T440 1154Q426 1154 262 1155T55 1156Q35 1156 35 1207ZM73 781Q73 790 78
796T99 809T130 821T178 838T239 862Q261 871 280 880T307 893T322 898T343 900Q354 900 363 891T372 861Q372 850 367 816T361 762V200Q361 148 374 115T406 71T449 54T491 49T524 43T537 20Q537 -14 502 -14Q498 -14 488 -14T472 -13Q427 -13 396 -11T326 -8Q277
-8 235 -10T181 -13Q98 -13 98 15Q98 26 106 38T129 54Q172 68 182 78Q205 100 210 197Q213 256 213 421V603Q213 651 206 682T184 727T156 746T123 754T94 760Q73 768 73 781Z" />
</font>
</defs>
</svg>
